<?xml version="1.0" encoding="UTF-8" standalone="no"?>
<svg
   xmlns:dc="http://purl.org/dc/elements/1.1/"
   xmlns:cc="http://creativecommons.org/ns#"
   xmlns:rdf="http://www.w3.org/1999/02/22-rdf-syntax-ns#"
   xmlns:svg="http://www.w3.org/2000/svg"
   xmlns="http://www.w3.org/2000/svg"
   xmlns:sodipodi="http://sodipodi.sourceforge.net/DTD/sodipodi-0.dtd"
   xmlns:inkscape="http://www.inkscape.org/namespaces/inkscape"
   width="100pt"
   height="100pt"
   viewBox="0 0 35.277779 35.277777"
   version="1.1"
   id="svg8"
   inkscape:version="1.0.1 (3bc2e813f5, 2020-09-07)"
   sodipodi:docname="partidos.svg"
   inkscape:export-filename="/home/elsahuaro/site/electoral/pages/anotar-bien/imgs/pes.png"
   inkscape:export-xdpi="143.99998"
   inkscape:export-ydpi="143.99998">
  <defs
     id="defs2" />
  <sodipodi:namedview
     id="base"
     pagecolor="#ffffff"
     bordercolor="#666666"
     borderopacity="1.0"
     inkscape:pageopacity="0.0"
     inkscape:pageshadow="2"
     inkscape:zoom="1.4310425"
     inkscape:cx="115.02473"
     inkscape:cy="114.81848"
     inkscape:document-units="mm"
     inkscape:current-layer="layer9"
     inkscape:document-rotation="0"
     showgrid="false"
     units="pt"
     inkscape:window-width="1920"
     inkscape:window-height="1016"
     inkscape:window-x="0"
     inkscape:window-y="0"
     inkscape:window-maximized="1" />
  <metadata
     id="metadata5">
    <rdf:RDF>
      <cc:Work
         rdf:about="">
        <dc:format>image/svg+xml</dc:format>
        <dc:type
           rdf:resource="http://purl.org/dc/dcmitype/StillImage" />
        <dc:title></dc:title>
      </cc:Work>
    </rdf:RDF>
  </metadata>
  <g
     inkscape:label="PAN"
     inkscape:groupmode="layer"
     id="layer1"
     style="display:none">
    <g
       id="g20659"
       transform="matrix(1.2371656,0,0,-1.237209,-91.07927,493.25929)">
      <path
         d="m 86.7787,381.4252 0.711,4.526 0.711,-4.526 z m 1.997,9.341 -2.505,0.007 -2.258,-12.451 h 2.268 l 0.273,1.437 h 1.902 l 0.324,-1.431 2.186,-0.006 z"
         style="fill:#3871c1;fill-opacity:1;fill-rule:nonzero;stroke:none"
         id="path4750" />
      <path
         d="m 87.8773,370.8861 c -7.481,0 -13.545,6.062 -13.545,13.544 0,7.479 6.064,13.544 13.545,13.544 7.479,0 13.543,-6.065 13.543,-13.544 0,-7.482 -6.064,-13.544 -13.543,-13.544 m 12.118,27.801 h -24.237 c -1.181,0 -2.139,-0.957 -2.139,-2.14 v -24.236 c 0,-1.181 0.958,-2.138 2.139,-2.138 h 24.237 c 1.181,0 2.139,0.957 2.139,2.138 v 24.236 c 0,1.183 -0.958,2.14 -2.139,2.14"
         style="fill:#3871c1;fill-opacity:1;fill-rule:nonzero;stroke:none"
         id="path4754" />
      <path
         d="m 87.8773,373.7357 c -5.906,0 -10.693,4.788 -10.693,10.694 0,5.906 4.787,10.693 10.693,10.693 5.904,0 10.692,-4.787 10.692,-10.693 0,-5.906 -4.788,-10.694 -10.692,-10.694 m 0,22.812 c -6.693,0 -12.119,-5.425 -12.119,-12.118 0,-6.694 5.426,-12.119 12.119,-12.119 6.692,0 12.118,5.425 12.118,12.119 0,6.693 -5.426,12.118 -12.118,12.118"
         style="fill:#3871c1;fill-opacity:1;fill-rule:nonzero;stroke:none"
         id="path4758" />
      <path
         d="m 82.99,384.486 h -1.257 v 4.271 h 1.257 z m 1.929,-0.211 c 0.053,1.888 0.042,5.072 0.042,5.072 0,0 0.168,1.509 -1.342,1.466 h -4.191 v -12.489 h 2.305 l 0.011,4.489 1.917,-0.004 c 0,0 1.216,0 1.258,1.466"
         style="fill:#3871c1;fill-opacity:1;fill-rule:nonzero;stroke:none"
         id="path4760" />
      <path
         d="m 94.2811,386.2552 -0.97,4.559 h -2.273 v -12.492 h 2.279 v 2.693 l 0.98,-2.693 h 2.086 l -0.027,12.487 h -2.07 z"
         style="fill:#3871c1;fill-opacity:1;fill-rule:nonzero;stroke:none"
         id="path4764" />
    </g>
  </g>
  <g
     inkscape:groupmode="layer"
     id="layer2"
     inkscape:label="PRI"
     style="display:none">
    <g
       id="g20667"
       transform="matrix(1.2342655,0,0,-1.2337476,-90.344535,444.13187)">
      <path
         d="m 82.748,359.986 h -9.551 v -28.594 h 9.551 z m 19.031,0 h -9.541 v -28.594 h 9.541 z"
         style="fill:#adb2b9;fill-opacity:1;fill-rule:evenodd;stroke:none"
         id="path2964" />
      <path
         d="m 101.7352,345.7074 c 0,6.581 -3.963,12.171 -9.496,14.258 v -28.513 c 5.533,2.072 9.496,7.669 9.496,14.255"
         style="fill:#ea293d;fill-opacity:1;fill-rule:evenodd;stroke:none"
         id="path2968" />
      <path
         d="m 82.7367,359.9652 c -5.533,-2.087 -9.498,-7.672 -9.498,-14.263 0,-6.581 3.965,-12.176 9.498,-14.25 z"
         style="fill:#17a54e;fill-opacity:1;fill-rule:evenodd;stroke:none"
         id="path2972" />
      <path
         d="m 79.3363,349.1449 c 0.127,-0.128 0.199,-0.417 0.199,-0.853 v -1.066 c 0,-0.477 -0.067,-0.787 -0.171,-0.939 -0.113,-0.151 -0.31,-0.226 -0.598,-0.226 l -0.227,0.01 v 3.278 c 0.404,0 0.678,-0.063 0.797,-0.204 m -3.958,-10.477 h 3.161 v 5.193 h 0.845 c 0.686,0 1.244,0.101 1.668,0.302 0.427,0.205 0.724,0.49 0.884,0.874 0.158,0.371 0.235,0.966 0.235,1.791 v 1.118 c 0,0.809 -0.04,1.403 -0.122,1.786 -0.082,0.383 -0.238,0.715 -0.477,0.975 -0.224,0.282 -0.576,0.482 -1.033,0.626 -0.467,0.147 -1.124,0.211 -1.988,0.211 h -3.173 z"
         style="fill:#ffffff;fill-opacity:1;fill-rule:evenodd;stroke:none"
         id="path2976" />
      <path
         d="m 88.1371,354.1849 c 0.144,-0.127 0.211,-0.39 0.211,-0.806 v -0.711 c 0,-0.56 -0.067,-0.902 -0.217,-0.994 -0.133,-0.107 -0.385,-0.166 -0.738,-0.166 v 2.864 c 0.363,0 0.613,-0.056 0.744,-0.187 m -3.9,-10.492 h 3.156 v 5.808 c 0.433,0 0.7,-0.082 0.801,-0.238 0.101,-0.166 0.154,-0.593 0.154,-1.286 v -4.284 h 2.925 v 3.408 c 0,1.035 -0.022,1.668 -0.073,1.896 -0.049,0.237 -0.184,0.49 -0.401,0.771 -0.215,0.274 -0.634,0.489 -1.257,0.65 0.689,0.074 1.154,0.283 1.384,0.626 0.24,0.339 0.347,1.013 0.347,2.01 0,1.098 -0.159,1.901 -0.49,2.402 -0.333,0.506 -0.767,0.809 -1.294,0.934 -0.522,0.116 -1.54,0.181 -3.028,0.181 h -2.224 z"
         style="fill:#231f20;fill-opacity:1;fill-rule:evenodd;stroke:none"
         id="path2980" />
      <path
         d="m 94.741,338.699 h 3.161 v 12.863 h -3.161 z"
         style="fill:#ffffff;fill-opacity:1;fill-rule:evenodd;stroke:none"
         id="path2982" />
    </g>
  </g>
  <g
     inkscape:groupmode="layer"
     id="layer3"
     inkscape:label="PRD"
     style="display:none">
    <g
       id="g20675"
       transform="matrix(1.2832475,0,0,-1.2833425,-93.175814,412.99152)">
      <path
         d="m 98.7269,294.5648 c 0.629,0 1.133,0.508 1.133,1.131 v 24.748 c 0,0.621 -0.504,1.125 -1.133,1.125 h -24.742 c -0.623,0 -1.135,-0.504 -1.135,-1.125 v -24.748 c 0,-0.627 0.512,-1.135 1.135,-1.135 z"
         style="fill:#f5d917;fill-opacity:1;fill-rule:nonzero;stroke:none"
         id="path2986" />
      <path
         d="m 98.7269,294.5648 c 0.629,0 1.133,0.508 1.133,1.131 v 24.748 c 0,0.621 -0.504,1.125 -1.133,1.125 h -24.742 c -0.623,0 -1.135,-0.504 -1.135,-1.125 v -24.748 c 0,-0.627 0.512,-1.135 1.135,-1.135 z"
         style="fill:none;stroke:#231f20;stroke-width:0.481;stroke-linecap:butt;stroke-linejoin:miter;stroke-miterlimit:4;stroke-dasharray:none;stroke-opacity:1"
         id="path2990" />
      <path
         d="m 84.5023,316.0785 -1.834,4.328 m -0.781,-6.883 -4.545,1.811 m 4.545,-5.416 -4.545,-1.787 m 7.172,-0.77 -1.846,-4.367 m 5.547,4.381 1.807,-4.438 m 0.808,6.983 4.43,-1.813 m -4.432,5.424 4.49,1.803 m -7.113,0.754 1.873,4.378 m -7.156,-5.392 -2.072,2.082 m 0.646,-5.434 -3.023,0.075 m 4.449,-3.411 -2.191,-2.06 m 5.626,0.666 0.043,-3.037 m 3.389,4.433 2.145,-2.084 m -0.725,5.418 3.063,-0.009 m -4.483,3.361 2.113,2.082 m -5.545,-0.697 v 2.959 m 0,-11.027 c 1.889,0 3.424,1.495 3.424,3.331 0,1.848 -1.535,3.348 -3.424,3.348 -1.892,0 -3.431,-1.504 -3.431,-3.348 0,-1.841 1.539,-3.331 3.431,-3.331 z"
         style="fill:none;stroke:#231f20;stroke-width:1.923;stroke-linecap:butt;stroke-linejoin:miter;stroke-miterlimit:4;stroke-dasharray:none;stroke-opacity:1"
         id="path2994" />
      <path
         d="m 80.4457,302.3636 h 2.465 c 0.584,0 1.068,-0.563 1.068,-1.858 0,-0.99 -0.76,-1.724 -1.463,-1.978 l -0.201,-0.063 -0.48,1.211 0.248,0.069 c 0.254,0.054 0.508,0.369 0.508,0.654 0,0.414 -0.268,0.617 -0.364,0.623 h -0.32 v -3.898 h -1.461 z"
         style="fill:#231f20;fill-opacity:1;fill-rule:nonzero;stroke:none"
         id="path2998" />
      <path
         d="m 84.5263,302.3441 h 2.475 c 0.56,0 1.134,-0.856 1.146,-1.617 0,-0.569 -0.295,-1.241 -0.586,-1.414 l 0.883,-2.2 h -1.627 l -0.99,2.512 0.258,-0.033 c 0.15,0.033 0.513,0.42 0.494,0.82 -0.014,0.371 -0.139,0.44 -0.344,0.551 l -0.236,0.049 v -3.899 h -1.473 z"
         style="fill:#231f20;fill-opacity:1;fill-rule:nonzero;stroke:none"
         id="path3002" />
      <path
         d="m 90.4379,297.1078 v 3.885 h 0.141 c 0.267,0.027 0.738,-0.631 0.738,-1.319 0,-0.654 -0.371,-1.078 -0.967,-1.256 l 0.537,-1.306 0.543,0.232 c 0.651,0.414 1.278,0.942 1.278,2.33 0,1.877 -1.022,2.699 -1.874,2.699 h -1.855 v -5.269 z"
         style="fill:#231f20;fill-opacity:1;fill-rule:nonzero;stroke:none"
         id="path3006" />
    </g>
  </g>
  <g
     inkscape:groupmode="layer"
     id="layer4"
     inkscape:label="PT"
     style="display:none">
    <g
       id="g20767"
       transform="matrix(1.265843,0,0,-1.2654343,-267.9182,505.6182)">
      <path
         d="m 239.521,399.561 h -27.869 v -27.878 h 27.869 z"
         style="fill:#231f20;fill-opacity:1;fill-rule:nonzero;stroke:none"
         id="path3576" />
      <path
         d="M 238.64,398.671 H 212.527 V 372.569 H 238.64 Z"
         style="fill:#ea293d;fill-opacity:1;fill-rule:nonzero;stroke:none"
         id="path3578" />
      <path
         d="m 233.933,374.6595 h -3.09 v 12.043 h -2.803 v 2.962 h 8.766 v -2.962 h -2.873 z"
         style="fill:#f7ec19;fill-opacity:1;fill-rule:nonzero;stroke:none"
         id="path3582" />
      <path
         d="m 225.7518,396.6439 0.687,-1.987 2.098,-0.038 -1.67,-1.271 0.608,-2.012 -1.723,1.204 -1.725,-1.204 0.614,2.012 -1.686,1.271 2.104,0.038 z"
         style="fill:#f7ec19;fill-opacity:1;fill-rule:nonzero;stroke:none"
         id="path3586" />
      <path
         d="m 217.4838,374.6595 h -3.205 v 15.021 h 3.205 2.428 c 0,0 4.043,0.042 4.043,-4.403 0,-4.45 -4.09,-4.45 -4.09,-4.45 h -2.381 z"
         style="fill:#f7ec19;fill-opacity:1;fill-rule:nonzero;stroke:none"
         id="path3590" />
      <path
         d="m 217.4838,386.6722 h 1.754 c 0,0 1.766,0.161 1.766,-1.396 0,-1.556 -1.766,-1.556 -1.766,-1.556 h -1.754 z"
         style="fill:#ea293d;fill-opacity:1;fill-rule:nonzero;stroke:none"
         id="path3594" />
    </g>
  </g>
  <g
     inkscape:groupmode="layer"
     id="layer5"
     inkscape:label="PVEM"
     style="display:none">
    <g
       id="g20759"
       transform="matrix(1.2010274,0,0,-1.252851,-253.48764,453.50925)">
      <path
         d="m 240.432,336.9418 c 0,-1.719 -1.341,-3.118 -3.015,-3.118 h -23.351 c -1.659,0 -3.007,1.399 -3.007,3.118 v 21.92 c 0,1.724 1.348,3.12 3.007,3.12 h 23.351 c 1.674,0 3.015,-1.396 3.015,-3.12 z"
         style="fill:#7bc62e;fill-opacity:1;fill-rule:evenodd;stroke:none"
         id="path3010" />
      <path
         d="m 229.8515,338.5599 c 0.41,0.127 0.896,0.304 1.283,0.376 -0.429,-0.127 -0.831,-0.274 -1.258,-0.401 l -0.025,0.025"
         style="fill:#b6da9a;fill-opacity:1;fill-rule:evenodd;stroke:none"
         id="path3014" />
      <path
         d="m 224.0951,351.2211 c -0.454,0.937 -1.052,2.414 -0.93,3.813 0.065,0.749 0.445,1.253 0.827,1.765 0.029,0.767 0.225,1.465 0.45,2.064 0.356,0.927 0.922,1.964 2.146,2.063 l 0.403,-0.003 0.411,0.138 c 0.675,0.13 1.692,0.054 2.365,-0.015 1.474,-0.155 2.195,-0.628 2.985,-1.47 0.713,-0.776 0.586,-1.911 0.591,-1.863 -0.211,-0.113 -0.315,0.171 -0.519,0.249 -0.986,0.326 -3.15,0.538 -4.625,0.464 -0.286,-0.018 -0.521,-0.217 -0.785,-0.138 -0.314,-0.711 -0.423,-0.847 -0.024,-1.921 0.1,-0.288 0.227,-0.364 0.307,-0.558 0.301,-0.722 0.12,-1.888 -0.042,-2.589 -0.175,-0.805 -0.453,-1.484 -0.693,-2.186 -0.922,0.088 -1.949,0.162 -2.867,0.187 m 5.493,9.705 c -0.82,0.094 -1.749,0.092 -2.394,-0.046 0.095,-0.296 0.109,-0.637 0.095,-1.03 0.929,0.104 1.598,0.051 2.465,0 0.47,-0.023 0.731,-0.077 1.311,-0.258 0,0 0.126,-0.055 0.596,0.736 -0.486,0.307 -1.291,0.508 -2.073,0.598 m -3.134,-0.392 c -0.46,-0.383 -0.765,-1.041 -1.067,-1.674 -0.299,-0.644 -0.572,-1.26 -0.697,-1.978 -0.104,-0.584 0.137,-1.052 0.424,-1.331 0.465,-0.432 1.601,-0.464 1.931,0.131 0.308,0.552 0.069,1.004 -0.035,1.471 -0.129,0.491 0.162,0.814 0.275,1.238 -0.711,0.469 0.282,1.39 -0.308,2.477 -0.236,-0.054 -0.389,-0.212 -0.523,-0.334 m 0.894,-0.816 c -0.059,-0.336 -0.364,-0.907 0.163,-1.287 0.076,-0.051 0.424,0.092 0.629,0.126 1.682,0.266 3.724,-0.193 4.951,-0.558 -0.906,1.549 -3.052,1.865 -5.743,1.719"
         style="fill:#231d1b;fill-opacity:1;fill-rule:evenodd;stroke:none"
         id="path3018" />
      <path
         d="m 233.1283,357.9847 c -0.306,0.529 -0.894,0.921 -0.894,0.921 0,0 -0.448,0.367 -1.172,0.577 -0.714,0.219 -1.361,0.282 -1.577,0.302 -0.378,0.043 -1.376,0.028 -1.614,0.028 -0.205,-0.016 -0.553,-0.081 -0.553,-0.081 0,0 -0.223,-0.595 -0.155,-0.84 0.055,-0.208 0.19,-0.461 0.33,-0.466 0.22,-0.012 0.493,0.11 0.805,0.125 0,0 0.8,0.09 1.744,0.037 0.948,-0.074 1.576,-0.218 1.894,-0.28 0.37,-0.072 1.192,-0.323 1.192,-0.323"
         style="fill:#ea2742;fill-opacity:1;fill-rule:evenodd;stroke:none"
         id="path3022" />
      <path
         d="m 231.0726,359.5922 c -0.966,0.341 -2.748,0.396 -3.776,0.258 0.039,0.402 -0.078,1.021 -0.11,1.005 0.83,0.357 3.455,0.216 4.488,-0.47 0.706,-0.481 1.554,-1.294 1.559,-2.39 -0.739,1.249 -2.375,1.655 -2.161,1.597"
         style="fill:#f4e218;fill-opacity:1;fill-rule:evenodd;stroke:none"
         id="path3026" />
      <path
         d="m 226.9804,360.8383 c 0,0 -0.444,-0.066 -0.885,-0.768 -0.463,-0.73 -0.976,-1.885 -1.019,-2.036 -0.037,-0.155 -0.402,-1.032 -0.326,-1.62 0,0 0.078,-1.057 1.026,-1.181 0,0 0.252,-0.063 0.788,0.027 0.538,0.106 0.634,0.791 0.631,1.027 -0.01,0.226 -0.166,0.727 -0.186,0.893 -0.029,0.155 0.079,0.64 0.186,0.887 0.101,0.25 0.119,0.295 0.119,0.295 0,0 -0.419,0.163 -0.265,0.872 0.166,0.716 0.149,0.904 0.101,1.167 -0.048,0.255 -0.07,0.416 -0.17,0.437"
         style="fill:#f4e218;fill-opacity:1;fill-rule:evenodd;stroke:none"
         id="path3030" />
      <path
         d="m 226.9804,359.7299 c 0,-0.204 -0.16,-0.362 -0.354,-0.362 -0.193,0 -0.355,0.158 -0.355,0.362 0,0.203 0.162,0.365 0.355,0.365 0.194,0 0.354,-0.162 0.354,-0.365"
         style="fill:#231d1b;fill-opacity:1;fill-rule:evenodd;stroke:none"
         id="path3034" />
      <path
         d="m 220.1308,337.0179 c 0.801,-0.021 1.668,0.044 2.427,-0.032 -0.8,0.017 -1.665,-0.055 -2.427,0.032"
         style="fill:#fefefc;fill-opacity:1;fill-rule:evenodd;stroke:none"
         id="path3038" />
      <path
         d="m 222.5722,338.0482 -0.016,-0.326 h -2.406 c 0.746,0.068 1.6,0.013 2.377,0.033 l 0.045,0.293"
         style="fill:#fefefc;fill-opacity:1;fill-rule:evenodd;stroke:none"
         id="path3042" />
      <path
         d="m 225.1654,335.1508 c -0.019,0.771 0.023,1.456 0.023,2.193 l 0.449,-0.033 c 0.316,-0.572 0.434,-1.458 0.67,-2.16 z"
         style="fill:#7bc62e;fill-opacity:1;fill-rule:evenodd;stroke:none"
         id="path3046" />
      <path
         d="m 226.2494,342.056 c 1.034,0.044 1.834,-0.71 1.806,-2.104 -0.027,-0.921 -0.495,-1.635 -1.123,-1.729 0.9,-0.418 1.055,-1.909 1.433,-3.072 h -2.058 c -0.238,0.702 -0.351,1.585 -0.67,2.16 l -0.449,0.033 c 0,-0.737 -0.042,-1.421 -0.026,-2.193 h -1.851 c 0.044,2.265 -0.012,4.672 0.064,6.905 z m -0.105,-2.803 c 0.105,0.26 0.076,0.74 -0.022,0.927 -0.16,0.315 -0.573,0.215 -0.915,0.232 v -1.395 c 0.382,0.024 0.801,-0.081 0.937,0.236"
         style="fill:#fefefc;fill-opacity:1;fill-rule:evenodd;stroke:none"
         id="path3050" />
      <path
         d="m 231.5492,342.056 c 1.735,0.134 2.668,-1.342 2.546,-3.87 -0.098,-1.903 -1,-2.942 -2.257,-3.035 h -3.068 v 6.905 z m 0.582,-4.271 c 0.369,0.934 -0.013,2.104 -0.678,2.301 -0.221,0.066 -0.508,0.011 -0.794,0.037 -0.047,-0.951 0,-2.047 -0.041,-3.005 0.726,-0.049 1.284,0.044 1.513,0.667"
         style="fill:#fefefc;fill-opacity:1;fill-rule:evenodd;stroke:none"
         id="path3054" />
      <path
         d="m 214.5189,342.0238 c 0.217,-1.487 0.416,-2.996 0.668,-4.437 0.242,1.493 0.46,3.022 0.736,4.472 h 1.98 c -0.558,-2.308 -1.136,-4.588 -1.687,-6.908 h -2.123 c -0.525,2.304 -1.052,4.579 -1.565,6.908 0.654,-0.028 1.368,0.037 1.991,-0.035"
         style="fill:#fefefc;fill-opacity:1;fill-rule:evenodd;stroke:none"
         id="path3058" />
      <path
         d="m 230.6156,337.1166 c 0.044,0.958 -0.009,2.061 0.044,3.007 0.284,-0.027 0.568,0.028 0.793,-0.036 0.664,-0.194 1.047,-1.367 0.677,-2.302 -0.23,-0.618 -0.786,-0.717 -1.514,-0.669"
         style="fill:#7bc62e;fill-opacity:1;fill-rule:evenodd;stroke:none"
         id="path3062" />
      <path
         d="m 227.9984,352.0804 2.18,4.666 3.211,-0.796 -1.916,-3.932 -0.097,-0.072 -2.464,-0.159 -0.927,0.254"
         style="fill:#ffffff;fill-opacity:1;fill-rule:nonzero;stroke:none"
         id="path3066" />
      <path
         d="m 231.9433,352.0912 c 3.178,0.21 2.181,0.164 4.074,0.547 0.647,0.192 0.337,0.19 0.24,-0.011 -0.381,-0.162 -0.799,-0.413 -1.161,-0.547 -3.702,-1.26 -7.006,-1.555 -11.047,-2.281 -0.356,0.788 -0.558,1.328 -0.95,2.147 0.357,0.018 0.659,0.083 1.021,0.108 0.985,0.044 2.066,0.056 3.065,0.026 0.496,-0.037 1.091,0 1.602,-0.021 1.052,-0.005 2.035,-0.044 3.156,0.032"
         style="fill:#aeda62;fill-opacity:1;fill-rule:evenodd;stroke:none"
         id="path3070" />
      <path
         d="m 214.6371,348.6996 c 0.044,0.056 0.396,0.056 0.637,0.116 0,0 1.338,0.214 2.14,0.277 l 2.098,0.256 1.339,0.175 3.244,0.353 c 0,0 1.592,0.277 1.853,0.328 0.259,0.063 1.967,0.347 2.217,0.383 0,0 2.324,0.43 2.521,0.464 0,0 1.5,0.364 1.966,0.452 0,0 1.211,0.358 1.911,0.55 l 0.777,0.245 0.664,0.274 0.432,0.203 -0.314,-0.263 -0.601,-0.254 c 0,0 -0.572,-0.367 -1.088,-0.487 0,0 -0.828,-0.268 -1.582,-0.395 0,0 -0.909,-0.239 -1.144,-0.254 l -1.004,-0.232 -1.896,-0.4 c 0,0 -2.291,-0.403 -2.482,-0.464 -0.201,-0.046 -1.523,-0.214 -1.625,-0.23 l -0.369,-0.074 -3.052,-0.462 -1.641,-0.235 -2.116,-0.264 c 0,0 -1.254,-0.161 -1.478,-0.184 l -1.353,-0.143 z"
         style="fill:#ffffff;fill-opacity:1;fill-rule:nonzero;stroke:none"
         id="path3074" />
      <path
         d="m 230.1195,349.0521 c -0.99,-0.42 -1.913,-0.845 -3.07,-1.219 -0.514,-0.146 -1.327,-0.402 -1.843,-0.537 -0.224,0.544 -0.356,0.837 -0.465,1.161 -0.137,0.387 -0.445,0.826 -0.546,1.244 3.821,0.579 7.59,1.246 10.782,2.383 0.34,0.109 0.621,0.213 0.953,0.394 0.229,0.105 0.296,0.177 0.513,0.299 0.076,0.014 -2.661,-2.348 -6.324,-3.725"
         style="fill:#1da952;fill-opacity:1;fill-rule:evenodd;stroke:none"
         id="path3078" />
      <path
         d="m 214.6947,348.4349 c 2.259,0.243 4.279,0.538 6.49,0.812 0.417,-0.833 0.82,-1.529 1.227,-2.376 0.004,-0.159 -4.821,-0.165 -6.378,0.556 -1.077,0.501 -1.336,0.987 -1.339,1.008"
         style="fill:#1da952;fill-opacity:1;fill-rule:evenodd;stroke:none"
         id="path3082" />
      <path
         d="m 220.2767,351.5756 c 0.32,-0.503 0.883,-2.026 0.883,-2.026 -2.198,-0.36 -4.377,-0.513 -6.521,-0.882 0.963,1.661 5.608,2.924 5.638,2.908"
         style="fill:#aeda62;fill-opacity:1;fill-rule:evenodd;stroke:none"
         id="path3086" />
      <path
         d="m 217.6727,355.9623 3.413,0.837 4.506,-10.142 0.42,0.886 c 0,0 1.215,0.38 2.02,0.655 0.796,0.254 1.823,0.72 1.889,0.722 l -2.773,-5.432 h -3.137 z"
         style="fill:#ffffff;fill-opacity:1;fill-rule:nonzero;stroke:none"
         id="path3090" />
      <path
         d="m 218.2929,342.059 v -6.891 h 4.275 v 1.85 h -2.418 v 0.704 h 2.418 v 1.796 h -2.418 v 0.734 h 2.424 v 1.807 z"
         style="fill:#fefefc;fill-opacity:1;fill-rule:evenodd;stroke:none"
         id="path3094" />
      <path
         d="m 234.6449,342.0345 v -6.884 h 4.288 v 1.857 h -2.423 v 0.695 h 2.423 v 1.8 h -2.423 v 0.728 h 2.429 v 1.804 z"
         style="fill:#fefefc;fill-opacity:1;fill-rule:evenodd;stroke:none"
         id="path3098" />
    </g>
  </g>
  <g
     inkscape:groupmode="layer"
     id="layer6"
     inkscape:label="MC"
     style="display:none">
    <g
       id="g1174"
       transform="matrix(3.64178,0,0,3.6417932,-14.287942,-41.682235)">
      <g
         id="g20734"
         transform="matrix(0.35277777,0,0,-0.35277777,-70.370741,124.29077)">
        <path
           d="m 211.1234,299.35 c -0.351,-0.297 -0.526,-0.703 -0.526,-1.218 0,-0.514 0.175,-0.921 0.526,-1.219 0.353,-0.294 0.756,-0.445 1.211,-0.445 0.193,0 0.357,0.013 0.492,0.045 0.135,0.029 0.248,0.07 0.341,0.124 l 0.066,0.69 c -0.094,-0.058 -0.205,-0.104 -0.335,-0.137 -0.13,-0.031 -0.28,-0.049 -0.45,-0.049 -0.305,0 -0.56,0.093 -0.763,0.273 -0.202,0.184 -0.305,0.422 -0.305,0.718 0,0.298 0.101,0.537 0.3,0.722 0.2,0.184 0.449,0.272 0.744,0.272 0.166,0 0.311,-0.015 0.434,-0.053 0.124,-0.035 0.232,-0.084 0.325,-0.145 l 0.054,0.673 c -0.103,0.061 -0.232,0.108 -0.384,0.145 -0.153,0.034 -0.326,0.051 -0.519,0.051 -0.455,0 -0.858,-0.149 -1.211,-0.447"
           style="fill:#f14c1c;fill-opacity:1;fill-rule:nonzero;stroke:none"
           id="path4828" />
        <path
           d="m 213.706,296.537 h 0.774 v 3.185 h -0.774 z"
           style="fill:#f14c1c;fill-opacity:1;fill-rule:nonzero;stroke:none"
           id="path4830" />
        <path
           d="m 215.0785,299.722 v -2.098 c 0.001,-0.348 0.132,-0.629 0.395,-0.84 0.264,-0.208 0.59,-0.316 0.982,-0.316 0.393,0 0.722,0.108 0.986,0.319 0.265,0.214 0.397,0.495 0.397,0.839 v 2.096 h -0.753 v -2.025 c 0,-0.168 -0.056,-0.301 -0.17,-0.4 -0.112,-0.099 -0.263,-0.149 -0.449,-0.149 -0.186,0 -0.336,0.051 -0.448,0.151 -0.11,0.101 -0.166,0.235 -0.166,0.398 v 2.025 z"
           style="fill:#f14c1c;fill-opacity:1;fill-rule:nonzero;stroke:none"
           id="path4834" />
        <path
           d="m 219.1308,299.057 h 0.241 c 0.29,0 0.532,-0.08 0.728,-0.244 0.197,-0.162 0.293,-0.392 0.293,-0.684 0,-0.299 -0.096,-0.528 -0.29,-0.688 -0.196,-0.157 -0.438,-0.239 -0.731,-0.239 h -0.241 z m 0.329,0.665 h -1.072 v -3.185 h 1.072 c 0.477,0 0.879,0.146 1.212,0.438 0.33,0.291 0.496,0.677 0.496,1.154 0,0.482 -0.166,0.868 -0.496,1.157 -0.333,0.292 -0.735,0.436 -1.212,0.436"
           style="fill:#f14c1c;fill-opacity:1;fill-rule:nonzero;stroke:none"
           id="path4838" />
        <path
           d="m 222.7831,298.4271 c 0.018,0.046 0.039,0.107 0.064,0.182 0.025,0.073 0.04,0.12 0.046,0.144 0.017,-0.058 0.036,-0.125 0.056,-0.188 0.021,-0.066 0.035,-0.112 0.044,-0.138 l 0.23,-0.641 h -0.669 z m 0.394,1.323 h -0.533 l -1.253,-3.213 h 0.734 l 0.244,0.663 h 1.045 l 0.249,-0.663 h 0.767 z"
           style="fill:#f14c1c;fill-opacity:1;fill-rule:nonzero;stroke:none"
           id="path4842" />
        <path
           d="m 225.4979,299.057 h 0.241 c 0.289,0 0.532,-0.08 0.728,-0.244 0.196,-0.162 0.295,-0.392 0.295,-0.684 0,-0.299 -0.097,-0.528 -0.292,-0.688 -0.195,-0.157 -0.439,-0.239 -0.731,-0.239 h -0.241 z m 0.331,0.665 h -1.075 v -3.185 h 1.075 c 0.475,0 0.878,0.146 1.211,0.438 0.329,0.291 0.495,0.677 0.495,1.154 0,0.482 -0.166,0.868 -0.495,1.157 -0.333,0.292 -0.736,0.436 -1.211,0.436"
           style="fill:#f14c1c;fill-opacity:1;fill-rule:nonzero;stroke:none"
           id="path4846" />
        <path
           d="m 229.1517,298.4271 c 0.017,0.046 0.038,0.107 0.062,0.182 0.026,0.073 0.041,0.12 0.049,0.144 0.017,-0.058 0.034,-0.125 0.055,-0.188 0.02,-0.066 0.034,-0.112 0.044,-0.138 l 0.228,-0.641 h -0.667 z m 0.394,1.323 h -0.533 l -1.253,-3.213 h 0.734 l 0.245,0.663 h 1.045 l 0.248,-0.663 h 0.766 z"
           style="fill:#f14c1c;fill-opacity:1;fill-rule:nonzero;stroke:none"
           id="path4850" />
        <path
           d="m 234.1122,299.722 h -0.775 v -1.198 l 0.006,-0.599 c -0.076,0.095 -0.164,0.2 -0.261,0.315 -0.099,0.113 -0.184,0.211 -0.258,0.295 l -1.077,1.187 h -0.624 v -3.185 h 0.773 v 1.349 l -0.005,0.673 c 0.097,-0.12 0.2,-0.242 0.31,-0.372 0.11,-0.127 0.204,-0.237 0.284,-0.326 l 1.238,-1.358 h 0.389 z"
           style="fill:#f14c1c;fill-opacity:1;fill-rule:nonzero;stroke:none"
           id="path4854" />
        <path
           d="m 235.6225,297.4281 c -0.185,0.184 -0.278,0.421 -0.278,0.71 0,0.283 0.093,0.519 0.278,0.702 0.187,0.185 0.401,0.276 0.651,0.276 0.253,0 0.472,-0.091 0.656,-0.276 0.185,-0.183 0.278,-0.419 0.278,-0.702 0,-0.289 -0.094,-0.526 -0.283,-0.71 -0.186,-0.185 -0.406,-0.275 -0.651,-0.275 -0.25,0 -0.464,0.09 -0.651,0.275 m -0.552,1.907 c -0.34,-0.306 -0.509,-0.707 -0.509,-1.197 0,-0.495 0.169,-0.897 0.512,-1.205 0.341,-0.31 0.741,-0.465 1.2,-0.465 0.465,0 0.868,0.154 1.208,0.462 0.34,0.307 0.508,0.709 0.508,1.208 0,0.487 -0.171,0.887 -0.513,1.194 -0.343,0.31 -0.742,0.465 -1.203,0.465 -0.463,0 -0.864,-0.154 -1.203,-0.462"
           style="fill:#f14c1c;fill-opacity:1;fill-rule:nonzero;stroke:none"
           id="path4858" />
        <path
           d="m 213.4916,300.2816 -0.076,0.887 c -0.005,0.05 -0.012,0.125 -0.02,0.223 -0.008,0.099 -0.012,0.174 -0.012,0.223 -0.077,-0.159 -0.15,-0.311 -0.221,-0.455 l -0.443,-0.892 -0.103,-0.001 -0.447,0.893 c -0.016,0.03 -0.044,0.088 -0.084,0.175 -0.039,0.084 -0.082,0.176 -0.128,0.274 -0.012,-0.149 -0.024,-0.295 -0.035,-0.44 l -0.076,-0.887 h -0.256 l 0.164,1.962 h 0.178 l 0.506,-1.008 c 0.063,-0.127 0.114,-0.228 0.15,-0.308 0.037,-0.079 0.067,-0.143 0.088,-0.197 0.029,0.064 0.064,0.144 0.109,0.238 0.045,0.093 0.089,0.183 0.13,0.267 l 0.5,1.008 h 0.179 l 0.17,-1.962 z"
           style="fill:#1a66b5;fill-opacity:1;fill-rule:nonzero;stroke:none"
           id="path4862" />
        <path
           d="m 215.9164,300.2465 c -0.27,0 -0.505,0.095 -0.706,0.281 -0.2,0.189 -0.299,0.436 -0.299,0.74 0,0.301 0.099,0.546 0.301,0.735 0.203,0.188 0.437,0.282 0.704,0.282 0.27,0 0.506,-0.094 0.707,-0.281 0.2,-0.189 0.3,-0.433 0.3,-0.736 0,-0.304 -0.1,-0.551 -0.3,-0.74 -0.201,-0.186 -0.437,-0.281 -0.707,-0.281 m 0,1.78 c -0.189,0 -0.354,-0.067 -0.499,-0.206 -0.143,-0.137 -0.215,-0.322 -0.215,-0.553 0,-0.23 0.072,-0.417 0.214,-0.554 0.144,-0.138 0.311,-0.206 0.5,-0.206 0.187,0 0.353,0.068 0.497,0.206 0.145,0.137 0.218,0.324 0.218,0.554 0,0.231 -0.073,0.416 -0.215,0.553 -0.145,0.139 -0.311,0.206 -0.5,0.206"
           style="fill:#1a66b5;fill-opacity:1;fill-rule:nonzero;stroke:none"
           id="path4866" />
        <path
           d="m 218.8143,300.2533 h -0.092 l -0.757,1.99 0.303,0.002 0.353,-0.934 c 0.055,-0.15 0.108,-0.305 0.158,-0.469 0.037,0.11 0.067,0.202 0.091,0.274 0.027,0.074 0.049,0.138 0.071,0.194 l 0.351,0.937 0.274,-0.004 z"
           style="fill:#1a66b5;fill-opacity:1;fill-rule:nonzero;stroke:none"
           id="path4870" />
        <path
           d="m 220.728,302.245 h 0.288 v -1.962 h -0.288 z"
           style="fill:#1a66b5;fill-opacity:1;fill-rule:nonzero;stroke:none"
           id="path4872" />
        <path
           d="m 224.2142,300.2816 -0.076,0.887 c -0.005,0.05 -0.011,0.125 -0.02,0.223 -0.01,0.099 -0.014,0.174 -0.014,0.223 -0.075,-0.159 -0.148,-0.311 -0.22,-0.455 l -0.443,-0.892 -0.103,-0.001 -0.447,0.893 c -0.016,0.03 -0.044,0.088 -0.083,0.175 -0.041,0.084 -0.083,0.176 -0.129,0.274 -0.011,-0.149 -0.023,-0.295 -0.036,-0.44 l -0.074,-0.887 h -0.257 l 0.165,1.962 h 0.177 l 0.506,-1.008 c 0.064,-0.127 0.114,-0.228 0.151,-0.308 0.037,-0.079 0.066,-0.143 0.087,-0.197 0.028,0.064 0.065,0.144 0.11,0.238 0.044,0.093 0.087,0.183 0.129,0.267 l 0.501,1.008 h 0.179 l 0.168,-1.962 z"
           style="fill:#1a66b5;fill-opacity:1;fill-rule:nonzero;stroke:none"
           id="path4876" />
        <path
           d="m 225.751,302.245 h 0.289 v -1.962 h -0.289 z"
           style="fill:#1a66b5;fill-opacity:1;fill-rule:nonzero;stroke:none"
           id="path4878" />
        <path
           d="m 227.3642,300.2816 v 1.962 h 1.025 v -0.255 h -0.737 v -0.593 h 0.619 v -0.256 h -0.619 v -0.603 h 0.841 v -0.255 z"
           style="fill:#1a66b5;fill-opacity:1;fill-rule:nonzero;stroke:none"
           id="path4882" />
        <path
           d="m 231.2592,300.2386 -0.89,1.006 c -0.068,0.079 -0.141,0.164 -0.218,0.253 -0.078,0.094 -0.15,0.178 -0.219,0.262 -0.003,-0.034 -0.004,-0.069 -0.004,-0.107 v -0.087 -0.153 -0.147 -0.984 h -0.285 v 1.962 l 0.2,0.002 0.816,-0.922 c 0.064,-0.074 0.142,-0.168 0.236,-0.281 0.095,-0.113 0.15,-0.177 0.162,-0.193 0.001,0.032 0.003,0.062 0.003,0.099 v 0.08 0.037 0.127 0.123 0.928 h 0.286 v -2.005 z"
           style="fill:#1a66b5;fill-opacity:1;fill-rule:nonzero;stroke:none"
           id="path4886" />
        <path
           d="m 233.3475,301.9886 v -1.707 h -0.29 v 1.707 h -0.61 v 0.255 h 1.509 v -0.255 z"
           style="fill:#1a66b5;fill-opacity:1;fill-rule:nonzero;stroke:none"
           id="path4890" />
        <path
           d="m 235.9911,300.2465 c -0.271,0 -0.507,0.095 -0.707,0.281 -0.2,0.189 -0.301,0.436 -0.301,0.74 0,0.301 0.101,0.546 0.303,0.735 0.201,0.188 0.435,0.282 0.705,0.282 0.269,0 0.504,-0.094 0.705,-0.281 0.201,-0.189 0.3,-0.433 0.3,-0.736 0,-0.304 -0.099,-0.551 -0.3,-0.74 -0.201,-0.186 -0.436,-0.281 -0.705,-0.281 m 0,1.78 c -0.189,0 -0.356,-0.067 -0.5,-0.206 -0.144,-0.137 -0.216,-0.322 -0.216,-0.553 0,-0.23 0.072,-0.417 0.214,-0.554 0.143,-0.138 0.311,-0.206 0.502,-0.206 0.186,0 0.352,0.068 0.496,0.206 0.145,0.137 0.217,0.324 0.217,0.554 0,0.231 -0.072,0.416 -0.215,0.553 -0.143,0.139 -0.31,0.206 -0.498,0.206"
           style="fill:#1a66b5;fill-opacity:1;fill-rule:nonzero;stroke:none"
           id="path4894" />
        <path
           d="m 225.4838,313.9672 c 0,0 -0.079,0.294 -0.392,0.198 -0.309,-0.098 -0.42,-0.219 -0.709,-0.434 -0.29,-0.219 -0.39,-0.275 -0.491,-0.263 0,0 0.1,-0.251 0.341,-0.088 0.239,0.164 0.439,0.576 1.201,0.587 z"
           style="fill:#f14c1c;fill-opacity:1;fill-rule:nonzero;stroke:none"
           id="path4898" />
        <path
           d="m 224.7616,313.598 0.01,-0.24 c 0,0 -0.1,-0.065 -0.151,-0.153 -0.048,-0.086 -0.009,-0.239 0.261,-0.295 l -0.47,0.034 c 0,0 -0.35,0.175 -0.06,0.371 0.291,0.195 0.41,0.283 0.41,0.283"
           style="fill:#f14c1c;fill-opacity:1;fill-rule:nonzero;stroke:none"
           id="path4902" />
        <path
           d="m 224.9027,313.6039 c 0,0 0.186,-0.187 0.287,-0.137 l -0.262,-0.29 c 0,0 -0.146,-0.094 -0.1,0.043 0.048,0.138 0.089,0.191 0.075,0.384"
           style="fill:#f14c1c;fill-opacity:1;fill-rule:nonzero;stroke:none"
           id="path4906" />
        <path
           d="m 225.1166,313.8588 c 0,0 -0.081,0.007 -0.107,-0.044 -0.027,-0.051 0.059,-0.202 0.172,-0.174 0.115,0.031 0.195,0.021 0.222,0.123 0,0 -0.006,0.088 -0.081,0.008 -0.073,-0.08 -0.321,-0.129 -0.206,0.087"
           style="fill:#f14c1c;fill-opacity:1;fill-rule:nonzero;stroke:none"
           id="path4910" />
        <path
           d="m 224.1317,313.2504 c 0,0 -0.3,0.109 -0.461,-0.239 l 0.239,-0.013 c 0,0 -0.019,0.187 0.222,0.252"
           style="fill:#f14c1c;fill-opacity:1;fill-rule:nonzero;stroke:none"
           id="path4914" />
        <path
           d="m 221.0111,310.1576 c 0,0 0.05,0.045 0.205,-0.029 0.156,-0.075 0.127,-0.065 0.127,-0.065 0,0 0.088,-0.031 0.02,-0.115 -0.07,-0.087 -0.265,-0.233 -0.343,-0.255 -0.077,-0.021 -0.361,-0.01 -0.233,0.17 0.127,0.181 0.224,0.294 0.224,0.294"
           style="fill:#f14c1c;fill-opacity:1;fill-rule:nonzero;stroke:none"
           id="path4918" />
        <path
           d="m 211.0619,315.6576 c 0,0 3.843,-0.298 4.545,-0.288 0.705,0.011 2.788,-0.164 3.109,-0.233 0.643,-0.134 1.248,-0.409 1.452,-0.532 0.207,-0.123 1.014,-0.584 0.758,-1.278 -0.253,-0.694 -0.39,-1.015 -0.038,-1.666 0.332,-0.611 0.553,-0.467 0.881,-0.543 0.205,-0.045 0.541,-0.142 0.834,-0.408 0.074,-0.069 0.056,-0.267 -0.14,-0.103 -0.196,0.164 -0.357,0.274 -0.649,0.344 -0.223,0.053 -0.535,-0.043 -0.907,0.381 -0.373,0.422 -0.488,1.015 -0.316,1.503 0.171,0.49 0.325,0.905 0.068,1.173 -0.247,0.253 -1.124,0.813 -1.926,0.945 -0.802,0.136 -3.001,0.246 -3.404,0.229 -0.403,-0.014 -4,0.193 -4.257,0.455 z"
           style="fill:#f14c1c;fill-opacity:1;fill-rule:nonzero;stroke:none"
           id="path4922" />
        <path
           d="m 238.0565,315.6244 c 0,0 -3.842,-0.288 -4.546,-0.275 -0.705,0.008 -2.787,-0.16 -3.11,-0.228 -0.641,-0.133 -1.247,-0.405 -1.453,-0.528 -0.208,-0.121 -1.015,-0.582 -0.762,-1.277 0.252,-0.695 0.391,-1.014 0.035,-1.665 -0.334,-0.612 -0.554,-0.466 -0.883,-0.54 -0.204,-0.047 -0.54,-0.141 -0.834,-0.408 -0.075,-0.067 -0.058,-0.266 0.139,-0.101 0.198,0.164 0.359,0.271 0.649,0.341 0.223,0.051 0.537,-0.044 0.911,0.377 0.374,0.425 0.49,1.016 0.318,1.504 -0.17,0.49 -0.322,0.907 -0.066,1.17 0.249,0.255 1.128,0.814 1.929,0.943 0.803,0.131 3.002,0.239 3.404,0.222 0.405,-0.017 4.002,0.182 4.259,0.444 z"
           style="fill:#f14c1c;fill-opacity:1;fill-rule:nonzero;stroke:none"
           id="path4926" />
        <path
           d="m 226.2445,308.7357 c 0,0 -0.004,0.013 -0.004,0.029 -0.004,0.033 0.004,0.079 0.057,0.093 0.08,0.024 0.221,0.038 0.26,0.053 0.04,0.012 0.147,-0.036 0.147,-0.146 0,-0.111 0.006,-0.406 -0.062,-0.583 -0.066,-0.173 -0.181,-0.16 -0.227,-0.034 z"
           style="fill:#f14c1c;fill-opacity:1;fill-rule:nonzero;stroke:none"
           id="path4930" />
        <path
           d="m 225.5736,305.4398 c 0,0 0.021,0.145 0.105,0.161 0.081,0.015 0.25,0.065 0.25,0.065 0,0 0.124,-0.011 0.147,-0.116 0.02,-0.105 0.094,-0.521 -0.119,-0.76 -0.215,-0.244 -0.267,0.11 -0.28,0.208 -0.015,0.096 -0.103,0.442 -0.103,0.442"
           style="fill:#f14c1c;fill-opacity:1;fill-rule:nonzero;stroke:none"
           id="path4934" />
        <path
           d="m 222.3471,306.2806 c 0,0 -0.071,-0.017 -0.071,-0.072 -0.001,-0.054 0.004,-0.119 0.059,-0.119 0.055,0 0.079,0.048 0.115,-0.028 0.034,-0.076 0.035,0.111 0.04,0.169 0.005,0.06 -0.044,0.054 -0.131,0.054 z"
           style="fill:#f14c1c;fill-opacity:1;fill-rule:nonzero;stroke:none"
           id="path4938" />
        <path
           d="m 222.4725,305.8744 c 0,0 -0.071,-0.017 -0.072,-0.069 0,-0.056 0.007,-0.119 0.061,-0.119 0.056,0 0.08,0.046 0.115,-0.03 0.034,-0.076 0.034,0.111 0.04,0.169 0.006,0.061 -0.045,0.055 -0.13,0.055 z"
           style="fill:#f14c1c;fill-opacity:1;fill-rule:nonzero;stroke:none"
           id="path4942" />
        <path
           d="m 222.6478,305.5658 c 0,0 -0.069,-0.017 -0.069,-0.07 0,-0.056 0.005,-0.119 0.059,-0.119 0.056,0 0.081,0.048 0.114,-0.028 0.036,-0.078 0.036,0.109 0.041,0.168 0.006,0.059 -0.044,0.054 -0.131,0.056 z"
           style="fill:#f14c1c;fill-opacity:1;fill-rule:nonzero;stroke:none"
           id="path4946" />
        <path
           d="m 223.7528,307.4271 c 0,0 -0.29,-0.468 -0.24,-0.718 0.051,-0.25 0.159,-0.512 0.159,-0.512 l 0.192,0.217 c 0,0 0.069,0.098 0.028,0.229 -0.038,0.13 -0.178,0.479 -0.108,0.773 z"
           style="fill:#f14c1c;fill-opacity:1;fill-rule:nonzero;stroke:none"
           id="path4950" />
        <path
           d="m 224.308,307.2347 c 0,0 -0.12,0.27 0.099,0.152 0.22,-0.118 0.414,-0.298 0.434,-0.481 0.019,-0.181 -0.041,-0.123 -0.107,-0.129 -0.066,-0.009 -0.188,-0.009 -0.188,-0.009 0,0 -0.091,-0.028 -0.126,0.081 -0.034,0.112 -0.112,0.386 -0.112,0.386"
           style="fill:#f14c1c;fill-opacity:1;fill-rule:nonzero;stroke:none"
           id="path4954" />
        <path
           d="m 223.9642,304.765 c 0,0 0.199,-0.958 0.132,-1.133 0,0 0.36,0.115 0.201,1.352 0,0 -0.294,-0.234 -0.333,-0.219"
           style="fill:#f14c1c;fill-opacity:1;fill-rule:nonzero;stroke:none"
           id="path4958" />
        <path
           d="m 224.4198,304.9965 0.266,0.187 c 0,0 0.186,-0.056 0.171,-0.23 -0.012,-0.175 0.015,-0.581 -0.293,-0.728 0,0 -0.04,-0.362 -0.161,-0.448 -0.12,-0.088 -0.054,-0.045 -0.054,-0.045 0,0 0.175,0.799 0.056,1.221 z"
           style="fill:#f14c1c;fill-opacity:1;fill-rule:nonzero;stroke:none"
           id="path4962" />
        <path
           d="m 222.2401,315.4818 c 0,0 0.187,-0.022 0.222,-0.061 0.035,-0.039 0.16,-0.168 0.223,-0.161 0.062,0.008 0.173,0.008 0.179,-0.038 0.008,-0.045 -0.021,-0.15 -0.098,-0.165 -0.075,-0.013 -0.325,-0.074 -0.325,-0.074 l 0.013,-0.056 c 0,0 0.32,0.07 0.39,0.092 0.069,0.025 0.243,0.129 0.174,0.212 -0.07,0.082 -0.159,0.121 -0.215,0.136 -0.056,0.015 -0.195,0.015 -0.223,0.086 -0.027,0.065 -0.111,0.157 -0.168,0.166 -0.054,0.007 -0.254,-0.016 -0.199,-0.111 z"
           style="fill:#f14c1c;fill-opacity:1;fill-rule:nonzero;stroke:none"
           id="path4966" />
        <path
           d="m 222.8969,315.434 c 0,-0.03 -0.033,-0.06 -0.075,-0.06 -0.042,0 -0.077,0.03 -0.077,0.062 0,0.033 0.035,0.06 0.077,0.06 0.042,0 0.075,-0.027 0.075,-0.062"
           style="fill:#f14c1c;fill-opacity:1;fill-rule:nonzero;stroke:none"
           id="path4970" />
        <path
           d="m 222.7338,315.6615 c 0,0 -0.279,0.017 -0.111,-0.075 0.166,-0.089 0.464,-0.136 0.506,-0.196 0.042,-0.063 0.131,-0.129 0.131,-0.228 0,-0.1 0.007,-0.227 -0.105,-0.227 -0.11,0 -0.609,0.062 -0.235,-0.122 0.376,-0.182 0.569,-0.159 0.577,0.167 0.007,0.326 -0.362,0.666 -0.763,0.681"
           style="fill:#f14c1c;fill-opacity:1;fill-rule:nonzero;stroke:none"
           id="path4974" />
        <path
           d="m 222.1693,315.4379 c 0,0 0.035,-0.131 0.111,-0.187 0.078,-0.049 0.16,-0.103 0.265,-0.096 0.104,0.009 0.14,0.031 0.041,0.076 -0.097,0.046 -0.282,0.11 -0.328,0.17 -0.035,0.053 -0.099,0.058 -0.089,0.037"
           style="fill:#f14c1c;fill-opacity:1;fill-rule:nonzero;stroke:none"
           id="path4978" />
        <path
           d="m 225.6918,314.1566 0.62,-0.001 c 0,0 0.399,-0.211 0.371,-0.479 -0.026,-0.269 -0.012,-0.124 -0.012,-0.124 0,0 -0.073,-0.19 -0.107,-0.053 -0.034,0.139 -0.067,0.199 -0.18,0.205 -0.114,0.009 -0.52,-0.015 -0.52,-0.015 l -0.007,-0.166 c 0,0 -0.01,-0.085 -0.121,-0.116 -0.073,-0.022 -0.333,-0.138 -0.333,-0.138 0,0 -0.162,-0.145 0.053,-0.102 0.214,0.043 0.471,0.046 0.638,0.178 l 0.036,-0.157 c 0,0 -0.068,-0.038 -0.301,-0.165 -0.334,-0.184 -0.309,-0.169 -0.47,-0.209 0,0 -0.204,-0.024 -0.237,0.179 -0.033,0.204 -0.014,0.284 0.154,0.43 0.167,0.144 0.273,0.137 0.298,0.363 0.03,0.224 0.097,0.353 0.097,0.353 z"
           style="fill:#f14c1c;fill-opacity:1;fill-rule:nonzero;stroke:none"
           id="path4982" />
        <path
           d="m 222.2504,305.14 c 0,0 0.096,0.008 0.119,-0.037 0.025,-0.043 -0.01,-0.093 -0.056,-0.103 -0.043,-0.011 -0.214,-0.037 -0.243,-0.115 -0.03,-0.075 -0.111,-0.075 -0.156,-0.019 -0.044,0.052 -0.065,0.107 0.015,0.15 0.08,0.044 0.321,0.124 0.321,0.124"
           style="fill:#f14c1c;fill-opacity:1;fill-rule:nonzero;stroke:none"
           id="path4986" />
        <path
           d="m 221.3119,306.014 c 0,0 -0.171,-0.143 -0.142,-0.262 0.03,-0.118 0.056,-0.239 0.19,-0.12 0.201,0.182 0.49,0.382 0.702,0.382 0.208,0 0.208,0.021 0.218,0.117 0.012,0.1 -0.028,0.232 -0.209,0.198 -0.18,-0.032 -0.62,-0.171 -0.759,-0.315"
           style="fill:#f14c1c;fill-opacity:1;fill-rule:nonzero;stroke:none"
           id="path4990" />
        <path
           d="m 221.4374,305.5922 c 0,0 -0.17,-0.141 -0.14,-0.262 0.029,-0.119 0.056,-0.24 0.19,-0.119 0.201,0.181 0.489,0.381 0.7,0.381 0.21,0 0.21,0.021 0.22,0.119 0.01,0.098 -0.03,0.23 -0.21,0.197 -0.18,-0.032 -0.619,-0.172 -0.76,-0.316"
           style="fill:#f14c1c;fill-opacity:1;fill-rule:nonzero;stroke:none"
           id="path4994" />
        <path
           d="m 221.6102,305.2689 c 0,0 -0.169,-0.142 -0.141,-0.261 0.03,-0.121 0.055,-0.24 0.19,-0.121 0.201,0.181 0.492,0.382 0.701,0.382 0.21,0 0.21,0.021 0.22,0.119 0.009,0.099 -0.029,0.231 -0.21,0.195 -0.18,-0.031 -0.62,-0.171 -0.76,-0.314"
           style="fill:#f14c1c;fill-opacity:1;fill-rule:nonzero;stroke:none"
           id="path4998" />
        <path
           d="m 225.2875,304.2533 c -0.18,-0.306 -0.089,-0.386 -0.096,-0.604 -0.009,-0.284 -0.137,-0.598 -0.468,-0.872 -0.33,-0.27 -0.96,-0.006 -1.081,0.08 -0.119,0.084 -0.58,0.566 -1.038,0.926 -0.461,0.363 -0.982,-0.227 -1.223,-0.597 -0.24,-0.371 -0.679,-0.205 -0.749,-0.15 -0.07,0.052 -0.25,0.238 -0.44,0.38 -0.191,0.143 -0.241,0.143 -0.09,0.207 0.151,0.068 0.249,0.033 0.569,-0.252 0.321,-0.284 0.431,0.033 0.532,0.217 0.1,0.187 0.22,0.415 0.42,0.61 0.2,0.199 0.741,0.305 1.091,0.141 0.349,-0.165 0.92,-0.709 1.3,-1.048 0.379,-0.338 0.56,-0.033 0.65,0.022 0.09,0.055 0.219,0.358 0.142,0.675 -0.049,0.203 0.127,0.356 0.127,0.356 0.071,0.142 0.23,0.197 0.062,0.742 -0.17,0.546 -0.73,0.177 -1.343,-0.399 -0.611,-0.58 -0.951,-0.231 -0.951,-0.231 -1.059,0.952 -1.267,1.953 -1.396,2.728 -0.129,0.774 0.592,1.557 0.882,1.732 0.29,0.173 1.203,0.663 2.223,1.023 1.021,0.356 1.252,0.813 1.614,1.566 0.36,0.751 0.151,1.58 0.131,1.874 -0.019,0.293 -0.189,1.283 -0.428,1.722 -0.24,0.435 -0.62,0.359 -0.932,0.033 -0.309,-0.326 -0.474,-0.575 -0.679,-0.685 -0.225,-0.121 -0.492,0.024 -0.547,0.049 -0.053,0.027 -0.175,0.18 -0.175,0.18 -0.255,0.221 0.072,0.329 0.072,0.329 0.166,-0.224 0.54,-0.167 0.54,-0.167 0.21,-0.022 0.45,0.544 0.832,0.86 0.381,0.317 0.97,-0.023 1.17,-0.404 0.199,-0.382 0.6,-1.55 0.706,-2.69 0.117,-1.234 -0.192,-1.86 -0.833,-2.481 -0.681,-0.663 -2.765,-1.267 -3.323,-1.645 -0.562,-0.382 -0.652,-0.786 -0.505,-1.853 0.151,-1.067 0.67,-1.505 0.949,-1.724 0.28,-0.216 0.622,0.326 1.052,0.599 0.43,0.272 0.857,0.245 1.201,-0.077 0.196,-0.184 0.29,-0.732 0.032,-1.172"
           style="fill:#f14c1c;fill-opacity:1;fill-rule:nonzero;stroke:none"
           id="path5002" />
        <path
           d="m 225.2157,304.4115 c 0.061,0.078 0.09,0.224 0.09,0.369 0,0.132 -0.023,0.277 -0.079,0.433 -0.04,0.112 -0.127,0.203 -0.233,0.267 -0.105,0.066 -0.233,0.105 -0.362,0.105 -0.097,0.002 -0.195,-0.022 -0.288,-0.07 -0.165,-0.089 -0.49,-0.316 -0.836,-0.641 -0.169,-0.158 -0.323,-0.205 -0.445,-0.205 -0.113,0 -0.199,0.043 -0.239,0.077 -0.057,0.054 -0.137,0.106 -0.234,0.198 -0.097,0.093 -0.208,0.221 -0.32,0.412 -0.115,0.201 -0.214,0.363 -0.311,0.598 -0.097,0.236 -0.19,0.549 -0.292,1.05 -0.023,0.115 -0.034,0.221 -0.034,0.323 0.002,0.377 0.146,0.665 0.313,0.88 0.166,0.215 0.356,0.352 0.444,0.419 0.045,0.034 0.139,0.094 0.263,0.162 0.366,0.206 1,0.514 1.443,0.642 0.611,0.171 1.253,0.561 1.256,0.563 h 0.002 c 0.292,0.194 0.546,0.518 0.742,0.857 0.198,0.341 0.337,0.698 0.397,0.965 0.034,0.162 0.047,0.334 0.047,0.506 0,0.403 -0.07,0.801 -0.111,1.04 -0.03,0.168 -0.084,0.48 -0.163,0.821 -0.078,0.34 -0.18,0.71 -0.308,1.007 -0.079,0.181 -0.19,0.304 -0.307,0.375 -0.117,0.074 -0.244,0.099 -0.356,0.099 -0.152,0 -0.281,-0.043 -0.356,-0.084 -0.087,-0.047 -0.157,-0.107 -0.24,-0.197 -0.082,-0.088 -0.176,-0.199 -0.317,-0.354 -0.131,-0.139 -0.221,-0.23 -0.296,-0.281 -0.076,-0.05 -0.13,-0.065 -0.21,-0.065 h -0.043 c -0.083,0.004 -0.182,0.058 -0.254,0.113 -0.038,0.027 -0.069,0.054 -0.09,0.074 -0.011,0.011 -0.022,0.02 -0.026,0.023 l -0.006,0.007 -0.001,0.001 c -0.023,0.028 -0.063,0.026 -0.086,-0.001 -0.022,-0.025 -0.022,-0.066 0.002,-0.092 0.003,0 0.057,-0.058 0.138,-0.121 0.085,-0.06 0.196,-0.127 0.316,-0.133 0.017,-0.002 0.033,-0.002 0.05,-0.002 0.097,-10e-4 0.183,0.024 0.273,0.086 0.089,0.062 0.186,0.155 0.317,0.298 0.143,0.157 0.24,0.27 0.318,0.355 0.08,0.082 0.138,0.135 0.209,0.172 0.054,0.031 0.172,0.07 0.302,0.07 0.098,0 0.201,-0.021 0.297,-0.08 0.096,-0.06 0.187,-0.158 0.256,-0.317 0.123,-0.283 0.223,-0.65 0.302,-0.986 0.077,-0.337 0.132,-0.644 0.16,-0.814 0.042,-0.236 0.112,-0.626 0.111,-1.014 0,-0.164 -0.014,-0.326 -0.045,-0.474 -0.056,-0.249 -0.189,-0.599 -0.382,-0.927 -0.189,-0.326 -0.435,-0.638 -0.703,-0.816 l 0.031,-0.054 -0.029,0.056 c 0,0 -0.01,-0.007 -0.028,-0.015 -0.128,-0.076 -0.683,-0.39 -1.2,-0.534 -0.307,-0.09 -0.689,-0.256 -1.023,-0.418 -0.165,-0.084 -0.32,-0.164 -0.446,-0.236 -0.124,-0.071 -0.22,-0.129 -0.274,-0.17 -0.086,-0.065 -0.289,-0.212 -0.468,-0.44 -0.179,-0.232 -0.34,-0.551 -0.34,-0.966 0,-0.108 0.011,-0.227 0.035,-0.351 0.103,-0.504 0.2,-0.829 0.3,-1.076 0.101,-0.248 0.205,-0.416 0.321,-0.613 0.118,-0.203 0.238,-0.341 0.34,-0.439 0.104,-0.1 0.192,-0.16 0.239,-0.203 0.065,-0.056 0.173,-0.105 0.314,-0.105 0.151,-0.002 0.335,0.058 0.523,0.234 0.339,0.321 0.658,0.539 0.814,0.624 0.071,0.038 0.151,0.057 0.232,0.057 0.107,0 0.217,-0.034 0.302,-0.086 0.091,-0.056 0.155,-0.128 0.18,-0.204 0.051,-0.145 0.073,-0.272 0.072,-0.385 0,-0.129 -0.026,-0.24 -0.065,-0.343 0,0 -0.249,-0.235 -0.205,-0.461 0.015,-0.082 0.023,-0.16 0.023,-0.236 -0.001,-0.233 -0.079,-0.433 -0.224,-0.579 -0.119,-0.116 -0.258,-0.201 -0.418,-0.201 -0.11,0 -0.235,0.041 -0.377,0.156 -0.179,0.148 -0.411,0.357 -0.629,0.544 -0.11,0.094 -0.218,0.184 -0.314,0.256 -0.097,0.074 -0.183,0.132 -0.257,0.167 -0.139,0.063 -0.326,0.108 -0.513,0.108 -0.195,0 -0.393,-0.047 -0.524,-0.194 -0.118,-0.134 -0.195,-0.29 -0.268,-0.422 -0.072,-0.133 -0.141,-0.241 -0.241,-0.3 -0.063,-0.036 -0.112,-0.072 -0.15,-0.093 -0.039,-0.022 -0.065,-0.033 -0.095,-0.033 -0.026,0 -0.058,0.007 -0.105,0.032 -0.049,0.025 -0.108,0.063 -0.187,0.122 -0.352,0.258 -0.457,0.325 -0.46,0.325 -0.028,0.018 -0.065,0.009 -0.082,-0.026 -0.016,-0.029 -0.007,-0.069 0.023,-0.087 l 0.003,-10e-4 c 0.026,-0.016 0.142,-0.094 0.448,-0.322 0.082,-0.058 0.147,-0.099 0.204,-0.132 0.057,-0.028 0.108,-0.042 0.155,-0.042 0.058,0 0.105,0.021 0.151,0.047 0.046,0.03 0.093,0.06 0.153,0.096 0.132,0.08 0.213,0.212 0.287,0.349 0.072,0.136 0.145,0.278 0.25,0.396 0.096,0.109 0.261,0.155 0.438,0.155 0.169,0 0.345,-0.043 0.465,-0.099 0.059,-0.029 0.142,-0.08 0.235,-0.155 0.283,-0.213 0.666,-0.572 0.94,-0.793 0.159,-0.13 0.31,-0.185 0.45,-0.187 0.2,0.004 0.368,0.109 0.498,0.238 0.172,0.17 0.264,0.409 0.266,0.675 0,0.086 -0.01,0.176 -0.029,0.265 0,0 -0.031,0.127 0.184,0.406"
           style="fill:#f14c1c;fill-opacity:1;fill-rule:nonzero;stroke:none"
           id="path5006" />
        <path
           d="m 212.2621,315.2201 c 0,0 1.799,-0.178 4.698,-0.256 0.67,-0.015 1.728,-0.156 2.181,-0.318 0.36,-0.127 1.079,-0.489 1.306,-0.757 0.088,-0.106 0.233,-0.17 0,-0.859 -0.117,-0.343 -0.352,-1.012 0.094,-1.646 0.445,-0.634 1.086,-0.566 1.474,-0.746 0.388,-0.181 0.727,-0.998 0.633,-1.201 -0.031,-0.065 -0.075,-0.113 -0.158,-0.21 0,0 -0.92,-0.885 -0.939,-1.037 0,0 -1.212,0.222 -1.906,0.841 l -0.693,0.616 c 0,0 -0.141,0.065 -0.293,-0.088 -0.15,-0.151 -0.454,-0.02 -0.692,0.326 -0.236,0.346 -1.461,1.56 -1.666,1.883 -0.206,0.326 -0.206,0.379 -0.444,0.326 -0.237,-0.057 -0.585,-0.035 -1.006,0.279 -0.423,0.314 -1.623,1.527 -1.872,1.797 -0.25,0.27 -1.007,1.018 -1.814,1.133 l 0.68,-0.041 z"
           style="fill:#f14c1c;fill-opacity:1;fill-rule:nonzero;stroke:none"
           id="path5010" />
        <path
           d="m 236.8881,315.1625 c 0,0 -1.8,-0.18 -4.698,-0.256 -0.671,-0.015 -1.727,-0.156 -2.182,-0.318 -0.36,-0.127 -1.078,-0.49 -1.306,-0.757 -0.088,-0.107 -0.232,-0.172 0,-0.86 0.116,-0.343 0.352,-1.013 -0.093,-1.647 -0.445,-0.634 -0.966,-0.541 -1.352,-0.72 -0.389,-0.179 -0.331,-0.412 -0.288,-1.128 0,0 -0.058,-0.885 0.075,-1.165 0,0 0.173,-0.357 0.385,-0.238 0,0 1.381,0.281 2.077,0.9 l 0.692,0.616 c 0,0 0.141,0.062 0.293,-0.088 0.15,-0.151 0.453,-0.022 0.691,0.324 0.238,0.348 1.462,1.56 1.667,1.883 0.205,0.324 0.205,0.38 0.443,0.324 0.24,-0.053 0.586,-0.031 1.007,0.283 0.422,0.313 1.624,1.526 1.873,1.795 0.248,0.272 1.006,1.018 1.814,1.133 l -0.681,-0.041 z"
           style="fill:#f14c1c;fill-opacity:1;fill-rule:nonzero;stroke:none"
           id="path5014" />
        <path
           d="m 224.0365,313.2328 c 0,0 -0.286,0.03 -0.412,-0.4 -0.125,-0.437 -0.308,-0.735 -0.376,-1.065 -0.069,-0.332 -0.08,-0.514 -0.241,-0.777 -0.16,-0.263 -0.309,-0.801 -0.228,-1.065 0.08,-0.259 0.091,-0.433 0.091,-0.433 0,0 1.463,0.527 1.794,0.708 0.332,0.184 0.767,0.504 0.881,0.719 0.114,0.219 0.069,0.229 -0.103,0.3 -0.171,0.07 -0.457,0.423 -0.411,0.72 0.045,0.296 0.068,0.627 0.068,0.627 0,0 -0.023,0.172 -0.137,0.172 -0.114,0 -0.504,0.013 -0.663,0.082 -0.16,0.067 -0.32,0.205 -0.263,0.412"
           style="fill:#f14c1c;fill-opacity:1;fill-rule:nonzero;stroke:none"
           id="path5018" />
        <path
           d="m 223.2025,308.6459 c 0,0 -0.15,-0.089 -0.069,-0.192 0.08,-0.104 0.572,-0.516 0.56,-0.779 -0.012,-0.261 -0.206,-0.765 -0.183,-0.915 0.023,-0.147 0.263,-1.177 0.263,-1.177 0,0 0.388,0.287 0.641,0.299 0.25,0.01 0.869,-0.09 0.959,-0.242 0.093,-0.146 0.402,-0.822 0.32,-1.348 -0.079,-0.527 -0.079,-0.743 -0.079,-0.743 0,0 0.102,-0.01 0.239,0.07 0.138,0.079 0.161,0.398 0.218,0.512 0.056,0.118 0.056,0.207 0.194,0.036 0.138,-0.17 0.458,-0.492 0.458,-0.492 0,0 0.285,0 0.332,0.115 0.045,0.113 -0.172,0.4 -0.241,0.536 -0.068,0.138 0.022,0.229 0.125,0.103 0.104,-0.126 0.503,-0.366 0.607,-0.387 0.102,-0.025 0.412,-0.035 0.274,0.207 -0.137,0.238 -0.331,0.478 -0.331,0.478 0,0 0.011,0.193 0.137,0.091 0.127,-0.103 0.456,-0.275 0.582,-0.31 0.128,-0.033 0.253,0.025 0.161,0.126 -0.092,0.104 -0.436,0.344 -0.436,0.344 0,0 0.138,0.24 0.333,0.092 0.195,-0.15 0.892,-0.595 1.063,-0.595 0.172,0 -0.858,0.639 -0.892,0.768 -0.033,0.124 0.057,0.078 0.171,0 0.113,-0.079 0.712,-0.591 1.145,-0.597 h 0.02 c 0,0 -0.911,0.619 -1.099,0.878 -0.184,0.259 -0.055,0.308 0.117,0.151 0.173,-0.156 0.901,-0.751 0.952,-0.786 0.053,-0.035 0.459,-0.149 0.621,-0.066 0,0 -1.463,1.197 -1.867,1.566 -0.404,0.367 -0.685,0.73 -1.03,1.053 -0.347,0.326 -0.781,0.824 -0.795,1.135 -0.013,0.307 0.037,0.366 -0.208,0.314 -0.247,-0.05 -0.276,-0.026 -0.427,0.355 -0.152,0.382 -0.224,0.598 -0.224,0.598 0,0 -1.334,-0.849 -2.611,-1.198"
           style="fill:#f14c1c;fill-opacity:1;fill-rule:nonzero;stroke:none"
           id="path5022" />
        <path
           d="m 226.5101,302.516 c 0,0 0.138,0.032 0.135,-0.061 -0.004,-0.091 -0.183,-0.358 -0.325,-0.267 0,0 0.191,0.112 0.136,0.168 -0.055,0.056 -0.038,0.069 -0.014,0.106 0.024,0.033 0.033,0.045 0.062,0.056 z"
           style="fill:#f14c1c;fill-opacity:1;fill-rule:nonzero;stroke:none"
           id="path5026" />
        <path
           d="m 226.306,303.0902 c 0.076,0.002 0.07,-0.013 0.108,-0.068 0.027,-0.039 0.061,-0.062 0.104,-0.078 0.082,-0.031 0.2,-0.034 0.226,-0.141 0.015,-0.067 -0.003,-0.099 -0.042,-0.134 -0.028,-0.032 -0.05,-0.073 -0.081,-0.1 -0.067,-0.066 -0.203,-0.012 -0.272,0.038 -0.046,0.03 -0.076,0.073 -0.132,0.096 -0.041,0.017 -0.094,0.03 -0.136,0.034 -0.106,0.017 -0.227,0.034 -0.328,0.019 -0.109,-0.011 -0.179,-0.065 -0.282,-0.095 -0.111,-0.027 -0.196,-0.061 -0.252,-0.164 -0.03,-0.054 0.146,-0.149 0.083,-0.149 -0.05,0 -0.222,0.064 -0.242,0.114 -0.032,0.097 -0.014,0.218 0.068,0.241 0.057,0.017 0.081,0.014 0.121,0.07 0.032,0.044 0.049,0.073 0.1,0.101 0.026,0.013 0.263,0.043 0.259,0.076 -0.083,0.015 -0.184,0.015 -0.261,-0.012 -0.062,-0.023 -0.119,-0.167 -0.19,-0.152 -0.005,0.072 0.063,0.168 0.108,0.212 0.065,0.061 0.123,0.069 0.209,0.053 0.084,-0.014 0.131,-0.025 0.218,0.003 0.053,0.021 0.139,0.104 0.199,0.086 0.02,-0.084 -0.057,-0.255 0.107,-0.223 0.106,0.023 0.061,0.22 0.182,0.193 0.029,-0.094 0.037,-0.178 0.11,-0.244 0.047,-0.043 0.148,-0.154 0.213,-0.145 0.032,0.009 0.107,0.07 0.088,0.101 -0.009,0.015 -0.121,0.035 -0.141,0.046 -0.041,0.026 -0.216,0.133 -0.167,0.194 z"
           style="fill:#f14c1c;fill-opacity:1;fill-rule:nonzero;stroke:none"
           id="path5030" />
        <path
           d="m 225.3397,302.3558 c 0.055,0.039 0.059,-0.031 0.071,-0.062 0.02,-0.052 0.029,-0.039 0.072,-0.061 -0.02,-0.08 -0.105,-0.015 -0.14,-0.006 -0.064,0.017 -0.119,-0.002 -0.108,0.108 0.04,0.002 0.062,-0.01 0.093,0.009 z"
           style="fill:#f14c1c;fill-opacity:1;fill-rule:nonzero;stroke:none"
           id="path5034" />
        <path
           d="m 226.3187,303.8529 c -0.011,-0.032 -0.004,-0.088 -0.015,-0.122 -0.01,-0.04 -0.021,-0.083 -0.022,-0.124 -0.004,-0.073 0.012,-0.146 0.042,-0.211 0.026,-0.064 0.092,-0.118 0.141,-0.162 0.055,-0.049 0.117,-0.087 0.173,-0.135 0.03,-0.027 0.049,-0.038 0.049,-0.081 0,-0.05 -0.021,-0.041 -0.058,-0.028 -0.062,0.02 -0.116,0.063 -0.164,0.109 -0.059,0.053 -0.078,0.108 -0.149,0.145 -0.034,0.015 -0.054,0.029 -0.084,0.005 -0.034,-0.023 -0.032,-0.042 -0.076,-0.03 -0.083,0.017 -0.082,-0.057 -0.107,-0.125 -0.012,-0.028 -0.03,-0.06 -0.067,-0.033 -0.028,0.021 -0.028,0.07 -0.03,0.102 -0.004,0.036 0.002,0.075 -0.028,0.093 -0.033,0.02 -0.084,-0.007 -0.109,-0.02 -0.053,-0.02 -0.131,-0.096 -0.197,-0.054 -0.057,0.037 -0.034,0.141 0.003,0.169 0.053,0.037 0.114,0.049 0.176,0.065 0.088,0.023 0.165,0.062 0.235,0.119 0.068,0.055 0.096,0.151 0.138,0.236 0.024,0.048 0.046,0.132 0.113,0.117 z"
           style="fill:#f14c1c;fill-opacity:1;fill-rule:nonzero;stroke:none"
           id="path5038" />
        <path
           d="m 222.808,306.0463 c 0,0 -0.004,0.002 -0.014,0.004 -0.031,0.008 -0.103,0.017 -0.113,-0.027 -0.014,-0.059 -0.025,-0.303 -0.008,-0.352 0.018,-0.046 0.025,-0.053 0.153,-0.091 0.128,-0.04 0.747,-0.207 0.747,-0.207 0,0 0.091,0.027 0.098,0.099 0.008,0.075 0.026,0.229 0.026,0.229 0,0 -0.026,0.089 -0.132,0.121 z"
           style="fill:#f14c1c;fill-opacity:1;fill-rule:nonzero;stroke:none"
           id="path5042" />
        <path
           d="m 225.9994,309.8724 c 0,0 -0.185,0.155 0.048,0.301 0.1,0.06 0.283,0.01 0.337,-0.164 0.053,-0.172 0.253,-0.68 0.253,-0.788 0,-0.109 -0.273,-0.318 -0.354,-0.162 -0.081,0.153 -0.117,0.198 -0.09,0.353 0.028,0.152 -0.067,0.387 -0.194,0.46"
           style="fill:#f14c1c;fill-opacity:1;fill-rule:nonzero;stroke:none"
           id="path5046" />
      </g>
    </g>
  </g>
  <g
     inkscape:groupmode="layer"
     id="layer7"
     inkscape:label="NA"
     style="display:none">
    <g
       id="g20784"
       transform="matrix(1.3357647,0,0,-1.3357735,-482.86215,533.06525)">
      <path
         d="m 385.7816,372.6586 h -22.201 c -0.875,0 -2.11,1.001 -2.093,2.451 0.008,0.568 0,20.778 0,21.9 0,0.981 1.207,2.059 2.015,2.059 0.696,-0.051 21.781,0 22.331,0 0.988,0 2.064,-1.144 2.064,-2.103 v -22.103 c 0,-0.841 -0.979,-2.204 -2.116,-2.204"
         style="fill:#17a7ad;fill-opacity:1;fill-rule:nonzero;stroke:none"
         id="path4768" />
      <path
         d="m 362.641,384.3519 c 3.204,5.275 7.038,5.916 9.27,5.37 1.942,-0.468 3.054,-2.211 3.287,-3.177 2.172,1.482 4.36,3.871 5.899,5.703 2.57,3.054 0.627,4.833 -6.182,-0.614 1.897,2.753 4.618,4.621 6.934,5.516 3.91,1.511 6.633,-0.726 1.26,-7.482 -2.771,-3.198 -5.768,-5.415 -7.69,-6.604 -2.255,-1.4 -3.163,-1.241 -3.315,1.126 -0.009,0.07 -1.812,7.743 -9.463,0.162"
         style="fill:#ffffff;fill-opacity:1;fill-rule:nonzero;stroke:none"
         id="path4772" />
      <path
         d="m 378.8207,379.9476 v 1.141 c 0,0.793 1.416,0.765 1.416,0 v -1.141 h -0.221 c -0.11,0 -0.174,0.089 -0.174,0.181 v 0.907 c 0,0.371 -0.575,0.353 -0.575,0 v -1.088 z"
         style="fill:#ffffff;fill-opacity:1;fill-rule:nonzero;stroke:none"
         id="path4776" />
      <path
         d="m 381.9164,381.6332 v -1.139 c 0,-0.803 -1.417,-0.766 -1.417,0 v 1.139 l 0.408,-0.011 v -1.081 c 0,-0.366 0.569,-0.359 0.569,0 v 0.827 c 0,0.146 0.131,0.254 0.249,0.265 0.115,0.01 0.191,0 0.191,0"
         style="fill:#ffffff;fill-opacity:1;fill-rule:nonzero;stroke:none"
         id="path4780" />
      <path
         d="m 383.6937,381.6224 h 0.472 l 0.322,-1.173 0.268,0.977 c 0.03,0.118 0.146,0.196 0.22,0.196 h 0.324 l -0.587,-1.675 h -0.445 z"
         style="fill:#ffffff;fill-opacity:1;fill-rule:nonzero;stroke:none"
         id="path4784" />
      <path
         d="m 378.7719,379.2025 h 3.768 v -1.067 l -2.425,-2.801 h 2.511 v -1.074 h -3.993 v 0.982 l 2.454,2.937 h -1.838 c -0.169,0 -0.49,0.222 -0.49,0.524 z"
         style="fill:#ffffff;fill-opacity:1;fill-rule:nonzero;stroke:none"
         id="path4788" />
      <path
         d="m 374.2054,374.2621 v 3.37 c 0,2.273 4.028,2.177 4.028,0 v -3.37 h -0.655 c -0.31,0 -0.549,0.377 -0.549,0.647 v 2.591 c 0,1.041 -1.592,1.028 -1.592,0 v -3.238 z"
         style="fill:#ffffff;fill-opacity:1;fill-rule:nonzero;stroke:none"
         id="path4792" />
      <path
         d="m 366.808,380.6566 h 0.671 c 0.241,0 0.567,-0.244 0.567,-0.576 v -5.82 h -1.238 z"
         style="fill:#ffffff;fill-opacity:1;fill-rule:nonzero;stroke:none"
         id="path4796" />
      <path
         d="m 368.5228,379.2025 h 0.676 c 0.245,0 0.57,-0.236 0.57,-0.573 v -4.381 h -1.246 z"
         style="fill:#ffffff;fill-opacity:1;fill-rule:nonzero;stroke:none"
         id="path4800" />
      <path
         d="m 368.5228,380.6801 h 0.676 c 0.245,0 0.57,-0.251 0.57,-0.58 v -0.471 h -1.246 z"
         style="fill:#ffffff;fill-opacity:1;fill-rule:nonzero;stroke:none"
         id="path4804" />
      <path
         d="m 382.556,380.9613 c 0,0.307 0.312,0.333 0.312,0.333 0,0 0.292,-0.004 0.304,-0.333 z m 0.476,0.683 h -0.362 c -0.321,0 -0.566,-0.439 -0.566,-0.7 v -0.319 c 0,-0.416 0.34,-0.705 0.587,-0.705 h 0.339 c 0.276,0.011 0.563,0.302 0.563,0.529 h -0.322 c 0,0 -0.099,0.014 -0.239,-0.134 -0.447,-0.062 -0.492,0.196 -0.492,0.361 h 1.097 v 0.171 c 0,0.403 -0.304,0.797 -0.605,0.797"
         style="fill:#ffffff;fill-opacity:1;fill-rule:nonzero;stroke:none"
         id="path4808" />
      <path
         d="m 386.3929,380.5619 c -0.022,-0.247 -0.258,-0.295 -0.344,-0.309 -0.079,-0.006 -0.26,-0.024 -0.242,0.21 0.018,0.231 0.524,0.19 0.586,0.309 0.012,-0.023 0,-0.21 0,-0.21 m -0.04,1.103 h -0.419 c 0,0 -0.46,-0.1 -0.478,-0.469 h 0.414 c 0.115,0.174 0.301,0.122 0.403,0.095 0.098,-0.038 0.32,-0.254 -0.248,-0.306 -0.676,-0.098 -0.587,-0.416 -0.627,-0.541 0,-0.387 0.294,-0.532 0.472,-0.532 h 0.291 c 0.392,0 0.619,0.277 0.643,0.551 v 0.825 c -0.024,0.308 -0.451,0.377 -0.451,0.377"
         style="fill:#ffffff;fill-opacity:1;fill-rule:nonzero;stroke:none"
         id="path4812" />
      <path
         d="m 384.4535,375.1947 c -0.264,0.018 -0.605,0.498 -0.271,0.959 0.333,0.458 0.793,0.16 1.495,0.58 l 0.007,-0.638 c 0,0 -0.087,-1.096 -1.231,-0.901 m 0.557,4.122 c -1.926,0.048 -1.95,-1.386 -1.95,-1.386 l 1.142,0.007 c 0.183,0.403 0.75,0.353 0.75,0.353 0,0 0.756,0.007 0.743,-0.451 -0.025,-0.472 -1.157,-0.54 -1.157,-0.54 0,0 -1.439,-0.149 -1.576,-1.163 -0.031,-0.104 -0.031,-0.555 -0.031,-0.555 0.083,-1.421 1.36,-1.408 1.36,-1.408 0,0 0.262,-0.046 0.749,0.01 1.255,0.106 1.713,0.926 1.773,1.76 l 0.003,2.016 c 0,0 0.124,1.31 -1.806,1.357"
         style="fill:#ffffff;fill-opacity:1;fill-rule:nonzero;stroke:none"
         id="path4816" />
      <path
         d="m 371.515,375.1947 c -0.256,0.018 -0.596,0.498 -0.267,0.959 0.336,0.458 0.797,0.16 1.504,0.58 l 0.012,-0.638 c 0,0 -0.092,-1.096 -1.249,-0.901 m 0.571,4.122 c -1.923,0.048 -1.958,-1.386 -1.958,-1.386 l 1.152,0.007 c 0.173,0.403 0.739,0.353 0.739,0.353 0,0 0.767,0.007 0.745,-0.451 -0.022,-0.472 -1.156,-0.54 -1.156,-0.54 0,0 -1.434,-0.149 -1.578,-1.163 -0.025,-0.104 -0.025,-0.555 -0.025,-0.555 0.086,-1.421 1.356,-1.408 1.356,-1.408 0,0 0.264,-0.046 0.753,0.01 1.247,0.106 1.711,0.926 1.769,1.76 l 0.007,2.016 c 0,0 0.122,1.31 -1.804,1.357"
         style="fill:#ffffff;fill-opacity:1;fill-rule:nonzero;stroke:none"
         id="path4820" />
      <path
         d="m 364.057,375.1947 c -0.26,0.018 -0.594,0.498 -0.267,0.959 0.336,0.458 0.797,0.16 1.504,0.58 v -0.638 c 0,0 -0.084,-1.096 -1.237,-0.901 m 0.563,4.122 c -1.925,0.048 -1.95,-1.386 -1.95,-1.386 l 1.144,0.007 c 0.177,0.403 0.75,0.353 0.75,0.353 0,0 0.763,0.007 0.739,-0.451 -0.017,-0.472 -1.151,-0.54 -1.151,-0.54 0,0 -1.436,-0.149 -1.585,-1.163 -0.02,-0.104 -0.02,-0.555 -0.02,-0.555 0.074,-1.421 1.355,-1.408 1.355,-1.408 0,0 0.259,-0.046 0.749,0.01 1.25,0.106 1.714,0.926 1.77,1.76 l 0.014,2.016 c 0,0 0.115,1.31 -1.815,1.357"
         style="fill:#ffffff;fill-opacity:1;fill-rule:nonzero;stroke:none"
         id="path4824" />
    </g>
  </g>
  <g
     inkscape:groupmode="layer"
     id="layer8"
     inkscape:label="Morena"
     style="display:none">
    <g
       id="g20792"
       transform="matrix(0.98645981,0,0,-0.98645981,-351.84368,359.44648)">
      <path
         d="m 357.8353,349.4222 0.303,-0.38 c 0.341,0.181 0.849,0.38 1.285,0.38 0.498,0 1.008,-0.052 1.488,-0.42 0.42,0.237 1.041,0.42 1.607,0.42 0.651,0 1.973,-0.022 1.973,-1.981 v -3.883 h -1.697 v 3.883 c 0,0.716 -0.395,0.686 -0.627,0.686 -0.19,0 -0.733,-0.115 -0.733,-0.115 v -4.454 h -1.677 v 3.883 c 0,0.66 -0.393,0.686 -0.668,0.686 -0.207,0 -0.719,-0.115 -0.719,-0.115 v -4.454 h -1.697 v 5.723 z"
         style="fill:#b24852;fill-opacity:1;fill-rule:nonzero;stroke:none"
         id="path3140" />
      <path
         d="m 368.2201,349.4222 c 1.721,0 2.795,-1.246 2.795,-2.987 0,-1.737 -1.051,-2.994 -2.795,-2.994 -1.715,0 -2.772,1.257 -2.772,2.994 0,1.741 1.063,2.987 2.772,2.987 m 0,-4.767 c 0.863,0 1.084,0.918 1.084,1.78 0,0.875 -0.221,1.752 -1.084,1.752 -0.838,0 -1.08,-0.877 -1.08,-1.752 0,-0.862 0.242,-1.78 1.08,-1.78"
         style="fill:#b24852;fill-opacity:1;fill-rule:nonzero;stroke:none"
         id="path3144" />
      <path
         d="m 374.9349,347.9818 c -0.537,0 -1.383,-0.174 -1.383,-0.174 v -4.248 h -1.678 v 5.734 c 0.248,0.036 0.467,0.046 0.616,0.078 l 0.549,0.055 0.306,-0.497 c 0.295,0.206 0.949,0.569 1.805,0.645 z"
         style="fill:#b24852;fill-opacity:1;fill-rule:nonzero;stroke:none"
         id="path3148" />
      <path
         d="m 380.2064,346.7709 -0.031,-0.425 -0.045,-0.07 -0.1,-0.276 -3.195,0.069 c 0.058,-0.873 0.568,-1.343 1.269,-1.343 0.625,0 1.473,0.221 1.723,0.279 l 0.127,-1.027 c 0,0 -0.916,-0.52 -2.272,-0.552 -1.416,-0.03 -2.533,1.082 -2.533,3.009 0,1.945 1.078,2.992 2.604,2.992 1.533,0 2.453,-0.89 2.453,-2.656 m -3.346,0.368 h 1.68 c -0.055,0.716 -0.395,1.062 -0.76,1.062 -0.365,0 -0.861,-0.025 -0.92,-1.062"
         style="fill:#b24852;fill-opacity:1;fill-rule:nonzero;stroke:none"
         id="path3152" />
      <path
         d="m 382.2631,349.4222 0.308,-0.36 c 0.25,0.131 0.762,0.36 1.502,0.36 1.082,0 2.116,-0.812 2.116,-2.128 v -3.736 h -1.704 v 3.736 c 0,0.718 -0.339,0.833 -0.818,0.833 -0.396,0 -0.883,-0.102 -0.883,-0.102 v -4.467 h -1.689 v 5.723 z"
         style="fill:#b24852;fill-opacity:1;fill-rule:nonzero;stroke:none"
         id="path3156" />
      <path
         d="m 392.4349,343.8578 c 0,0 -0.854,-0.418 -1.43,-0.434 -0.392,-0.008 -0.773,0.472 -0.773,0.472 -0.291,-0.177 -0.901,-0.472 -1.526,-0.472 -0.843,0 -1.797,0.693 -1.797,1.783 0,1.116 0.954,1.765 1.877,1.765 0.571,0 1.286,-0.089 1.286,-0.089 v 0.592 c 0,0.392 -0.309,0.654 -0.715,0.654 -0.336,0 -1.477,-0.309 -1.477,-0.309 l -0.406,1.023 c 0,0 1.435,0.584 2.16,0.584 0.922,0 2.102,-0.597 2.102,-1.828 v -2.808 h 0.484 z m -2.363,0.955 v 1.06 h -0.877 c -0.334,0 -0.58,-0.241 -0.58,-0.545 0,-0.311 0.246,-0.616 0.58,-0.616 0.365,0 0.877,0.101 0.877,0.101"
         style="fill:#b24852;fill-opacity:1;fill-rule:nonzero;stroke:none"
         id="path3160" />
    </g>
  </g>
  <g
     inkscape:groupmode="layer"
     id="layer9"
     inkscape:label="PES"
     style="display:inline;opacity:1">
    <g
       id="g20822"
       transform="matrix(1.200496,0,0,-1.200496,-433.16301,384.9712)">
      <path
         d="m 377.0238,297.7972 c 0.013,0.146 0.034,0.278 -0.198,0.275 -0.231,-0.004 -0.182,-0.141 -0.184,-0.267 -0.004,-0.141 -0.039,-0.279 0.201,-0.276 0.23,0.006 0.178,0.144 0.181,0.268 m 0,-1.886 c 0,0.334 -0.006,0.669 0.003,1.003 0.004,0.148 -0.047,0.195 -0.19,0.193 -0.138,-0.002 -0.201,-0.033 -0.199,-0.187 0.007,-0.677 0.007,-1.352 0,-2.03 -0.002,-0.16 0.074,-0.179 0.203,-0.179 0.128,-0.001 0.19,0.03 0.186,0.173 -0.008,0.342 -0.003,0.684 -0.003,1.027 m 3.451,0.474 c 0,0.503 -0.006,1.006 0.003,1.508 0.004,0.166 -0.079,0.174 -0.206,0.175 -0.132,0.003 -0.183,-0.035 -0.182,-0.174 0.005,-0.996 0.005,-1.994 0,-2.993 -0.001,-0.15 0.05,-0.191 0.194,-0.19 0.141,0 0.196,0.038 0.194,0.19 -0.008,0.495 -0.003,0.989 -0.003,1.484 m -6.033,-0.475 c 0.009,-0.326 0.009,-0.658 0.228,-0.929 0.247,-0.308 0.963,-0.44 1.331,-0.258 0.108,0.053 0.067,0.151 0.065,0.231 -0.002,0.094 -0.08,0.09 -0.143,0.076 -0.18,-0.038 -0.363,-0.04 -0.545,-0.031 -0.3,0.014 -0.475,0.197 -0.515,0.494 -0.037,0.286 -0.035,0.571 0.003,0.856 0.034,0.261 0.202,0.444 0.465,0.465 0.172,0.012 0.348,-0.002 0.524,-0.009 0.084,-0.003 0.197,-0.087 0.215,0.082 0.014,0.122 -0.002,0.205 -0.162,0.228 -0.215,0.033 -0.428,0.047 -0.643,0.036 -0.362,-0.025 -0.625,-0.233 -0.738,-0.581 -0.068,-0.212 -0.092,-0.434 -0.085,-0.66 m -3.663,1.241 c -0.157,0.023 -0.332,-0.003 -0.501,-0.054 -0.397,-0.115 -0.537,-0.589 -0.271,-0.907 0.103,-0.124 0.229,-0.223 0.377,-0.289 0.184,-0.08 0.367,-0.162 0.545,-0.246 0.176,-0.082 0.288,-0.207 0.241,-0.416 -0.047,-0.208 -0.218,-0.23 -0.391,-0.242 -0.233,-0.014 -0.461,0.027 -0.692,0.043 -0.084,0.007 -0.183,0.033 -0.192,-0.107 -0.007,-0.111 0.02,-0.194 0.14,-0.209 0.293,-0.034 0.587,-0.094 0.883,-0.051 0.478,0.071 0.679,0.311 0.643,0.753 -0.02,0.267 -0.212,0.402 -0.418,0.515 -0.231,0.125 -0.475,0.222 -0.708,0.347 -0.125,0.07 -0.204,0.188 -0.156,0.342 0.044,0.145 0.17,0.188 0.305,0.187 0.221,-0.001 0.445,0.02 0.669,-0.022 0.075,-0.015 0.184,-0.067 0.205,0.076 0.016,0.122 -0.001,0.219 -0.16,0.238 -0.166,0.017 -0.331,0.054 -0.519,0.042 m 8.645,-1.46 h -0.001 c 0,0.262 0.005,0.526 -0.002,0.79 -0.007,0.365 -0.168,0.554 -0.522,0.634 -0.316,0.074 -0.633,0.04 -0.949,-0.008 -0.136,-0.023 -0.232,-0.071 -0.198,-0.231 0.035,-0.173 0.155,-0.075 0.247,-0.073 0.237,0.005 0.477,0.025 0.714,0.011 0.247,-0.018 0.332,-0.181 0.331,-0.492 -0.002,-0.282 -0.209,-0.156 -0.33,-0.167 -0.211,-0.017 -0.429,-0.004 -0.639,-0.065 -0.368,-0.105 -0.511,-0.359 -0.472,-0.85 0.025,-0.331 0.242,-0.543 0.594,-0.575 0.234,-0.021 0.459,0.028 0.677,0.115 0.075,0.032 0.131,0.091 0.209,-0.034 0.045,-0.078 0.196,-0.047 0.292,-0.013 0.083,0.027 0.046,0.125 0.048,0.191 0.003,0.255 0.001,0.511 0.001,0.767 m -7.472,0.233 c -0.015,-0.16 0.015,-0.315 0.038,-0.475 0.075,-0.511 0.445,-0.798 1.021,-0.788 0.54,0.012 0.889,0.32 0.951,0.818 0.038,0.295 0.038,0.586 -10e-4,0.879 -0.063,0.469 -0.397,0.771 -0.896,0.796 -0.564,0.028 -0.957,-0.217 -1.058,-0.685 -0.039,-0.178 -0.076,-0.359 -0.055,-0.545 m 12.12,5.186 c 0,-0.438 0.005,-0.875 -0.002,-1.315 -0.003,-0.144 0.041,-0.202 0.189,-0.192 0.175,0.009 0.352,0.01 0.526,0 0.159,-0.011 0.205,0.048 0.203,0.203 -0.009,0.592 0.004,1.181 -0.008,1.771 -0.004,0.17 0.051,0.25 0.213,0.273 0.07,0.009 0.14,0.033 0.209,0.044 0.532,0.079 0.527,0.078 0.502,0.615 -0.006,0.144 -0.065,0.17 -0.19,0.168 -0.18,-0.004 -0.345,-0.058 -0.507,-0.122 -0.114,-0.045 -0.243,-0.242 -0.317,0.041 -0.004,0.018 -0.087,0.021 -0.133,0.022 -0.16,0.003 -0.32,-0.009 -0.478,0.004 -0.176,0.016 -0.214,-0.057 -0.21,-0.219 0.011,-0.43 0.003,-0.862 0.003,-1.293 m -14.261,-1.547 c 0,-0.008 0,-0.015 0.001,-0.022 0.166,0.009 0.338,-0.005 0.5,0.027 0.489,0.106 0.411,-0.015 0.426,0.522 0.004,0.158 -0.063,0.188 -0.201,0.177 -0.239,-0.02 -0.477,-0.041 -0.715,-0.036 -0.311,0.004 -0.494,0.166 -0.51,0.456 -0.017,0.285 -0.017,0.574 0,0.86 0.019,0.28 0.188,0.437 0.466,0.446 0.207,0.008 0.416,0.007 0.622,-0.01 0.344,-0.034 0.353,-0.036 0.332,0.308 -0.009,0.125 0.03,0.291 -0.164,0.323 -0.299,0.051 -0.598,0.104 -0.901,0.087 -0.746,-0.041 -1.138,-0.332 -1.246,-0.978 -0.07,-0.413 -0.074,-0.837 0.01,-1.257 0.104,-0.517 0.42,-0.81 0.927,-0.899 0.145,-0.028 0.302,-0.004 0.453,-0.004 m 12.116,1.547 c -0.007,-0.241 0.004,-0.559 0.035,-0.875 0.037,-0.365 0.225,-0.611 0.578,-0.667 0.282,-0.044 0.571,-0.042 0.854,0.024 0.063,0.016 0.119,0.016 0.143,0.1 0.091,0.331 -0.013,0.477 -0.348,0.477 -0.022,0 -0.048,0.002 -0.072,0 -0.188,-0.018 -0.254,0.071 -0.25,0.254 0.008,0.343 0,0.687 0,1.029 -0.001,0.488 0,0.491 0.472,0.504 0.16,0.005 0.205,0.063 0.206,0.215 0.003,0.445 0.009,0.445 -0.435,0.448 -0.024,0 -0.048,0.003 -0.07,0 -0.143,-0.016 -0.173,0.054 -0.177,0.182 -0.007,0.187 0.095,0.441 -0.05,0.545 -0.129,0.093 -0.368,0.033 -0.56,0.034 -0.326,0.003 -0.324,10e-4 -0.326,-0.324 -0.001,-0.128 0.033,-0.276 -0.021,-0.377 -0.067,-0.126 -0.232,-0.038 -0.352,-0.061 -0.238,-0.045 -0.092,-0.229 -0.119,-0.346 -0.046,-0.193 0.022,-0.305 0.246,-0.281 0.176,0.019 0.265,-0.058 0.25,-0.252 -0.013,-0.182 -0.004,-0.367 -0.004,-0.629 m -8.644,-1.26 c -0.032,-0.225 0.072,-0.262 0.236,-0.247 0.143,0.011 0.288,0.01 0.431,0 0.161,-0.014 0.202,0.051 0.2,0.206 -0.007,0.712 0.002,1.423 -0.006,2.134 -0.002,0.218 0.107,0.517 -0.051,0.636 -0.143,0.111 -0.427,0.027 -0.65,0.043 -0.175,0.014 -0.213,-0.057 -0.211,-0.221 0.009,-0.525 0.004,-1.052 0.004,-1.58 0,-0.468 0,-0.468 -0.463,-0.572 -0.389,-0.088 -0.541,0.03 -0.543,0.426 -0.002,0.583 -0.004,1.166 0.002,1.749 10e-4,0.136 -0.024,0.208 -0.184,0.198 -0.19,-0.013 -0.381,-0.007 -0.574,-0.002 -0.109,0.003 -0.158,-0.032 -0.158,-0.148 0.006,-0.696 -0.016,-1.392 0.017,-2.085 0.025,-0.598 0.329,-0.837 0.932,-0.842 0.357,-0.003 0.665,0.138 1.018,0.305 m -7.469,2.535 c 0.023,0.21 -0.072,0.254 -0.236,0.237 -0.135,-0.013 -0.273,-0.013 -0.407,0 -0.175,0.018 -0.234,-0.04 -0.231,-0.222 0.011,-0.704 0,-1.406 0.007,-2.108 0.002,-0.22 -0.1,-0.505 0.045,-0.642 0.143,-0.139 0.428,-0.023 0.646,-0.046 0.192,-0.024 0.225,0.061 0.223,0.232 -0.01,0.558 0.013,1.117 -0.012,1.675 -0.01,0.263 0.068,0.403 0.326,0.439 0.039,0.006 0.077,0.028 0.116,0.034 0.404,0.084 0.57,-0.044 0.57,-0.458 0.002,-0.568 0.008,-1.134 -0.004,-1.701 -0.003,-0.184 0.06,-0.237 0.233,-0.222 0.175,0.012 0.351,0.006 0.527,0.002 0.107,-0.004 0.16,0.029 0.158,0.147 -0.004,0.694 0.02,1.389 -0.014,2.082 -0.027,0.609 -0.314,0.83 -0.925,0.847 -0.368,0.01 -0.686,-0.115 -1.022,-0.296 m 13.273,-0.009 c 0.035,0.233 -0.078,0.258 -0.236,0.246 -0.141,-0.013 -0.288,-0.013 -0.431,0 -0.161,0.014 -0.202,-0.054 -0.2,-0.205 0.007,-0.701 -0.002,-1.404 0.006,-2.105 0.002,-0.229 -0.103,-0.526 0.049,-0.665 0.15,-0.138 0.443,-0.025 0.672,-0.043 0.147,-0.013 0.193,0.044 0.191,0.189 -0.007,0.558 -0.002,1.117 -0.002,1.675 0,0.402 0,0.402 0.392,0.505 0.436,0.114 0.612,-0.023 0.612,-0.478 0.002,-0.566 0.004,-1.133 -0.002,-1.699 -0.002,-0.142 0.037,-0.203 0.189,-0.193 0.19,0.009 0.384,0.006 0.574,0.002 0.112,-0.005 0.154,0.039 0.153,0.152 -0.004,0.686 0.016,1.373 -0.009,2.06 -0.025,0.613 -0.316,0.849 -0.937,0.863 -0.356,0.009 -0.671,-0.106 -1.021,-0.304 m 8.483,-2.829 c 0.767,0.001 1.243,0.279 1.392,0.798 0.131,0.471 0.125,0.947 0.029,1.421 -0.071,0.354 -0.267,0.634 -0.611,0.776 -0.5,0.208 -1.004,0.21 -1.511,0.016 -0.338,-0.131 -0.543,-0.391 -0.63,-0.731 -0.122,-0.476 -0.12,-0.963 10e-4,-1.439 0.086,-0.333 0.297,-0.578 0.621,-0.715 0.239,-0.101 0.488,-0.141 0.709,-0.126 m -24.206,1.312 h 0.359 c 0.659,0 0.659,0 0.601,0.656 -0.053,0.592 -0.416,1.024 -0.961,1.139 -0.293,0.063 -0.586,0.061 -0.878,-0.003 -0.519,-0.111 -0.845,-0.413 -0.952,-0.945 -0.077,-0.38 -0.077,-0.763 -0.022,-1.138 0.09,-0.585 0.369,-0.862 0.959,-0.975 0.45,-0.087 0.906,-0.065 1.357,0.003 0.396,0.057 0.386,0.055 0.395,0.45 0.004,0.183 -0.049,0.246 -0.229,0.22 -0.365,-0.055 -0.732,-0.055 -1.099,-0.043 -0.174,0.006 -0.33,0.055 -0.435,0.206 -0.081,0.113 -0.088,0.249 -0.047,0.366 0.041,0.113 0.17,0.059 0.258,0.061 0.23,0.006 0.462,0.003 0.694,0.003 m 13.274,0 c 0.264,0 0.529,0.006 0.791,-0.003 0.174,-0.008 0.23,0.065 0.213,0.226 -0.015,0.152 -0.025,0.302 -0.041,0.452 -0.06,0.585 -0.416,1.002 -0.955,1.119 -0.292,0.064 -0.586,0.064 -0.878,0 -0.515,-0.111 -0.847,-0.41 -0.956,-0.943 -0.078,-0.38 -0.078,-0.763 -0.021,-1.139 0.087,-0.586 0.367,-0.864 0.956,-0.977 0.448,-0.087 0.903,-0.068 1.354,10e-4 0.402,0.059 0.388,0.058 0.402,0.446 0.006,0.205 -0.076,0.249 -0.25,0.223 -0.357,-0.054 -0.716,-0.051 -1.075,-0.042 -0.175,0.006 -0.331,0.054 -0.438,0.203 -0.082,0.113 -0.09,0.248 -0.05,0.366 0.038,0.115 0.165,0.063 0.254,0.065 0.231,0.004 0.463,0.003 0.694,0.003 m 11.32,13.412 c -0.002,1.406 -1.109,2.534 -2.486,2.532 -1.344,-10e-4 -2.453,-1.152 -2.451,-2.547 0.002,-1.418 1.107,-2.53 2.512,-2.527 1.334,0.002 2.427,1.145 2.425,2.542 m -19.751,-0.014 c 0.001,1.397 -1.102,2.542 -2.45,2.544 -1.371,0.002 -2.482,-1.131 -2.487,-2.533 -0.004,-1.382 1.103,-2.538 2.429,-2.539 1.404,-0.003 2.507,1.108 2.508,2.528 m 0.838,-2.915 c -0.585,-0.393 -1.182,-0.691 -1.786,-0.982 -1.709,-0.816 -3.239,-0.418 -4.65,0.691 -0.674,0.529 -1.07,1.275 -1.453,2.024 -0.043,0.086 -0.06,0.198 -0.166,0.254 -0.095,-0.375 -0.126,-0.746 -0.157,-1.118 -0.027,-0.287 -0.007,-0.576 0.041,-0.858 0.211,-1.271 0.762,-2.358 1.774,-3.178 0.447,-0.362 0.959,-0.628 1.496,-0.836 0.553,-0.215 1.125,-0.374 1.727,-0.298 1.452,0.183 2.652,0.849 3.626,1.938 0.084,0.092 0.1,0.172 0.068,0.297 -0.179,0.677 -0.345,1.357 -0.52,2.066 m 20.997,2.032 c -0.186,-0.345 -0.345,-0.653 -0.515,-0.956 -0.469,-0.831 -1.082,-1.518 -1.952,-1.946 -1.15,-0.564 -2.319,-0.768 -3.542,-0.215 -0.633,0.287 -1.262,0.578 -1.84,0.965 -0.181,0.121 -0.217,0.081 -0.261,-0.109 -0.139,-0.604 -0.293,-1.207 -0.453,-1.806 -0.04,-0.151 -0.009,-0.249 0.091,-0.364 0.623,-0.708 1.387,-1.219 2.256,-1.57 0.635,-0.256 1.304,-0.45 1.983,-0.321 1.571,0.298 2.882,1.006 3.716,2.46 0.695,1.214 0.84,2.476 0.517,3.862 m -11.53,0.889 c -10e-4,1.689 -1.343,3.064 -2.994,3.064 -1.645,-0.001 -2.994,-1.38 -2.995,-3.066 0,-1.686 1.348,-3.061 2.998,-3.061 1.65,0 2.992,1.374 2.991,3.063 m 2.786,-1.059 c -1.016,-2.686 -2.947,-4.039 -5.728,-4.219 -2.775,0.235 -4.69,1.634 -5.727,4.226 -0.564,-1.41 -0.193,-4.34 1.785,-6.143 2.091,-1.913 4.982,-1.903 7.002,-0.722 2.155,1.26 3.434,4.135 2.668,6.858"
         style="fill:#ffffff;fill-opacity:1;fill-rule:evenodd;stroke:none"
         id="path5050" />
      <path
         d="m 381.2982,313.2045 c 0.767,-2.725 -0.514,-5.6 -2.668,-6.857 -2.019,-1.182 -4.911,-1.192 -7.004,0.719 -1.975,1.805 -2.348,4.736 -1.783,6.145 1.037,-2.592 2.952,-3.99 5.726,-4.225 2.782,0.179 4.712,1.53 5.729,4.218"
         style="fill:#6e258c;fill-opacity:1;fill-rule:evenodd;stroke:none"
         id="path5054" />
      <path
         d="m 378.5121,314.2631 c 0.001,-1.687 -1.341,-3.063 -2.991,-3.063 -1.652,0 -2.998,1.376 -2.998,3.061 0.002,1.688 1.348,3.065 2.995,3.066 1.649,0 2.993,-1.375 2.994,-3.064"
         style="fill:#6e258c;fill-opacity:1;fill-rule:evenodd;stroke:none"
         id="path5058" />
      <path
         d="m 390.0404,313.3744 c 0.324,-1.386 0.181,-2.647 -0.516,-3.861 -0.834,-1.454 -2.144,-2.162 -3.714,-2.461 -0.68,-0.129 -1.35,0.065 -1.985,0.321 -0.87,0.352 -1.633,0.86 -2.256,1.572 -0.098,0.114 -0.131,0.211 -0.092,0.363 0.163,0.598 0.314,1.201 0.456,1.805 0.044,0.191 0.08,0.23 0.259,0.11 0.578,-0.388 1.207,-0.679 1.84,-0.966 1.224,-0.553 2.393,-0.349 3.542,0.216 0.87,0.425 1.485,1.114 1.952,1.945 0.17,0.304 0.329,0.611 0.514,0.956"
         style="fill:#387fc2;fill-opacity:1;fill-rule:evenodd;stroke:none"
         id="path5062" />
      <path
         d="m 369.0433,311.3422 c 0.177,-0.709 0.343,-1.389 0.521,-2.063 0.033,-0.125 0.015,-0.208 -0.069,-0.301 -0.973,-1.088 -2.173,-1.754 -3.626,-1.937 -0.599,-0.076 -1.173,0.083 -1.724,0.298 -0.539,0.208 -1.05,0.473 -1.498,0.836 -1.011,0.82 -1.564,1.907 -1.775,3.177 -0.047,0.283 -0.066,0.572 -0.041,0.859 0.032,0.372 0.065,0.743 0.158,1.118 0.107,-0.056 0.123,-0.168 0.166,-0.254 0.382,-0.749 0.781,-1.495 1.453,-2.024 1.413,-1.109 2.942,-1.507 4.651,-0.688 0.603,0.289 1.199,0.586 1.784,0.979"
         style="fill:#eb1b2d;fill-opacity:1;fill-rule:evenodd;stroke:none"
         id="path5066" />
      <path
         d="m 368.2054,314.2572 c -10e-4,-1.42 -1.104,-2.531 -2.507,-2.529 -1.327,0.002 -2.431,1.158 -2.43,2.54 0.006,1.402 1.119,2.535 2.489,2.533 1.347,-0.002 2.449,-1.147 2.448,-2.544"
         style="fill:#eb1b2d;fill-opacity:1;fill-rule:evenodd;stroke:none"
         id="path5070" />
      <path
         d="m 387.9564,314.2699 c 0.002,-1.396 -1.09,-2.54 -2.424,-2.542 -1.404,-0.002 -2.51,1.11 -2.512,2.528 -10e-4,1.395 1.106,2.546 2.453,2.547 1.377,0.002 2.481,-1.126 2.483,-2.533"
         style="fill:#387fc2;fill-opacity:1;fill-rule:evenodd;stroke:none"
         id="path5074" />
      <path
         d="m 376.2103,301.3734 c 0.135,0 0.271,0.003 0.404,0 0.094,-0.003 0.13,0.041 0.12,0.13 -0.021,0.2 -0.05,0.395 -0.268,0.49 -0.211,0.092 -0.515,0.062 -0.649,-0.079 -0.125,-0.129 -0.174,-0.303 -0.128,-0.462 0.046,-0.16 0.217,-0.055 0.333,-0.077 0.059,-0.012 0.126,-0.002 0.188,-0.002 m 0.428,-0.516 c -0.232,0 -0.463,0.004 -0.695,-0.003 -0.087,-0.002 -0.214,0.052 -0.254,-0.063 -0.04,-0.118 -0.032,-0.253 0.05,-0.366 0.108,-0.149 0.264,-0.198 0.439,-0.202 0.358,-0.01 0.719,-0.013 1.074,0.042 0.175,0.025 0.257,-0.019 0.25,-0.224 -0.014,-0.388 -10e-4,-0.387 -0.4,-0.445 -0.453,-0.069 -0.908,-0.089 -1.357,-0.001 -0.588,0.112 -0.869,0.391 -0.956,0.976 -0.056,0.376 -0.056,0.759 0.024,1.139 0.108,0.533 0.438,0.832 0.956,0.943 0.292,0.064 0.586,0.064 0.878,0 0.539,-0.117 0.892,-0.534 0.955,-1.119 0.014,-0.15 0.023,-0.302 0.041,-0.452 0.015,-0.161 -0.039,-0.233 -0.214,-0.228 -0.264,0.011 -0.528,0.003 -0.791,0.003"
         style="fill:#706d6e;fill-opacity:1;fill-rule:evenodd;stroke:none"
         id="path5078" />
      <path
         d="m 362.9252,301.3734 c 0.127,0 0.254,0.007 0.38,-0.002 0.135,-0.009 0.169,0.06 0.149,0.173 -0.031,0.183 -0.061,0.364 -0.26,0.446 -0.211,0.086 -0.425,0.087 -0.615,-0.043 -0.166,-0.115 -0.212,-0.309 -0.17,-0.489 0.039,-0.171 0.214,-0.058 0.328,-0.083 0.058,-0.013 0.125,-0.002 0.188,-0.002 m 0.438,-0.516 c -0.231,0 -0.462,0.005 -0.694,-0.003 -0.089,-0.002 -0.217,0.054 -0.258,-0.059 -0.042,-0.116 -0.033,-0.253 0.046,-0.365 0.108,-0.152 0.263,-0.203 0.437,-0.206 0.367,-0.013 0.734,-0.013 1.098,0.043 0.181,0.025 0.234,-0.04 0.23,-0.221 -0.009,-0.394 0.001,-0.393 -0.396,-0.449 -0.452,-0.069 -0.906,-0.091 -1.356,-0.004 -0.59,0.113 -0.869,0.388 -0.959,0.974 -0.057,0.376 -0.057,0.759 0.021,1.139 0.108,0.532 0.434,0.834 0.955,0.946 0.291,0.063 0.584,0.065 0.875,0.002 0.545,-0.115 0.91,-0.549 0.961,-1.138 0.059,-0.659 0.059,-0.659 -0.6,-0.659 z"
         style="fill:#706d6e;fill-opacity:1;fill-rule:evenodd;stroke:none"
         id="path5082" />
      <path
         d="m 388.142,301.1156 c -0.005,0.158 0.006,0.316 -0.035,0.476 -0.077,0.304 -0.239,0.425 -0.573,0.404 -0.267,-0.018 -0.408,-0.174 -0.443,-0.472 -0.034,-0.277 -0.033,-0.554 0,-0.831 0.037,-0.304 0.184,-0.453 0.473,-0.466 0.312,-0.013 0.468,0.112 0.545,0.414 0.04,0.16 0.027,0.317 0.033,0.475 m -0.572,-1.567 c -0.221,-0.016 -0.47,0.024 -0.709,0.126 -0.323,0.135 -0.534,0.38 -0.62,0.713 -0.121,0.477 -0.123,0.963 -10e-4,1.44 0.087,0.34 0.292,0.6 0.63,0.73 0.504,0.196 1.01,0.193 1.51,-0.015 0.344,-0.144 0.539,-0.422 0.612,-0.777 0.093,-0.473 0.101,-0.951 -0.032,-1.421 -0.147,-0.518 -0.624,-0.795 -1.39,-0.796"
         style="fill:#706d6e;fill-opacity:1;fill-rule:evenodd;stroke:none"
         id="path5086" />
      <path
         d="m 379.0873,302.3763 c 0.351,0.198 0.663,0.312 1.021,0.304 0.622,-0.014 0.913,-0.25 0.935,-0.865 0.026,-0.685 0.007,-1.372 0.011,-2.058 10e-4,-0.112 -0.041,-0.156 -0.154,-0.152 -0.191,0.003 -0.382,0.007 -0.574,-0.002 -0.151,-0.01 -0.19,0.051 -0.188,0.193 0.007,0.566 0.005,1.133 0.002,1.699 0,0.455 -0.176,0.592 -0.613,0.479 -0.391,-0.104 -0.391,-0.104 -0.391,-0.506 0,-0.558 -0.005,-1.116 0.002,-1.675 0.002,-0.146 -0.044,-0.202 -0.192,-0.189 -0.228,0.018 -0.521,-0.095 -0.671,0.043 -0.154,0.139 -0.046,0.436 -0.048,0.665 -0.009,0.701 10e-4,1.404 -0.007,2.105 -0.002,0.153 0.039,0.219 0.2,0.205 0.144,-0.013 0.288,-0.012 0.432,0 0.157,0.012 0.268,-0.017 0.235,-0.246"
         style="fill:#706d6e;fill-opacity:1;fill-rule:evenodd;stroke:none"
         id="path5090" />
      <path
         d="m 365.8138,302.3851 c 0.336,0.181 0.654,0.306 1.021,0.296 0.612,-0.017 0.899,-0.237 0.926,-0.847 0.032,-0.693 0.01,-1.386 0.014,-2.082 0.002,-0.118 -0.051,-0.151 -0.158,-0.148 -0.176,0.006 -0.352,0.01 -0.527,-0.002 -0.173,-0.014 -0.236,0.039 -0.233,0.223 0.012,0.567 0.006,1.133 0.004,1.702 0,0.412 -0.166,0.545 -0.57,0.46 -0.04,-0.01 -0.077,-0.031 -0.116,-0.037 -0.258,-0.036 -0.336,-0.177 -0.326,-0.439 0.025,-0.558 0.002,-1.117 0.012,-1.675 0.002,-0.171 -0.031,-0.256 -0.223,-0.233 -0.22,0.024 -0.503,-0.092 -0.646,0.047 -0.145,0.137 -0.043,0.422 -0.045,0.642 -0.007,0.702 0.004,1.406 -0.007,2.108 -0.003,0.182 0.056,0.24 0.231,0.222 0.134,-0.012 0.272,-0.012 0.407,0 0.164,0.017 0.259,-0.027 0.236,-0.237"
         style="fill:#706d6e;fill-opacity:1;fill-rule:evenodd;stroke:none"
         id="path5094" />
      <path
         d="m 373.2826,299.85 c -0.353,-0.167 -0.662,-0.308 -1.018,-0.305 -0.603,0.005 -0.907,0.244 -0.933,0.842 -0.03,0.693 -0.01,1.39 -0.016,2.085 0,0.116 0.049,0.151 0.158,0.149 0.192,-0.004 0.384,-0.01 0.576,0.001 0.157,0.01 0.183,-0.062 0.182,-0.198 -0.006,-0.583 -0.004,-1.166 -0.002,-1.749 0.002,-0.394 0.156,-0.513 0.543,-0.426 0.463,0.103 0.463,0.103 0.463,0.574 0,0.526 0.005,1.053 -0.004,1.581 -0.002,0.16 0.036,0.232 0.211,0.218 0.222,-0.017 0.507,0.067 0.652,-0.043 0.155,-0.119 0.047,-0.416 0.049,-0.637 0.008,-0.711 -10e-4,-1.422 0.006,-2.133 0.002,-0.153 -0.039,-0.22 -0.2,-0.207 -0.143,0.013 -0.288,0.014 -0.431,0 -0.164,-0.014 -0.269,0.023 -0.236,0.248"
         style="fill:#706d6e;fill-opacity:1;fill-rule:evenodd;stroke:none"
         id="path5098" />
      <path
         d="m 381.9271,301.1088 c 0,0.265 -0.011,0.448 0.004,0.631 0.016,0.193 -0.074,0.27 -0.25,0.252 -0.226,-0.026 -0.292,0.089 -0.246,0.279 0.027,0.118 -0.119,0.303 0.119,0.348 0.12,0.022 0.285,-0.066 0.352,0.06 0.052,0.102 0.02,0.249 0.021,0.377 0.002,0.324 0,0.324 0.326,0.324 0.193,0 0.431,0.058 0.56,-0.034 0.143,-0.103 0.043,-0.357 0.051,-0.545 0.002,-0.13 0.033,-0.199 0.174,-0.18 0.024,0.003 0.047,0 0.073,0 0.443,-0.004 0.437,-0.004 0.432,-0.45 -10e-4,-0.152 -0.046,-0.208 -0.204,-0.213 -0.473,-0.013 -0.475,-0.019 -0.473,-0.505 0,-0.343 0.007,-0.687 0,-1.031 -0.002,-0.181 0.063,-0.271 0.25,-0.251 0.025,0.001 0.049,0 0.073,0 0.336,0 0.439,-0.149 0.347,-0.48 -0.023,-0.084 -0.081,-0.084 -0.142,-0.1 -0.282,-0.066 -0.571,-0.068 -0.856,-0.022 -0.351,0.057 -0.541,0.303 -0.576,0.665 -0.031,0.317 -0.042,0.637 -0.035,0.875"
         style="fill:#706d6e;fill-opacity:1;fill-rule:evenodd;stroke:none"
         id="path5102" />
      <path
         d="m 369.8109,299.5619 c -0.15,0 -0.307,-0.021 -0.453,0.004 -0.507,0.091 -0.822,0.385 -0.927,0.9 -0.084,0.42 -0.08,0.844 -0.01,1.257 0.108,0.648 0.5,0.939 1.244,0.98 0.305,0.015 0.604,-0.037 0.903,-0.088 0.194,-0.032 0.155,-0.199 0.164,-0.324 0.021,-0.343 0.013,-0.34 -0.332,-0.309 -0.206,0.018 -0.415,0.019 -0.622,0.013 -0.279,-0.012 -0.447,-0.166 -0.466,-0.448 -0.018,-0.286 -0.018,-0.575 0,-0.861 0.017,-0.29 0.199,-0.451 0.51,-0.456 0.238,-0.004 0.476,0.019 0.716,0.037 0.137,0.012 0.205,-0.018 0.2,-0.177 -0.015,-0.537 0.063,-0.416 -0.426,-0.519 -0.162,-0.033 -0.334,-0.021 -0.5,-0.03 -10e-4,0.007 -10e-4,0.014 -10e-4,0.021"
         style="fill:#706d6e;fill-opacity:1;fill-rule:evenodd;stroke:none"
         id="path5106" />
      <path
         d="m 384.0717,301.1107 c 0,0.432 0.007,0.862 -0.003,1.293 -0.004,0.16 0.034,0.234 0.21,0.219 0.158,-0.014 0.318,-0.001 0.48,-0.004 0.042,-10e-4 0.127,-0.004 0.131,-0.023 0.076,-0.284 0.203,-0.086 0.316,-0.041 0.163,0.065 0.328,0.118 0.51,0.122 0.125,0.002 0.182,-0.023 0.188,-0.168 0.025,-0.537 0.03,-0.536 -0.502,-0.615 -0.07,-0.012 -0.139,-0.034 -0.209,-0.044 -0.162,-0.022 -0.217,-0.102 -0.213,-0.272 0.012,-0.59 -10e-4,-1.181 0.008,-1.772 0.002,-0.156 -0.044,-0.214 -0.203,-0.204 -0.174,0.012 -0.351,0.011 -0.526,0 -0.148,-0.009 -0.192,0.049 -0.189,0.195 0.007,0.437 0.002,0.877 0.002,1.314"
         style="fill:#706d6e;fill-opacity:1;fill-rule:evenodd;stroke:none"
         id="path5110" />
      <path
         d="m 373.5795,295.892 h -0.005 c 0,0.146 0.012,0.288 -0.003,0.432 -0.031,0.312 -0.248,0.488 -0.596,0.494 -0.339,0.007 -0.56,-0.17 -0.6,-0.489 -0.031,-0.25 -0.048,-0.5 -0.011,-0.759 0.055,-0.394 0.236,-0.574 0.625,-0.569 0.378,0.008 0.574,0.208 0.59,0.604 0.003,0.096 0,0.191 0,0.287 m -1.628,0.032 c -0.019,0.186 0.018,0.367 0.056,0.545 0.1,0.467 0.492,0.713 1.057,0.687 0.499,-0.027 0.833,-0.327 0.896,-0.799 0.038,-0.293 0.038,-0.584 0.002,-0.879 -0.063,-0.498 -0.41,-0.805 -0.95,-0.815 -0.579,-0.013 -0.948,0.274 -1.023,0.788 -0.021,0.157 -0.053,0.313 -0.038,0.473"
         style="fill:#706d6e;fill-opacity:1;fill-rule:evenodd;stroke:none"
         id="path5114" />
      <path
         d="m 378.6713,295.8597 c -0.143,0 -0.282,-0.002 -0.424,-0.038 -0.166,-0.043 -0.247,-0.149 -0.257,-0.303 -0.009,-0.184 -0.056,-0.399 0.16,-0.507 0.273,-0.131 0.53,-0.011 0.779,0.086 0.199,0.079 0.099,0.264 0.105,0.399 0.014,0.363 0.005,0.363 -0.363,0.363 m 0.753,-0.17 c 0,-0.255 0.002,-0.511 -0.001,-0.767 -0.002,-0.066 0.033,-0.163 -0.05,-0.191 -0.095,-0.032 -0.245,-0.062 -0.292,0.015 -0.076,0.125 -0.133,0.064 -0.209,0.034 -0.217,-0.086 -0.441,-0.137 -0.676,-0.114 -0.351,0.031 -0.567,0.243 -0.592,0.574 -0.039,0.489 0.101,0.744 0.47,0.848 0.21,0.062 0.427,0.049 0.64,0.067 0.119,0.012 0.326,-0.114 0.328,0.167 0.002,0.31 -0.084,0.474 -0.329,0.49 -0.236,0.016 -0.479,-0.005 -0.716,-0.01 -0.091,-0.002 -0.212,-0.099 -0.247,0.075 -0.032,0.159 0.065,0.208 0.199,0.228 0.318,0.05 0.632,0.082 0.951,0.01 0.351,-0.08 0.512,-0.27 0.521,-0.636 0.007,-0.263 0.002,-0.526 0.002,-0.79 z"
         style="fill:#706d6e;fill-opacity:1;fill-rule:evenodd;stroke:none"
         id="path5118" />
      <path
         d="m 370.7787,297.1508 c 0.188,0.014 0.354,-0.023 0.521,-0.043 0.156,-0.019 0.174,-0.114 0.157,-0.235 -0.02,-0.146 -0.129,-0.092 -0.204,-0.076 -0.224,0.042 -0.448,0.018 -0.669,0.019 -0.135,10e-4 -0.261,-0.042 -0.305,-0.186 -0.048,-0.154 0.031,-0.273 0.156,-0.34 0.233,-0.125 0.477,-0.225 0.708,-0.35 0.206,-0.11 0.397,-0.246 0.418,-0.514 0.036,-0.44 -0.165,-0.68 -0.643,-0.754 -0.297,-0.042 -0.59,0.017 -0.883,0.052 -0.121,0.016 -0.147,0.099 -0.14,0.209 0.009,0.141 0.11,0.114 0.194,0.109 0.229,-0.019 0.459,-0.06 0.69,-0.043 0.173,0.01 0.343,0.033 0.392,0.241 0.046,0.209 -0.066,0.334 -0.242,0.416 -0.179,0.084 -0.361,0.166 -0.545,0.246 -0.148,0.065 -0.274,0.163 -0.376,0.287 -0.267,0.319 -0.125,0.792 0.27,0.908 0.169,0.05 0.343,0.075 0.501,0.054"
         style="fill:#706d6e;fill-opacity:1;fill-rule:evenodd;stroke:none"
         id="path5122" />
      <path
         d="m 374.4418,295.9105 c -0.007,0.227 0.017,0.446 0.085,0.66 0.113,0.348 0.376,0.556 0.738,0.579 0.215,0.013 0.428,-0.003 0.643,-0.034 0.16,-0.022 0.176,-0.105 0.162,-0.227 -0.018,-0.169 -0.131,-0.085 -0.215,-0.082 -0.176,0.004 -0.351,0.02 -0.524,0.006 -0.263,-0.019 -0.431,-0.204 -0.465,-0.464 -0.038,-0.286 -0.04,-0.569 -0.003,-0.855 0.04,-0.297 0.215,-0.479 0.515,-0.494 0.182,-0.009 0.365,-0.007 0.545,0.031 0.063,0.014 0.141,0.018 0.143,-0.076 0.002,-0.08 0.043,-0.177 -0.065,-0.231 -0.368,-0.182 -1.084,-0.05 -1.33,0.256 -0.22,0.273 -0.22,0.605 -0.229,0.931"
         style="fill:#706d6e;fill-opacity:1;fill-rule:evenodd;stroke:none"
         id="path5126" />
      <path
         d="m 380.475,296.3851 c 0,-0.495 -0.005,-0.99 0.003,-1.483 0.002,-0.153 -0.053,-0.191 -0.193,-0.191 -0.145,-10e-4 -0.196,0.04 -0.195,0.191 0.005,0.998 0.005,1.995 0,2.992 -10e-4,0.139 0.05,0.178 0.182,0.176 0.127,-0.003 0.21,-0.011 0.206,-0.177 -0.009,-0.502 -0.003,-1.005 -0.003,-1.508"
         style="fill:#706d6e;fill-opacity:1;fill-rule:evenodd;stroke:none"
         id="path5130" />
      <path
         d="m 377.0238,295.9115 c 0,-0.343 -0.005,-0.686 0.003,-1.026 0.004,-0.144 -0.058,-0.175 -0.186,-0.174 -0.129,0 -0.205,0.017 -0.203,0.179 0.007,0.676 0.007,1.353 0,2.03 -0.002,0.154 0.061,0.183 0.199,0.185 0.143,0.002 0.194,-0.045 0.19,-0.191 -0.009,-0.334 -0.003,-0.669 -0.003,-1.003"
         style="fill:#706d6e;fill-opacity:1;fill-rule:evenodd;stroke:none"
         id="path5134" />
      <path
         d="m 377.0238,297.7972 c -0.003,-0.124 0.049,-0.262 -0.181,-0.268 -0.24,-0.003 -0.205,0.135 -0.201,0.276 0.002,0.126 -0.047,0.263 0.184,0.267 0.232,0.003 0.211,-0.129 0.198,-0.275"
         style="fill:#706d6e;fill-opacity:1;fill-rule:evenodd;stroke:none"
         id="path5138" />
      <path
         d="m 376.2103,301.3734 c -0.062,0 -0.129,-0.01 -0.188,0.002 -0.116,0.022 -0.287,-0.083 -0.333,0.077 -0.046,0.159 0.003,0.333 0.128,0.462 0.134,0.141 0.438,0.171 0.649,0.079 0.218,-0.095 0.247,-0.29 0.268,-0.49 0.01,-0.089 -0.026,-0.133 -0.12,-0.13 -0.133,0.003 -0.269,0 -0.404,0"
         style="fill:#ffffff;fill-opacity:1;fill-rule:evenodd;stroke:none"
         id="path5142" />
      <path
         d="m 362.9252,301.3734 c -0.063,0 -0.13,-0.011 -0.188,0.002 -0.114,0.025 -0.289,-0.088 -0.328,0.083 -0.042,0.18 0.004,0.374 0.17,0.489 0.19,0.13 0.404,0.129 0.615,0.043 0.199,-0.082 0.229,-0.263 0.26,-0.446 0.02,-0.113 -0.014,-0.182 -0.149,-0.173 -0.126,0.009 -0.253,0.002 -0.38,0.002"
         style="fill:#ffffff;fill-opacity:1;fill-rule:evenodd;stroke:none"
         id="path5146" />
      <path
         d="m 388.142,301.1156 c -0.006,-0.158 0.007,-0.315 -0.033,-0.475 -0.077,-0.302 -0.233,-0.427 -0.545,-0.414 -0.289,0.013 -0.436,0.162 -0.473,0.466 -0.033,0.277 -0.034,0.554 0,0.831 0.035,0.298 0.176,0.454 0.443,0.472 0.334,0.021 0.496,-0.1 0.573,-0.404 0.041,-0.16 0.03,-0.318 0.035,-0.476"
         style="fill:#ffffff;fill-opacity:1;fill-rule:evenodd;stroke:none"
         id="path5150" />
      <path
         d="m 373.5795,295.892 c 0,-0.096 0.003,-0.191 0,-0.287 -0.016,-0.396 -0.212,-0.596 -0.59,-0.604 -0.389,-0.005 -0.57,0.175 -0.625,0.569 -0.037,0.259 -0.02,0.509 0.011,0.759 0.04,0.319 0.261,0.496 0.6,0.489 0.348,-0.006 0.565,-0.182 0.596,-0.494 0.015,-0.144 0.003,-0.286 0.003,-0.432 z"
         style="fill:#ffffff;fill-opacity:1;fill-rule:evenodd;stroke:none"
         id="path5154" />
      <path
         d="m 378.6713,295.8597 c 0.368,0 0.377,0 0.363,-0.363 -0.006,-0.135 0.094,-0.32 -0.105,-0.399 -0.249,-0.097 -0.506,-0.217 -0.779,-0.086 -0.216,0.108 -0.169,0.323 -0.16,0.507 0.01,0.154 0.091,0.26 0.257,0.303 0.142,0.036 0.281,0.038 0.424,0.038"
         style="fill:#ffffff;fill-opacity:1;fill-rule:evenodd;stroke:none"
         id="path5158" />
    </g>
  </g>
</svg>
