<?xml version="1.0" encoding="UTF-8" standalone="no"?>
<svg
   xmlns:dc="http://purl.org/dc/elements/1.1/"
   xmlns:cc="http://creativecommons.org/ns#"
   xmlns:rdf="http://www.w3.org/1999/02/22-rdf-syntax-ns#"
   xmlns:svg="http://www.w3.org/2000/svg"
   xmlns="http://www.w3.org/2000/svg"
   xmlns:sodipodi="http://sodipodi.sourceforge.net/DTD/sodipodi-0.dtd"
   xmlns:inkscape="http://www.inkscape.org/namespaces/inkscape"
   width="210mm"
   height="297mm"
   viewBox="0 0 210 297"
   version="1.1"
   id="svg8"
   inkscape:version="1.0.1 (3bc2e813f5, 2020-09-07)"
   sodipodi:docname="monos.svg"
   inkscape:export-filename="/home/elsahuaro/site/electoral/pages/barrimiento-fila/imgs/ciu6.png"
   inkscape:export-xdpi="72.00943"
   inkscape:export-ydpi="72.00943">
  <defs
     id="defs2" />
  <sodipodi:namedview
     id="base"
     pagecolor="#ffffff"
     bordercolor="#666666"
     borderopacity="1.0"
     inkscape:pageopacity="0.0"
     inkscape:pageshadow="2"
     inkscape:zoom="0.30218172"
     inkscape:cx="540.5479"
     inkscape:cy="906.35959"
     inkscape:document-units="mm"
     inkscape:current-layer="g1403"
     inkscape:document-rotation="0"
     showgrid="false"
     inkscape:window-width="1920"
     inkscape:window-height="1016"
     inkscape:window-x="0"
     inkscape:window-y="0"
     inkscape:window-maximized="1" />
  <metadata
     id="metadata5">
    <rdf:RDF>
      <cc:Work
         rdf:about="">
        <dc:format>image/svg+xml</dc:format>
        <dc:type
           rdf:resource="http://purl.org/dc/dcmitype/StillImage" />
        <dc:title />
      </cc:Work>
    </rdf:RDF>
  </metadata>
  <g
     inkscape:groupmode="layer"
     id="layer2"
     inkscape:label="Pre"
     style="display:none">
    <path
       id="path885-5"
       style="opacity:1;fill:#000000;fill-opacity:1;stroke:none;stroke-width:0.264583px;stroke-linecap:butt;stroke-linejoin:miter;stroke-opacity:1"
       d="m 105.8261,25.611866 a 50.413552,50.413552 0 0 0 -50.413465,50.413463 50.413552,50.413552 0 0 0 0.978236,9.88311 c -1.382064,-0.11659 -3.378451,0.62343 -2.978113,6.09214 0.46721,6.38218 8.446958,11.975581 12.001852,14.165031 a 50.413552,50.413552 0 0 0 1.488282,1.89859 c -0.333214,1.90567 -0.524881,6.56202 4.092253,11.17916 5.99892,5.99891 18.69757,10.66292 18.69757,10.66292 v 12.81421 c 0,9.7836 -3.13676,10.00197 -3.13676,10.00197 0,0 -7.2203,1.93458 -31.52314,8.44651 -24.302836,6.51193 -25.709025,29.24266 -25.709025,29.24266 v 99.58824 h 75.86411 75.86359 v -99.58824 c 0,0 -1.40619,-22.73073 -25.70903,-29.24266 -24.30283,-6.51193 -31.52314,-8.44651 -31.52314,-8.44651 0,0 -3.13676,-0.21837 -3.13676,-10.00197 v -12.81421 c 0,0 12.69866,-4.66401 18.69757,-10.66292 3.75262,-3.75262 4.32857,-7.53843 4.23385,-9.84798 a 50.413552,50.413552 0 0 0 5.59449,-7.69048 c 3.89465,-2.751761 9.18538,-7.400101 9.56273,-12.554791 0.40489,-5.53091 -1.64191,-6.22464 -3.02514,-6.08749 a 50.413552,50.413552 0 0 0 0.49351,-7.03729 50.413552,50.413552 0 0 0 -50.41347,-50.413463 z" />
    <text
       xml:space="preserve"
       style="font-weight:bold;font-size:52.9167px;line-height:1;font-family:'Myriad Pro';-inkscape-font-specification:'Myriad Pro Bold';letter-spacing:0px;display:inline;opacity:1;stroke-width:0.264583"
       x="89.055748"
       y="235.17107"
       id="text1066"><tspan
         sodipodi:role="line"
         id="tspan1064"
         x="89.055748"
         y="235.17107"
         style="font-style:normal;font-variant:normal;font-weight:bold;font-stretch:normal;font-size:52.9167px;font-family:Arial;-inkscape-font-specification:'Arial Bold';fill:#ffff00;fill-opacity:1;stroke-width:0.264583">P</tspan></text>
  </g>
  <g
     inkscape:groupmode="layer"
     id="layer3"
     inkscape:label="Sec1"
     style="display:none">
    <path
       id="path885-5-3"
       style="opacity:1;fill:#000000;fill-opacity:1;stroke:none;stroke-width:0.264583px;stroke-linecap:butt;stroke-linejoin:miter;stroke-opacity:1"
       d="m 105.8261,25.611862 a 50.413552,50.413552 0 0 0 -50.413463,50.413458 50.413552,50.413552 0 0 0 0.978236,9.88312 c -1.382064,-0.11659 -3.378451,0.62343 -2.978113,6.09214 0.46721,6.38218 8.446958,11.97558 12.001852,14.16503 a 50.413552,50.413552 0 0 0 1.488282,1.89859 c -0.333214,1.90567 -0.524881,6.56202 4.092254,11.17916 5.998917,5.99891 18.697567,10.66292 18.697567,10.66292 v 12.81421 c 0,9.78359 -3.13676,10.00197 -3.13676,10.00197 0,0 -7.2203,1.93458 -31.523138,8.44651 -24.302836,6.51193 -25.709025,29.24266 -25.709025,29.24266 v 99.58824 h 75.864118 75.86359 v -99.58824 c 0,0 -1.4062,-22.73073 -25.70903,-29.24266 -24.30283,-6.51193 -31.52314,-8.44651 -31.52314,-8.44651 0,0 -3.13676,-0.21838 -3.13676,-10.00197 v -12.81421 c 0,0 12.69865,-4.66401 18.69757,-10.66292 3.75262,-3.75262 4.32857,-7.53843 4.23385,-9.84798 a 50.413552,50.413552 0 0 0 5.59449,-7.69048 c 3.89465,-2.75176 9.18538,-7.4001 9.56272,-12.55479 0.40489,-5.53091 -1.6419,-6.22465 -3.02513,-6.08749 a 50.413552,50.413552 0 0 0 0.4935,-7.0373 50.413552,50.413552 0 0 0 -50.41347,-50.413458 z" />
    <text
       xml:space="preserve"
       style="font-weight:bold;font-size:52.9167px;line-height:1;font-family:'Myriad Pro';-inkscape-font-specification:'Myriad Pro Bold';letter-spacing:0px;display:inline;opacity:1;stroke-width:0.264583"
       x="72.335968"
       y="234.69389"
       id="text1066-0"><tspan
         sodipodi:role="line"
         id="tspan1064-4"
         x="72.335968"
         y="234.69389"
         style="font-style:normal;font-variant:normal;font-weight:bold;font-stretch:normal;font-size:52.9167px;font-family:Arial;-inkscape-font-specification:'Arial Bold';fill:#ffff00;fill-opacity:1;stroke-width:0.264583">1S</tspan></text>
  </g>
  <g
     inkscape:groupmode="layer"
     id="layer4"
     inkscape:label="Sec2"
     style="display:none">
    <path
       id="path885-56"
       style="opacity:1;fill:#000000;fill-opacity:1;stroke:none;stroke-width:0.264583px;stroke-linecap:butt;stroke-linejoin:miter;stroke-opacity:1"
       d="m 105.82609,25.611871 a 50.413552,50.413552 0 0 0 -50.413458,50.413458 50.413552,50.413552 0 0 0 0.978236,9.88312 c -1.382064,-0.1166 -3.378451,0.62343 -2.978113,6.09213 0.46721,6.38219 8.446958,11.975581 12.001852,14.165031 a 50.413552,50.413552 0 0 0 1.488282,1.89859 c -0.333214,1.90567 -0.524881,6.56202 4.092256,11.17916 5.99892,5.99892 18.69757,10.66292 18.69757,10.66292 v 12.81421 c 0,9.7836 -3.13676,10.00197 -3.13676,10.00197 0,0 -7.22031,1.93458 -31.523143,8.44651 -24.302836,6.51193 -25.709025,29.24266 -25.709025,29.24266 v 99.58824 h 75.864103 75.86358 v -99.58824 c 0,0 -1.40619,-22.73073 -25.70903,-29.24266 -24.30283,-6.51193 -31.52313,-8.44651 -31.52313,-8.44651 0,0 -3.13676,-0.21837 -3.13676,-10.00197 v -12.81421 c 0,0 12.69865,-4.664 18.69756,-10.66292 3.75262,-3.75261 4.32857,-7.53842 4.23385,-9.84797 a 50.413552,50.413552 0 0 0 5.59449,-7.69049 c 3.89465,-2.751751 9.18538,-7.400101 9.56273,-12.554791 0.40489,-5.5309 -1.64191,-6.22463 -3.02514,-6.08748 a 50.413552,50.413552 0 0 0 0.49351,-7.0373 50.413552,50.413552 0 0 0 -50.41346,-50.413458 z" />
    <text
       xml:space="preserve"
       style="font-weight:bold;font-size:52.9167px;line-height:1;font-family:'Myriad Pro';-inkscape-font-specification:'Myriad Pro Bold';letter-spacing:0px;display:inline;opacity:1;stroke-width:0.264583"
       x="74.364166"
       y="241.12733"
       id="text1066-8"><tspan
         sodipodi:role="line"
         id="tspan1064-8"
         x="74.364166"
         y="241.12733"
         style="font-style:normal;font-variant:normal;font-weight:bold;font-stretch:normal;font-size:52.9167px;font-family:Arial;-inkscape-font-specification:'Arial Bold';fill:#ffff00;fill-opacity:1;stroke-width:0.264583">2S</tspan></text>
  </g>
  <g
     inkscape:groupmode="layer"
     id="layer5"
     inkscape:label="Esc1"
     style="display:none">
    <path
       id="path885-2"
       style="opacity:1;fill:#000000;fill-opacity:1;stroke:none;stroke-width:0.264583px;stroke-linecap:butt;stroke-linejoin:miter;stroke-opacity:1"
       d="m 105.8261,25.611869 a 50.413552,50.413552 0 0 0 -50.413469,50.41346 50.413552,50.413552 0 0 0 0.978236,9.88312 c -1.382064,-0.1166 -3.378451,0.62343 -2.978113,6.09214 0.46721,6.38218 8.446961,11.975581 12.001851,14.165021 a 50.413552,50.413552 0 0 0 1.48828,1.8986 c -0.33321,1.90566 -0.52488,6.56201 4.09226,11.17916 5.99891,5.99891 18.69756,10.66291 18.69756,10.66291 v 12.81421 c 0,9.7836 -3.13675,10.00197 -3.13675,10.00197 0,0 -7.22031,1.93458 -31.523144,8.44651 -24.302836,6.51193 -25.709025,29.24266 -25.709025,29.24266 v 99.58824 h 75.864114 75.86358 v -99.58824 c 0,0 -1.40619,-22.73073 -25.70903,-29.24266 -24.30283,-6.51193 -31.52313,-8.44651 -31.52313,-8.44651 0,0 -3.13676,-0.21837 -3.13676,-10.00197 v -12.81421 c 0,0 12.69865,-4.664 18.69756,-10.66291 3.75262,-3.75262 4.32857,-7.53843 4.23385,-9.84798 a 50.413552,50.413552 0 0 0 5.59449,-7.69049 c 3.89465,-2.751751 9.18538,-7.400101 9.56273,-12.554791 0.40489,-5.5309 -1.64191,-6.22463 -3.02514,-6.08748 a 50.413552,50.413552 0 0 0 0.49351,-7.0373 50.413552,50.413552 0 0 0 -50.41346,-50.41346 z" />
    <text
       xml:space="preserve"
       style="font-weight:bold;font-size:52.9167px;line-height:1;font-family:'Myriad Pro';-inkscape-font-specification:'Myriad Pro Bold';letter-spacing:0px;display:inline;opacity:1;stroke-width:0.264583"
       x="71.81105"
       y="240.00624"
       id="text1066-8-8"><tspan
         sodipodi:role="line"
         id="tspan1064-8-9"
         x="71.81105"
         y="240.00624"
         style="font-style:normal;font-variant:normal;font-weight:bold;font-stretch:normal;font-size:52.9167px;font-family:Arial;-inkscape-font-specification:'Arial Bold';fill:#ffff00;fill-opacity:1;stroke-width:0.264583">1E</tspan></text>
  </g>
  <g
     inkscape:groupmode="layer"
     id="layer6"
     inkscape:label="Esc2"
     style="display:none">
    <path
       id="path885-9"
       style="opacity:1;fill:#000000;fill-opacity:1;stroke:none;stroke-width:0.264583px;stroke-linecap:butt;stroke-linejoin:miter;stroke-opacity:1"
       d="m 105.82609,25.611869 a 50.413552,50.413552 0 0 0 -50.413455,50.41346 50.413552,50.413552 0 0 0 0.97823,9.88312 c -1.38206,-0.1166 -3.37845,0.62343 -2.97811,6.09214 0.46721,6.38218 8.44696,11.975581 12.00185,14.165021 a 50.413552,50.413552 0 0 0 1.48829,1.8986 c -0.33322,1.90567 -0.52489,6.56201 4.09225,11.17916 5.99892,5.99891 18.69757,10.66291 18.69757,10.66291 v 12.81421 c 0,9.7836 -3.13676,10.00197 -3.13676,10.00197 0,0 -7.2203,1.93458 -31.52314,8.44651 -24.302838,6.51193 -25.709027,29.24266 -25.709027,29.24266 v 99.58824 h 75.864102 75.86358 v -99.58824 c 0,0 -1.40619,-22.73073 -25.70903,-29.24266 -24.30283,-6.51193 -31.52313,-8.44651 -31.52313,-8.44651 0,0 -3.13676,-0.21837 -3.13676,-10.00197 v -12.81421 c 0,0 12.69865,-4.664 18.69756,-10.66291 3.75262,-3.75262 4.32857,-7.53843 4.23385,-9.84798 a 50.413552,50.413552 0 0 0 5.59449,-7.69049 c 3.89465,-2.751751 9.18538,-7.400101 9.56273,-12.554791 0.40489,-5.5309 -1.64191,-6.22463 -3.02514,-6.08748 a 50.413552,50.413552 0 0 0 0.49351,-7.0373 50.413552,50.413552 0 0 0 -50.41346,-50.41346 z" />
    <text
       xml:space="preserve"
       style="font-weight:bold;font-size:52.9167px;line-height:1;font-family:'Myriad Pro';-inkscape-font-specification:'Myriad Pro Bold';letter-spacing:0px;display:inline;opacity:1;stroke-width:0.264583"
       x="72.735451"
       y="245.85292"
       id="text1066-8-8-7"><tspan
         sodipodi:role="line"
         id="tspan1064-8-9-7"
         x="72.735451"
         y="245.85292"
         style="font-style:normal;font-variant:normal;font-weight:bold;font-stretch:normal;font-size:52.9167px;font-family:Arial;-inkscape-font-specification:'Arial Bold';fill:#ffff00;fill-opacity:1;stroke-width:0.264583">2E</tspan></text>
  </g>
  <g
     inkscape:groupmode="layer"
     id="layer7"
     inkscape:label="Esc3"
     style="display:none">
    <path
       id="path885-1"
       style="opacity:1;fill:#000000;fill-opacity:1;stroke:none;stroke-width:0.264583px;stroke-linecap:butt;stroke-linejoin:miter;stroke-opacity:1"
       d="m 105.8261,25.611865 a 50.413552,50.413552 0 0 0 -50.413469,50.413464 50.413552,50.413552 0 0 0 0.978236,9.88311 c -1.382064,-0.1166 -3.378451,0.62343 -2.978113,6.09214 0.46721,6.38218 8.446958,11.975581 12.001852,14.165031 a 50.413552,50.413552 0 0 0 1.488282,1.89859 c -0.333214,1.90567 -0.524881,6.56202 4.092254,11.17916 5.998913,5.99891 18.697563,10.66292 18.697563,10.66292 v 12.81421 c 0,9.7836 -3.13675,10.00197 -3.13676,10.00197 0,0 -7.2203,1.93458 -31.523134,8.44651 -24.302836,6.51193 -25.709025,29.24266 -25.709025,29.24266 v 99.58824 h 75.864104 75.86359 v -99.58824 c 0,0 -1.40619,-22.73073 -25.70903,-29.24266 -24.30283,-6.51193 -31.52313,-8.44651 -31.52313,-8.44651 0,0 -3.13676,-0.21837 -3.13676,-10.00197 v -12.81421 c 0,0 12.69865,-4.66401 18.69756,-10.66292 3.75262,-3.75262 4.32857,-7.53843 4.23385,-9.84798 a 50.413552,50.413552 0 0 0 5.59449,-7.69049 c 3.89465,-2.751751 9.18538,-7.400101 9.56273,-12.554781 0.40489,-5.53091 -1.64191,-6.22464 -3.02514,-6.08749 a 50.413552,50.413552 0 0 0 0.49351,-7.03729 50.413552,50.413552 0 0 0 -50.41346,-50.413464 z" />
    <text
       xml:space="preserve"
       style="font-weight:bold;font-size:52.9167px;line-height:1;font-family:'Myriad Pro';-inkscape-font-specification:'Myriad Pro Bold';letter-spacing:0px;display:inline;opacity:1;stroke-width:0.264583"
       x="76.101891"
       y="238.82437"
       id="text1066-8-8-7-6"><tspan
         sodipodi:role="line"
         id="tspan1064-8-9-7-4"
         x="76.101891"
         y="238.82437"
         style="font-style:normal;font-variant:normal;font-weight:bold;font-stretch:normal;font-size:52.9167px;font-family:Arial;-inkscape-font-specification:'Arial Bold';fill:#ffff00;fill-opacity:1;stroke-width:0.264583">3E</tspan></text>
  </g>
  <g
     inkscape:groupmode="layer"
     id="g1026"
     inkscape:label="Sup1"
     style="display:none">
    <path
       id="path1024"
       style="opacity:1;fill:#37474f;fill-opacity:1;stroke:none;stroke-width:0.264583px;stroke-linecap:butt;stroke-linejoin:miter;stroke-opacity:1"
       d="m 105.8261,25.611865 a 50.413552,50.413552 0 0 0 -50.413469,50.413464 50.413552,50.413552 0 0 0 0.978236,9.88311 c -1.382064,-0.1166 -3.378451,0.62343 -2.978113,6.09214 0.46721,6.38218 8.446958,11.975581 12.001852,14.165031 a 50.413552,50.413552 0 0 0 1.488282,1.89859 c -0.333214,1.90567 -0.524881,6.56202 4.092254,11.17916 5.998913,5.99891 18.697563,10.66292 18.697563,10.66292 v 12.81421 c 0,9.7836 -3.13675,10.00197 -3.13676,10.00197 0,0 -7.2203,1.93458 -31.523134,8.44651 -24.302836,6.51193 -25.709025,29.24266 -25.709025,29.24266 v 99.58824 h 75.864104 75.86359 v -99.58824 c 0,0 -1.40619,-22.73073 -25.70903,-29.24266 -24.30283,-6.51193 -31.52313,-8.44651 -31.52313,-8.44651 0,0 -3.13676,-0.21837 -3.13676,-10.00197 v -12.81421 c 0,0 12.69865,-4.66401 18.69756,-10.66292 3.75262,-3.75262 4.32857,-7.53843 4.23385,-9.84798 a 50.413552,50.413552 0 0 0 5.59449,-7.69049 c 3.89465,-2.751751 9.18538,-7.400101 9.56273,-12.554781 0.40489,-5.53091 -1.64191,-6.22464 -3.02514,-6.08749 a 50.413552,50.413552 0 0 0 0.49351,-7.03729 50.413552,50.413552 0 0 0 -50.41346,-50.413464 z" />
    <text
       xml:space="preserve"
       style="font-weight:bold;font-size:35.2778px;line-height:1;font-family:'Myriad Pro';-inkscape-font-specification:'Myriad Pro Bold';letter-spacing:0px;display:inline;opacity:1;stroke-width:0.264583"
       x="60.608017"
       y="238.77159"
       id="text1066-8-8-7-6-3"><tspan
         sodipodi:role="line"
         id="tspan1064-8-9-7-4-0"
         x="60.608017"
         y="238.77159"
         style="font-style:normal;font-variant:normal;font-weight:bold;font-stretch:normal;font-size:35.2778px;font-family:Arial;-inkscape-font-specification:'Arial Bold';fill:#ffff00;fill-opacity:1;stroke-width:0.264583">Sup 1</tspan></text>
  </g>
  <g
     inkscape:groupmode="layer"
     id="g1342"
     inkscape:label="Sup2"
     style="display:none">
    <path
       id="path1336"
       style="opacity:1;fill:#37474f;fill-opacity:1;stroke:none;stroke-width:0.264583px;stroke-linecap:butt;stroke-linejoin:miter;stroke-opacity:1"
       d="m 105.8261,25.611865 a 50.413552,50.413552 0 0 0 -50.413469,50.413464 50.413552,50.413552 0 0 0 0.978236,9.88311 c -1.382064,-0.1166 -3.378451,0.62343 -2.978113,6.09214 0.46721,6.38218 8.446958,11.975581 12.001852,14.165031 a 50.413552,50.413552 0 0 0 1.488282,1.89859 c -0.333214,1.90567 -0.524881,6.56202 4.092254,11.17916 5.998913,5.99891 18.697563,10.66292 18.697563,10.66292 v 12.81421 c 0,9.7836 -3.13675,10.00197 -3.13676,10.00197 0,0 -7.2203,1.93458 -31.523134,8.44651 -24.302836,6.51193 -25.709025,29.24266 -25.709025,29.24266 v 99.58824 h 75.864104 75.86359 v -99.58824 c 0,0 -1.40619,-22.73073 -25.70903,-29.24266 -24.30283,-6.51193 -31.52313,-8.44651 -31.52313,-8.44651 0,0 -3.13676,-0.21837 -3.13676,-10.00197 v -12.81421 c 0,0 12.69865,-4.66401 18.69756,-10.66292 3.75262,-3.75262 4.32857,-7.53843 4.23385,-9.84798 a 50.413552,50.413552 0 0 0 5.59449,-7.69049 c 3.89465,-2.751751 9.18538,-7.400101 9.56273,-12.554781 0.40489,-5.53091 -1.64191,-6.22464 -3.02514,-6.08749 a 50.413552,50.413552 0 0 0 0.49351,-7.03729 50.413552,50.413552 0 0 0 -50.41346,-50.413464 z" />
    <text
       xml:space="preserve"
       style="font-weight:bold;font-size:35.2778px;line-height:1;font-family:'Myriad Pro';-inkscape-font-specification:'Myriad Pro Bold';letter-spacing:0px;display:inline;opacity:1;stroke-width:0.264583"
       x="60.608017"
       y="238.77159"
       id="text1340"><tspan
         sodipodi:role="line"
         id="tspan1338"
         x="60.608017"
         y="238.77159"
         style="font-style:normal;font-variant:normal;font-weight:bold;font-stretch:normal;font-size:35.2778px;font-family:Arial;-inkscape-font-specification:'Arial Bold';fill:#ffff00;fill-opacity:1;stroke-width:0.264583">Sup 2</tspan></text>
  </g>
  <g
     inkscape:groupmode="layer"
     id="g1350"
     inkscape:label="Sup3"
     style="display:none">
    <path
       id="path1344"
       style="opacity:1;fill:#37474f;fill-opacity:1;stroke:none;stroke-width:0.264583px;stroke-linecap:butt;stroke-linejoin:miter;stroke-opacity:1"
       d="m 105.8261,25.611865 a 50.413552,50.413552 0 0 0 -50.413469,50.413464 50.413552,50.413552 0 0 0 0.978236,9.88311 c -1.382064,-0.1166 -3.378451,0.62343 -2.978113,6.09214 0.46721,6.38218 8.446958,11.975581 12.001852,14.165031 a 50.413552,50.413552 0 0 0 1.488282,1.89859 c -0.333214,1.90567 -0.524881,6.56202 4.092254,11.17916 5.998913,5.99891 18.697563,10.66292 18.697563,10.66292 v 12.81421 c 0,9.7836 -3.13675,10.00197 -3.13676,10.00197 0,0 -7.2203,1.93458 -31.523134,8.44651 -24.302836,6.51193 -25.709025,29.24266 -25.709025,29.24266 v 99.58824 h 75.864104 75.86359 v -99.58824 c 0,0 -1.40619,-22.73073 -25.70903,-29.24266 -24.30283,-6.51193 -31.52313,-8.44651 -31.52313,-8.44651 0,0 -3.13676,-0.21837 -3.13676,-10.00197 v -12.81421 c 0,0 12.69865,-4.66401 18.69756,-10.66292 3.75262,-3.75262 4.32857,-7.53843 4.23385,-9.84798 a 50.413552,50.413552 0 0 0 5.59449,-7.69049 c 3.89465,-2.751751 9.18538,-7.400101 9.56273,-12.554781 0.40489,-5.53091 -1.64191,-6.22464 -3.02514,-6.08749 a 50.413552,50.413552 0 0 0 0.49351,-7.03729 50.413552,50.413552 0 0 0 -50.41346,-50.413464 z" />
    <text
       xml:space="preserve"
       style="font-weight:bold;font-size:35.2778px;line-height:1;font-family:'Myriad Pro';-inkscape-font-specification:'Myriad Pro Bold';letter-spacing:0px;display:inline;opacity:1;stroke-width:0.264583"
       x="60.608017"
       y="238.77159"
       id="text1348"><tspan
         sodipodi:role="line"
         id="tspan1346"
         x="60.608017"
         y="238.77159"
         style="font-style:normal;font-variant:normal;font-weight:bold;font-stretch:normal;font-size:35.2778px;font-family:Arial;-inkscape-font-specification:'Arial Bold';fill:#ffff00;fill-opacity:1;stroke-width:0.264583">Sup 3</tspan></text>
  </g>
  <g
     inkscape:groupmode="layer"
     id="g1358"
     inkscape:label="Ciu1"
     style="display:none">
    <path
       id="path1352"
       style="opacity:1;fill:#546e7a;fill-opacity:1;stroke:none;stroke-width:0.264583px;stroke-linecap:butt;stroke-linejoin:miter;stroke-opacity:1"
       d="m 105.8261,25.611865 a 50.413552,50.413552 0 0 0 -50.413469,50.413464 50.413552,50.413552 0 0 0 0.978236,9.88311 c -1.382064,-0.1166 -3.378451,0.62343 -2.978113,6.09214 0.46721,6.38218 8.446958,11.975581 12.001852,14.165031 a 50.413552,50.413552 0 0 0 1.488282,1.89859 c -0.333214,1.90567 -0.524881,6.56202 4.092254,11.17916 5.998913,5.99891 18.697563,10.66292 18.697563,10.66292 v 12.81421 c 0,9.7836 -3.13675,10.00197 -3.13676,10.00197 0,0 -7.2203,1.93458 -31.523134,8.44651 -24.302836,6.51193 -25.709025,29.24266 -25.709025,29.24266 v 99.58824 h 75.864104 75.86359 v -99.58824 c 0,0 -1.40619,-22.73073 -25.70903,-29.24266 -24.30283,-6.51193 -31.52313,-8.44651 -31.52313,-8.44651 0,0 -3.13676,-0.21837 -3.13676,-10.00197 v -12.81421 c 0,0 12.69865,-4.66401 18.69756,-10.66292 3.75262,-3.75262 4.32857,-7.53843 4.23385,-9.84798 a 50.413552,50.413552 0 0 0 5.59449,-7.69049 c 3.89465,-2.751751 9.18538,-7.400101 9.56273,-12.554781 0.40489,-5.53091 -1.64191,-6.22464 -3.02514,-6.08749 a 50.413552,50.413552 0 0 0 0.49351,-7.03729 50.413552,50.413552 0 0 0 -50.41346,-50.413464 z" />
    <text
       xml:space="preserve"
       style="font-weight:bold;font-size:35.2778px;line-height:1;font-family:'Myriad Pro';-inkscape-font-specification:'Myriad Pro Bold';letter-spacing:0px;display:inline;opacity:1;stroke-width:0.264583"
       x="60.608017"
       y="238.77159"
       id="text1356"><tspan
         sodipodi:role="line"
         id="tspan1354"
         x="60.608017"
         y="238.77159"
         style="font-style:normal;font-variant:normal;font-weight:bold;font-stretch:normal;font-size:35.2778px;font-family:Arial;-inkscape-font-specification:'Arial Bold';fill:#ffff00;fill-opacity:1;stroke-width:0.264583">Ciu 1</tspan></text>
  </g>
  <g
     inkscape:groupmode="layer"
     id="g1366"
     inkscape:label="Ciu2"
     style="display:none">
    <path
       id="path1360"
       style="opacity:1;fill:#546e7a;fill-opacity:1;stroke:none;stroke-width:0.264583px;stroke-linecap:butt;stroke-linejoin:miter;stroke-opacity:1"
       d="m 105.8261,25.611865 a 50.413552,50.413552 0 0 0 -50.413469,50.413464 50.413552,50.413552 0 0 0 0.978236,9.88311 c -1.382064,-0.1166 -3.378451,0.62343 -2.978113,6.09214 0.46721,6.38218 8.446958,11.975581 12.001852,14.165031 a 50.413552,50.413552 0 0 0 1.488282,1.89859 c -0.333214,1.90567 -0.524881,6.56202 4.092254,11.17916 5.998913,5.99891 18.697563,10.66292 18.697563,10.66292 v 12.81421 c 0,9.7836 -3.13675,10.00197 -3.13676,10.00197 0,0 -7.2203,1.93458 -31.523134,8.44651 -24.302836,6.51193 -25.709025,29.24266 -25.709025,29.24266 v 99.58824 h 75.864104 75.86359 v -99.58824 c 0,0 -1.40619,-22.73073 -25.70903,-29.24266 -24.30283,-6.51193 -31.52313,-8.44651 -31.52313,-8.44651 0,0 -3.13676,-0.21837 -3.13676,-10.00197 v -12.81421 c 0,0 12.69865,-4.66401 18.69756,-10.66292 3.75262,-3.75262 4.32857,-7.53843 4.23385,-9.84798 a 50.413552,50.413552 0 0 0 5.59449,-7.69049 c 3.89465,-2.751751 9.18538,-7.400101 9.56273,-12.554781 0.40489,-5.53091 -1.64191,-6.22464 -3.02514,-6.08749 a 50.413552,50.413552 0 0 0 0.49351,-7.03729 50.413552,50.413552 0 0 0 -50.41346,-50.413464 z" />
    <text
       xml:space="preserve"
       style="font-weight:bold;font-size:35.2778px;line-height:1;font-family:'Myriad Pro';-inkscape-font-specification:'Myriad Pro Bold';letter-spacing:0px;display:inline;opacity:1;stroke-width:0.264583"
       x="60.608017"
       y="238.77159"
       id="text1364"><tspan
         sodipodi:role="line"
         id="tspan1362"
         x="60.608017"
         y="238.77159"
         style="font-style:normal;font-variant:normal;font-weight:bold;font-stretch:normal;font-size:35.2778px;font-family:Arial;-inkscape-font-specification:'Arial Bold';fill:#ffff00;fill-opacity:1;stroke-width:0.264583">Ciu 2</tspan></text>
  </g>
  <g
     inkscape:groupmode="layer"
     id="g1374"
     inkscape:label="Ciu3"
     style="display:none">
    <path
       id="path1368"
       style="opacity:1;fill:#546e7a;fill-opacity:1;stroke:none;stroke-width:0.264583px;stroke-linecap:butt;stroke-linejoin:miter;stroke-opacity:1"
       d="m 105.8261,25.611865 a 50.413552,50.413552 0 0 0 -50.413469,50.413464 50.413552,50.413552 0 0 0 0.978236,9.88311 c -1.382064,-0.1166 -3.378451,0.62343 -2.978113,6.09214 0.46721,6.38218 8.446958,11.975581 12.001852,14.165031 a 50.413552,50.413552 0 0 0 1.488282,1.89859 c -0.333214,1.90567 -0.524881,6.56202 4.092254,11.17916 5.998913,5.99891 18.697563,10.66292 18.697563,10.66292 v 12.81421 c 0,9.7836 -3.13675,10.00197 -3.13676,10.00197 0,0 -7.2203,1.93458 -31.523134,8.44651 -24.302836,6.51193 -25.709025,29.24266 -25.709025,29.24266 v 99.58824 h 75.864104 75.86359 v -99.58824 c 0,0 -1.40619,-22.73073 -25.70903,-29.24266 -24.30283,-6.51193 -31.52313,-8.44651 -31.52313,-8.44651 0,0 -3.13676,-0.21837 -3.13676,-10.00197 v -12.81421 c 0,0 12.69865,-4.66401 18.69756,-10.66292 3.75262,-3.75262 4.32857,-7.53843 4.23385,-9.84798 a 50.413552,50.413552 0 0 0 5.59449,-7.69049 c 3.89465,-2.751751 9.18538,-7.400101 9.56273,-12.554781 0.40489,-5.53091 -1.64191,-6.22464 -3.02514,-6.08749 a 50.413552,50.413552 0 0 0 0.49351,-7.03729 50.413552,50.413552 0 0 0 -50.41346,-50.413464 z" />
    <text
       xml:space="preserve"
       style="font-weight:bold;font-size:35.2778px;line-height:1;font-family:'Myriad Pro';-inkscape-font-specification:'Myriad Pro Bold';letter-spacing:0px;display:inline;opacity:1;stroke-width:0.264583"
       x="60.608017"
       y="238.77159"
       id="text1372"><tspan
         sodipodi:role="line"
         x="60.608017"
         y="238.77159"
         style="font-style:normal;font-variant:normal;font-weight:bold;font-stretch:normal;font-size:35.2778px;font-family:Arial;-inkscape-font-specification:'Arial Bold';fill:#ffff00;fill-opacity:1;stroke-width:0.264583"
         id="tspan1376">Ciu 3</tspan></text>
  </g>
  <g
     inkscape:groupmode="layer"
     id="g1386"
     inkscape:label="Ciu4"
     style="display:none">
    <path
       id="path1380"
       style="opacity:1;fill:#546e7a;fill-opacity:1;stroke:none;stroke-width:0.264583px;stroke-linecap:butt;stroke-linejoin:miter;stroke-opacity:1"
       d="m 105.8261,25.611865 a 50.413552,50.413552 0 0 0 -50.413469,50.413464 50.413552,50.413552 0 0 0 0.978236,9.88311 c -1.382064,-0.1166 -3.378451,0.62343 -2.978113,6.09214 0.46721,6.38218 8.446958,11.975581 12.001852,14.165031 a 50.413552,50.413552 0 0 0 1.488282,1.89859 c -0.333214,1.90567 -0.524881,6.56202 4.092254,11.17916 5.998913,5.99891 18.697563,10.66292 18.697563,10.66292 v 12.81421 c 0,9.7836 -3.13675,10.00197 -3.13676,10.00197 0,0 -7.2203,1.93458 -31.523134,8.44651 -24.302836,6.51193 -25.709025,29.24266 -25.709025,29.24266 v 99.58824 h 75.864104 75.86359 v -99.58824 c 0,0 -1.40619,-22.73073 -25.70903,-29.24266 -24.30283,-6.51193 -31.52313,-8.44651 -31.52313,-8.44651 0,0 -3.13676,-0.21837 -3.13676,-10.00197 v -12.81421 c 0,0 12.69865,-4.66401 18.69756,-10.66292 3.75262,-3.75262 4.32857,-7.53843 4.23385,-9.84798 a 50.413552,50.413552 0 0 0 5.59449,-7.69049 c 3.89465,-2.751751 9.18538,-7.400101 9.56273,-12.554781 0.40489,-5.53091 -1.64191,-6.22464 -3.02514,-6.08749 a 50.413552,50.413552 0 0 0 0.49351,-7.03729 50.413552,50.413552 0 0 0 -50.41346,-50.413464 z" />
    <text
       xml:space="preserve"
       style="font-weight:bold;font-size:35.2778px;line-height:1;font-family:'Myriad Pro';-inkscape-font-specification:'Myriad Pro Bold';letter-spacing:0px;display:inline;opacity:1;stroke-width:0.264583"
       x="60.608017"
       y="238.77159"
       id="text1384"><tspan
         sodipodi:role="line"
         x="60.608017"
         y="238.77159"
         style="font-style:normal;font-variant:normal;font-weight:bold;font-stretch:normal;font-size:35.2778px;font-family:Arial;-inkscape-font-specification:'Arial Bold';fill:#ffff00;fill-opacity:1;stroke-width:0.264583"
         id="tspan1382">Ciu 4</tspan></text>
  </g>
  <g
     inkscape:groupmode="layer"
     id="g1395"
     inkscape:label="Ciu5"
     style="display:none">
    <path
       id="path1389"
       style="opacity:1;fill:#546e7a;fill-opacity:1;stroke:none;stroke-width:0.264583px;stroke-linecap:butt;stroke-linejoin:miter;stroke-opacity:1"
       d="m 105.8261,25.611865 a 50.413552,50.413552 0 0 0 -50.413469,50.413464 50.413552,50.413552 0 0 0 0.978236,9.88311 c -1.382064,-0.1166 -3.378451,0.62343 -2.978113,6.09214 0.46721,6.38218 8.446958,11.975581 12.001852,14.165031 a 50.413552,50.413552 0 0 0 1.488282,1.89859 c -0.333214,1.90567 -0.524881,6.56202 4.092254,11.17916 5.998913,5.99891 18.697563,10.66292 18.697563,10.66292 v 12.81421 c 0,9.7836 -3.13675,10.00197 -3.13676,10.00197 0,0 -7.2203,1.93458 -31.523134,8.44651 -24.302836,6.51193 -25.709025,29.24266 -25.709025,29.24266 v 99.58824 h 75.864104 75.86359 v -99.58824 c 0,0 -1.40619,-22.73073 -25.70903,-29.24266 -24.30283,-6.51193 -31.52313,-8.44651 -31.52313,-8.44651 0,0 -3.13676,-0.21837 -3.13676,-10.00197 v -12.81421 c 0,0 12.69865,-4.66401 18.69756,-10.66292 3.75262,-3.75262 4.32857,-7.53843 4.23385,-9.84798 a 50.413552,50.413552 0 0 0 5.59449,-7.69049 c 3.89465,-2.751751 9.18538,-7.400101 9.56273,-12.554781 0.40489,-5.53091 -1.64191,-6.22464 -3.02514,-6.08749 a 50.413552,50.413552 0 0 0 0.49351,-7.03729 50.413552,50.413552 0 0 0 -50.41346,-50.413464 z" />
    <text
       xml:space="preserve"
       style="font-weight:bold;font-size:35.2778px;line-height:1;font-family:'Myriad Pro';-inkscape-font-specification:'Myriad Pro Bold';letter-spacing:0px;display:inline;opacity:1;stroke-width:0.264583"
       x="60.608017"
       y="238.77159"
       id="text1393"><tspan
         sodipodi:role="line"
         x="60.608017"
         y="238.77159"
         style="font-style:normal;font-variant:normal;font-weight:bold;font-stretch:normal;font-size:35.2778px;font-family:Arial;-inkscape-font-specification:'Arial Bold';fill:#ffff00;fill-opacity:1;stroke-width:0.264583"
         id="tspan1391">Ciu 5</tspan></text>
  </g>
  <g
     inkscape:groupmode="layer"
     id="g1403"
     inkscape:label="Ciu6"
     style="display:inline">
    <path
       id="path1397"
       style="opacity:1;fill:#546e7a;fill-opacity:1;stroke:none;stroke-width:0.264583px;stroke-linecap:butt;stroke-linejoin:miter;stroke-opacity:1"
       d="m 105.8261,25.611865 a 50.413552,50.413552 0 0 0 -50.413469,50.413464 50.413552,50.413552 0 0 0 0.978236,9.88311 c -1.382064,-0.1166 -3.378451,0.62343 -2.978113,6.09214 0.46721,6.38218 8.446958,11.975581 12.001852,14.165031 a 50.413552,50.413552 0 0 0 1.488282,1.89859 c -0.333214,1.90567 -0.524881,6.56202 4.092254,11.17916 5.998913,5.99891 18.697563,10.66292 18.697563,10.66292 v 12.81421 c 0,9.7836 -3.13675,10.00197 -3.13676,10.00197 0,0 -7.2203,1.93458 -31.523134,8.44651 -24.302836,6.51193 -25.709025,29.24266 -25.709025,29.24266 v 99.58824 h 75.864104 75.86359 v -99.58824 c 0,0 -1.40619,-22.73073 -25.70903,-29.24266 -24.30283,-6.51193 -31.52313,-8.44651 -31.52313,-8.44651 0,0 -3.13676,-0.21837 -3.13676,-10.00197 v -12.81421 c 0,0 12.69865,-4.66401 18.69756,-10.66292 3.75262,-3.75262 4.32857,-7.53843 4.23385,-9.84798 a 50.413552,50.413552 0 0 0 5.59449,-7.69049 c 3.89465,-2.751751 9.18538,-7.400101 9.56273,-12.554781 0.40489,-5.53091 -1.64191,-6.22464 -3.02514,-6.08749 a 50.413552,50.413552 0 0 0 0.49351,-7.03729 50.413552,50.413552 0 0 0 -50.41346,-50.413464 z" />
    <text
       xml:space="preserve"
       style="font-weight:bold;font-size:42.3333px;line-height:1;font-family:'Myriad Pro';-inkscape-font-specification:'Myriad Pro Bold';letter-spacing:0px;display:inline;opacity:1;stroke-width:0.264583"
       x="95.925247"
       y="259.41946"
       id="text1401"><tspan
         sodipodi:role="line"
         x="95.925247"
         y="259.41946"
         style="font-style:normal;font-variant:normal;font-weight:bold;font-stretch:normal;font-size:42.3333px;font-family:Arial;-inkscape-font-specification:'Arial Bold';fill:#ffff00;fill-opacity:1;stroke-width:0.264583"
         id="tspan1399">6</tspan></text>
    <text
       xml:space="preserve"
       style="font-weight:bold;font-size:31.75px;line-height:1;font-family:'Myriad Pro';-inkscape-font-specification:'Myriad Pro Bold';letter-spacing:0px;display:inline;opacity:1;stroke-width:0.264583"
       x="40.543518"
       y="206.26897"
       id="text1401-3"><tspan
         sodipodi:role="line"
         x="40.543518"
         y="206.26897"
         style="font-style:normal;font-variant:normal;font-weight:bold;font-stretch:normal;font-size:31.75px;font-family:Arial;-inkscape-font-specification:'Arial Bold';fill:#ffff00;fill-opacity:1;stroke-width:0.264583"
         id="tspan1399-6">C. de fila</tspan></text>
  </g>
</svg>
