<?xml version="1.0" encoding="UTF-8" standalone="no"?>
<svg
   xmlns:dc="http://purl.org/dc/elements/1.1/"
   xmlns:cc="http://creativecommons.org/ns#"
   xmlns:rdf="http://www.w3.org/1999/02/22-rdf-syntax-ns#"
   xmlns:svg="http://www.w3.org/2000/svg"
   xmlns="http://www.w3.org/2000/svg"
   xmlns:sodipodi="http://sodipodi.sourceforge.net/DTD/sodipodi-0.dtd"
   xmlns:inkscape="http://www.inkscape.org/namespaces/inkscape"
   width="21cm"
   height="21.700001cm"
   viewBox="0 0 210 217"
   version="1.1"
   id="svg8"
   inkscape:version="1.0.2 (e86c870879, 2021-01-15)"
   sodipodi:docname="iconocovid.svg">
  <defs
     id="defs2" />
  <sodipodi:namedview
     id="base"
     pagecolor="#ffffff"
     bordercolor="#666666"
     borderopacity="1.0"
     inkscape:pageopacity="0.0"
     inkscape:pageshadow="2"
     inkscape:zoom="0.35"
     inkscape:cx="400"
     inkscape:cy="560"
     inkscape:document-units="mm"
     inkscape:current-layer="layer1"
     inkscape:document-rotation="0"
     showgrid="false"
     units="cm"
     inkscape:window-width="960"
     inkscape:window-height="1016"
     inkscape:window-x="960"
     inkscape:window-y="27"
     inkscape:window-maximized="0" />
  <metadata
     id="metadata5">
    <rdf:RDF>
      <cc:Work
         rdf:about="">
        <dc:format>image/svg+xml</dc:format>
        <dc:type
           rdf:resource="http://purl.org/dc/dcmitype/StillImage" />
        <dc:title></dc:title>
      </cc:Work>
    </rdf:RDF>
  </metadata>
  <g
     inkscape:label="Layer 1"
     inkscape:groupmode="layer"
     id="layer1">
    <path
       style="fill:#000000;stroke-width:0.416067"
       d="m 117.17123,205.34322 c -4.6075,-2.41368 -4.98271,-7.54514 -0.7647,-10.45861 l 1.57405,-1.08725 0.0157,-4.30334 c 0.0157,-4.27193 -0.96116,-10.46903 -2.20838,-14.01 -0.4322,-1.22705 -0.78671,-1.62832 -1.36425,-1.5442 -0.42916,0.0625 -3.43947,0.23012 -6.68958,0.37244 l -5.90929,0.25876 -0.48112,1.29183 c -0.26462,0.71051 -0.57873,3.20805 -0.69801,5.55008 l -0.21689,4.25822 1.51049,1.67191 c 3.70124,4.09683 0.32695,8.83616 -5.838082,8.19989 -5.020433,-0.51816 -8.075612,-4.51653 -6.209095,-8.12598 0.580578,-1.12273 1.485786,-1.7539 3.622187,-2.52567 0.927841,-0.33518 1.216966,-0.8789 1.940415,-3.64917 0.467564,-1.79042 0.967354,-4.11799 1.110668,-5.17238 l 0.26055,-1.91708 -2.279217,-0.26787 c -1.253562,-0.14734 -4.490756,-0.83856 -7.193758,-1.53606 l -4.91453,-1.26817 -0.954697,1.16476 c -2.556095,3.11852 -5.105522,8.73888 -6.032996,13.30007 l -0.578121,2.84309 1.390642,1.82826 c 1.979565,2.60254 2.467461,4.69156 1.616267,6.92038 -0.784405,2.05392 -1.557157,2.83876 -3.660275,3.71749 -4.678798,1.95494 -11.79018,-0.74469 -14.003024,-5.31582 -2.33931,-4.83237 0.369445,-9.1484 5.995606,-9.55318 l 2.080333,-0.14967 2.100575,-4.1691 c 1.98839,-3.94645 3.584051,-8.71772 4.152773,-12.41742 0.253384,-1.64835 0.236646,-1.67423 -1.748691,-2.70443 -1.102484,-0.57208 -2.920925,-1.65365 -4.040971,-2.40346 -1.120052,-0.74981 -2.077703,-1.3115 -2.128114,-1.24821 -1.980057,2.48629 -3.222619,4.5009 -3.91128,6.34151 -0.86066,2.30032 -0.860692,2.30361 -0.03678,3.65488 0.45355,0.74388 0.825334,2.01296 0.826187,2.82018 0.0049,4.59597 -5.867462,5.46284 -9.872873,1.45741 -1.58375,-1.58371 -1.775457,-1.98554 -1.775457,-3.72138 0,-1.51132 0.2281,-2.17406 1.021257,-2.9672 0.995281,-0.99529 1.437523,-1.11729 4.32436,-1.19283 1.252443,-0.0329 1.55524,-0.30389 3.001258,-2.68712 0.884552,-1.45787 1.913993,-3.45118 2.28765,-4.42958 l 0.679375,-1.77892 -4.489063,-4.40822 -4.489059,-4.40822 -3.027011,1.49568 c -1.69074,0.83542 -4.234449,2.60208 -5.762177,4.00194 -2.707494,2.48096 -2.732516,2.52395 -2.473336,4.25228 0.345847,2.30628 -0.600571,4.5381 -2.386029,5.62666 -1.655616,1.0094 -2.76881,1.05479 -4.823169,0.19662 -5.598758,-2.33874 -7.67895,-10.13003 -3.461673,-12.9656 1.789722,-1.20335 3.153435,-1.19995 5.550953,0.0138 l 1.904889,0.96438 2.515309,-1.48447 c 2.716907,-1.60342 8.378267,-6.1532 8.378267,-6.73321 0,-0.1956 -0.591461,-1.31687 -1.314351,-2.49173 l -1.314354,-2.13609 -2.165011,0.25444 c -5.487218,0.64493 -14.313459,4.09867 -19.957691,7.80953 l -2.708988,1.78107 -0.0092,2.30413 c -0.01856,4.6846 -2.536038,7.69255 -6.421301,7.67241 -5.243264,-0.0272 -9.7283372,-5.29513 -10.1240237,-11.89116 -0.1614419,-2.69119 -0.04776,-3.49156 0.7217381,-5.08113 1.1577142,-2.39151 3.0209236,-3.58241 5.6048446,-3.58241 2.271779,0 4.036817,0.79318 6.067213,2.72649 l 1.456234,1.38661 4.160665,-1.57847 c 2.288367,-0.86815 5.752122,-2.37861 7.697232,-3.35657 4.472151,-2.24851 11.234714,-6.60204 11.230897,-7.23012 -0.0016,-0.26251 -0.455184,-1.80983 -1.007975,-3.4385 -0.55279,-1.62865 -1.330806,-4.47699 -1.728918,-6.32965 l -0.723848,-3.36847 -1.86699,-0.27996 c -2.43704,-0.36547 -9.743036,0.0307 -12.202023,0.66166 -1.654855,0.42462 -2.035715,0.72933 -2.670207,2.13638 -0.967967,2.14657 -3.506301,4.40734 -5.333292,4.75007 -2.98675,0.56031 -5.877551,-1.15068 -7.656087,-4.53146 -0.9756423,-1.8546 -1.1252266,-2.61971 -1.1104476,-5.67987 0.014561,-3.01452 0.1839289,-3.85873 1.1473666,-5.71901 1.877957,-3.62611 5.422469,-5.32919 8.454597,-4.06229 2.113626,0.88314 3.355511,2.0912 4.538513,4.41493 l 0.974815,1.91479 3.710148,0.28008 c 3.395105,0.2563 6.406511,0.13367 9.964367,-0.40578 l 1.352217,-0.20503 0.0084,-4.86992 c 0.0077,-4.47137 0.272572,-7.41124 1.023253,-11.356431 l 0.284215,-1.493688 -2.922415,-0.482629 c -1.607307,-0.265441 -4.231126,-0.482623 -5.830691,-0.482623 -2.512085,0 -2.943172,0.109872 -3.164274,0.806506 -0.140787,0.443581 -0.908838,1.379732 -1.706784,2.080337 -1.130876,0.992921 -1.840066,1.273822 -3.216049,1.273822 -2.207925,0 -3.485294,-0.875276 -4.482686,-3.071612 -2.529318,-5.569759 1.438015,-13.089077 6.413552,-12.15566 1.785088,0.334887 3.463846,2.178209 3.847829,4.225027 0.150154,0.800396 0.589383,1.624582 0.976062,1.831525 0.812967,0.435085 6.949458,1.589337 9.386327,1.765538 l 1.656828,0.119823 1.280844,-3.534457 c 0.704468,-1.943951 1.676478,-4.415316 2.160031,-5.491917 l 0.879181,-1.957461 -3.83593,-3.659439 C 37.840685,73.118604 33.782974,70.24771 28.603066,67.64082 25.130578,65.893219 25.10601,65.887872 24.026333,66.644715 c -2.827343,1.981941 -6.876262,2.135911 -9.467983,0.360034 -4.424896,-3.03199 -4.411625,-10.471436 0.02675,-14.985573 4.089714,-4.159544 9.448474,-4.629534 12.788806,-1.121638 1.833777,1.925765 2.598769,4.778891 2.057774,7.674702 l -0.356743,1.909567 3.398257,2.653552 c 4.122532,3.219107 8.81087,6.160698 13.863121,8.698089 l 3.779836,1.898347 1.763207,-2.377207 c 0.969765,-1.307465 2.219503,-2.871603 2.777191,-3.475865 0.996435,-1.079648 1.001531,-1.122848 0.294484,-2.4964 -0.395725,-0.768758 -1.907762,-2.565183 -3.360079,-3.99206 l -2.640583,-2.594316 -2.462541,0.257387 c -2.258588,0.236068 -2.55031,0.169613 -3.522323,-0.802401 -1.533278,-1.533276 -1.765143,-2.968774 -0.838712,-5.19255 2.215842,-5.318845 9.878495,-6.45878 10.789065,-1.605029 0.157348,0.838727 0.01349,1.954222 -0.370591,2.873429 -0.607382,1.453679 -0.589587,1.555216 0.54781,3.125345 0.646571,0.892565 2.145252,2.592514 3.330397,3.777658 l 2.154809,2.154814 2.088787,-1.780345 c 2.35059,-2.003485 6.485285,-5.20377 7.389223,-5.719315 1.372758,-0.782925 -1.571635,-8.864734 -4.741936,-13.015741 -1.195772,-1.56567 -1.763045,-1.976316 -2.730122,-1.976316 -1.840183,0 -4.481217,-1.20596 -5.342918,-2.439711 -1.099756,-1.574577 -1.343288,-2.994397 -0.834768,-4.866801 1.000945,-3.685541 4.380204,-6.126497 8.481538,-6.126497 2.907808,0 4.87084,1.196343 5.808557,3.539914 0.83401,2.084403 0.596859,3.812136 -0.807278,5.881237 l -1.00483,1.480708 2.001573,4.074025 c 1.696128,3.452354 5.474463,9.274857 6.018616,9.274857 0.09093,0 1.542349,-0.591492 3.225377,-1.314433 1.683027,-0.722936 4.370658,-1.736483 5.972515,-2.252327 3.371185,-1.085617 3.304365,-0.821303 1.595571,-6.311694 -1.055062,-3.389931 -1.086984,-3.434712 -2.77261,-3.888598 -2.238909,-0.602875 -4.697099,-3.062098 -5.075147,-5.07729 -0.398896,-2.126293 1.111421,-5.099189 3.394078,-6.680899 2.461272,-1.705465 6.377588,-2.004417 9.085507,-0.693535 4.465352,2.161639 5.010958,7.021192 1.168086,10.403819 l -1.858786,1.636167 0.674116,4.256184 c 0.370761,2.340907 0.728781,4.310858 0.795598,4.377674 0.06682,0.06682 1.326154,-0.07061 2.798534,-0.305376 1.472378,-0.234775 3.282565,-0.520263 4.022643,-0.634419 1.263226,-0.194855 1.401708,-0.391111 2.262571,-3.206434 1.07699,-3.522231 1.27685,-10.313232 0.41272,-14.024635 -0.50468,-2.167544 -0.641871,-2.339711 -2.598552,-3.260803 -6.486381,-3.053418 -5.090252,-11.017995 2.281102,-13.013079 0.93799,-0.253877 2.83727,-0.371727 4.22064,-0.261905 8.99959,0.714487 11.81265,9.680549 4.205,13.402614 l -2.26764,1.109467 -0.28097,3.612268 c -0.38949,5.007698 0.93151,14.906103 2.04101,15.293415 0.24444,0.08534 2.31676,0.432523 4.60513,0.77153 2.28836,0.339006 4.74442,0.736778 5.45787,0.883941 1.1883,0.245097 1.33888,0.150566 1.79302,-1.125659 0.27266,-0.766275 0.60478,-3.012913 0.73801,-4.992538 l 0.24223,-3.599315 -1.67645,-1.643248 c -2.04687,-2.006334 -2.50335,-3.677719 -1.55198,-5.682557 1.86466,-3.929487 8.66523,-4.0045 11.0327,-0.121697 0.44671,0.732613 0.8129,1.771196 0.81374,2.307982 0.002,1.538374 -1.30215,3.352153 -2.97262,4.132818 -1.76061,0.822776 -1.8812,1.171838 -2.27628,6.589366 -0.38949,5.340843 -0.2336,5.741758 2.6505,6.816907 1.31557,0.490414 3.86632,1.628007 5.66833,2.527978 l 3.27641,1.636311 1.39873,-0.864453 c 2.10726,-1.302359 5.01296,-4.82611 6.62699,-8.036584 1.68133,-3.344331 1.70444,-3.546952 0.60945,-5.342907 -1.57746,-2.587292 -0.77458,-6.407136 1.53907,-7.322309 2.19476,-0.86813 3.24707,-0.93468 5.23923,-0.331281 5.5456,1.679668 8.35513,7.360076 5.32064,10.757467 -1.12308,1.257396 -1.42058,1.364046 -3.98687,1.429301 -3.28962,0.08366 -3.66802,0.35585 -6.24713,4.493861 -1.73185,2.778648 -3.97402,7.962522 -3.92361,9.071301 0.0128,0.28082 1.0282,1.303533 2.25648,2.272698 l 2.23327,1.762108 1.34303,-2.178176 c 1.35818,-2.202752 1.4467,-2.752597 0.98774,-6.135501 -0.31704,-2.3368 0.78308,-3.987978 2.92474,-4.389756 4.05727,-0.761149 8.08289,3.260049 7.11685,7.109051 -0.36485,1.453658 -2.57204,2.743369 -4.48394,2.620059 -1.34481,-0.08673 -1.70081,0.106689 -2.84898,1.547793 -2.72674,3.422468 -2.72717,3.396913 0.11423,6.656317 1.38852,1.592718 2.85154,2.953158 3.25115,3.023193 0.39962,0.07004 1.9064,-0.369241 3.34839,-0.976171 4.7793,-2.011582 9.60156,-5.530248 12.83598,-9.366079 l 1.71252,-2.030943 -0.49383,-2.680046 c -1.69961,-9.224106 7.06501,-13.138577 14.40255,-6.432486 4.99793,4.567837 6.16603,11.534623 2.54166,15.158995 -2.49834,2.498343 -6.05987,2.738721 -9.93046,0.670239 l -1.98359,-1.060054 -3.62627,2.462473 c -3.89649,2.645946 -8.81201,7.296065 -11.62199,10.994459 l -1.74066,2.290988 1.66862,3.501688 c 1.71211,3.592972 4.10106,10.245869 4.10106,11.420891 0,0.363013 0.48719,0.781095 1.08508,0.931153 1.58303,0.397318 7.02062,-0.07113 10.1979,-0.878541 2.64581,-0.67236 2.77277,-0.763645 3.24243,-2.331259 0.60176,-2.008558 2.88267,-4.363722 4.58905,-4.738512 4.21733,-0.926281 8.34593,3.708676 8.34593,9.369529 0,4.745549 -3.67951,8.802999 -7.35734,8.113029 -1.59435,-0.29909 -4.04937,-2.2887 -4.93331,-3.998069 -0.32906,-0.636316 -0.96128,-1.27216 -1.40494,-1.412969 -0.94149,-0.298824 -8.6263,0.429776 -10.85072,1.028752 l -1.52449,0.4105 0.38739,2.811436 c 0.21305,1.54631 0.30455,5.69266 0.2033,9.21412 l -0.18408,6.40265 3.78265,1.7851 c 3.79808,1.79241 8.5485,3.19156 12.63305,3.72088 2.09318,0.27126 2.26648,0.21817 3.79424,-1.16207 1.96593,-1.77609 4.1525,-2.54002 6.50976,-2.27431 7.12136,0.80268 9.63172,10.51821 4.0794,15.78793 -3.51979,3.34065 -8.89285,3.11878 -11.93169,-0.49268 -1.0298,-1.22385 -1.93337,-3.58819 -1.9383,-5.0719 -0.003,-1.20031 -10.10018,-4.61865 -16.26435,-5.50672 l -1.90774,-0.27486 -1.6661,4.90398 c -0.91636,2.69721 -1.80499,5.21917 -1.97474,5.60437 -0.39367,0.89332 2.78962,2.78454 6.92525,4.11431 l 2.87476,0.92437 1.58923,-0.8932 c 6.3112,-3.5471 11.5134,3.94076 6.52191,9.38741 -1.12104,1.22326 -1.71121,1.51079 -3.44261,1.67715 -3.51045,0.33732 -5.97206,-1.65587 -5.97206,-4.83565 0,-1.71365 -2.13813,-3.17245 -7.74046,-5.28116 l -2.63453,-0.99164 -1.63798,2.79986 c -0.90087,1.53991 -2.58273,4.09383 -3.73746,5.67535 l -2.0995,2.8755 1.74479,2.48738 c 2.0712,2.9527 6.05454,6.64457 9.27511,8.59645 l 2.31835,1.40506 1.94379,-0.69665 c 3.98452,-1.42805 8.02726,-0.59924 9.616,1.97139 2.69299,4.35738 0.39475,10.95369 -5.02911,14.43417 -1.86189,1.19477 -2.6431,1.43149 -5.12438,1.55277 -2.52554,0.12349 -3.12175,0.0105 -4.34153,-0.82852 -2.79076,-1.91777 -3.74228,-5.85169 -2.29204,-9.47618 l 0.66272,-1.65627 -1.78454,-2.11634 c -1.97526,-2.34255 -5.92635,-5.69319 -9.70718,-8.23198 l -2.46909,-1.65797 -3.65846,2.97025 c -2.01218,1.63363 -3.66274,3.27273 -3.66792,3.64245 -0.016,1.14068 2.78375,6.276 4.78231,8.77173 l 1.89851,2.37081 1.99892,-0.23673 c 5.16434,-0.61165 8.09988,4.15267 5.19562,8.43233 -3.16222,4.65979 -9.18384,6.00456 -12.41568,2.77272 -1.02435,-1.02435 -1.12181,-1.37156 -0.97084,-3.45871 0.11144,-1.54174 0.48619,-2.76717 1.11685,-3.65286 l 0.94905,-1.33282 -1.53837,-2.80063 c -1.57481,-2.86697 -5.42053,-8.00148 -5.99307,-8.00148 -0.17537,0 -2.26558,0.91634 -4.64491,2.03629 -2.37933,1.11996 -5.12597,2.27423 -6.10365,2.56505 -2.29129,0.68156 -2.39047,1.06626 -2.35351,9.12885 0.0267,5.83668 0.1358,6.77078 1.14837,9.83754 0.91847,2.78177 1.29856,3.4336 2.12272,3.64045 1.36599,0.34284 3.45374,2.15978 4.24919,3.69802 0.41996,0.8121 0.57729,1.84463 0.43863,2.87847 -0.72398,5.39765 -8.74939,8.41399 -14.4463,5.42961 z m -8.71612,-57.20916 c 2.72752,-1.37791 3.84617,-3.27027 3.64392,-6.1642 -0.19064,-2.72772 -1.30609,-4.54522 -3.39905,-5.53839 -5.89799,-2.79878 -11.868833,3.15635 -8.917619,8.89413 1.035739,2.01366 3.692639,3.74461 5.747789,3.74461 0.58953,0 1.90577,-0.42128 2.92496,-0.93615 z m -0.14307,-17.35008 c 0.72913,-0.44457 1.54517,-1.21847 1.81345,-1.71977 0.57325,-1.07109 3.86277,-48.251283 3.48666,-50.007186 -0.13598,-0.634784 -0.72299,-1.719565 -1.30448,-2.410626 -3.38861,-4.027135 -10.80415,-3.822267 -13.657848,0.377313 -1.351699,1.989207 -1.343978,2.379926 0.579085,29.299729 1.430183,20.02016 1.642623,22.05194 2.414553,23.09171 1.67339,2.25402 4.32438,2.79819 6.66858,1.36883 z"
       id="path847" />
  </g>
</svg>
