<?xml version="1.0" encoding="UTF-8" standalone="no"?>
<svg
   xmlns:dc="http://purl.org/dc/elements/1.1/"
   xmlns:cc="http://creativecommons.org/ns#"
   xmlns:rdf="http://www.w3.org/1999/02/22-rdf-syntax-ns#"
   xmlns:svg="http://www.w3.org/2000/svg"
   xmlns="http://www.w3.org/2000/svg"
   xmlns:sodipodi="http://sodipodi.sourceforge.net/DTD/sodipodi-0.dtd"
   xmlns:inkscape="http://www.inkscape.org/namespaces/inkscape"
   version="1.1"
   id="svg833"
   width="200"
   height="200"
   viewBox="0 0 200 200"
   sodipodi:docname="legislacion1.svg"
   inkscape:version="1.0.1 (3bc2e813f5, 2020-09-07)">
  <metadata
     id="metadata839">
    <rdf:RDF>
      <cc:Work
         rdf:about="">
        <dc:format>image/svg+xml</dc:format>
        <dc:type
           rdf:resource="http://purl.org/dc/dcmitype/StillImage" />
        <dc:title></dc:title>
      </cc:Work>
    </rdf:RDF>
  </metadata>
  <defs
     id="defs837" />
  <sodipodi:namedview
     pagecolor="#ffffff"
     bordercolor="#666666"
     borderopacity="1"
     objecttolerance="10"
     gridtolerance="10"
     guidetolerance="10"
     inkscape:pageopacity="0"
     inkscape:pageshadow="2"
     inkscape:window-width="1366"
     inkscape:window-height="705"
     id="namedview835"
     showgrid="false"
     inkscape:zoom="1"
     inkscape:cx="132.15824"
     inkscape:cy="114.7314"
     inkscape:window-x="-8"
     inkscape:window-y="-8"
     inkscape:window-maximized="1"
     inkscape:current-layer="g841" />
  <g
     inkscape:groupmode="layer"
     inkscape:label="Image"
     id="g841">
    <path
       id="path845"
       style="fill:#000000;stroke-width:0.751101"
       d="M 42.001953 38.318359 C 39.778588 38.371891 39.186195 38.75326 38.242188 39.697266 L 36.634766 41.306641 L 36.634766 89.232422 C 36.634766 128.47866 36.818952 137.41352 37.65625 138.55859 C 38.49562 139.7065 40.482139 140.12365 48.744141 140.89258 C 54.279593 141.40777 61.676702 142.55035 65.183594 143.43164 C 73.323159 145.47715 85.299454 151.31596 91.089844 156.0625 L 95.595703 159.75781 L 95.779297 114.61719 L 92.011719 118.34766 C 91.95142 118.40104 83.86207 119.25848 74.03125 120.25586 C 64.19863 121.25337 55.713671 122.15732 55.175781 122.26367 C 54.417681 122.41357 54.242548 122.23808 54.398438 121.48242 C 54.509177 120.94616 55.480721 112.40111 56.556641 102.49414 L 58.511719 84.482422 L 88.521484 54.800781 C 88.371615 54.650118 88.228224 54.491981 88.078125 54.34375 C 78.503183 44.88796 64.633083 39.386251 48.195312 38.525391 C 45.257449 38.371533 43.335972 38.286241 42.001953 38.318359 z M 165.07227 46.001953 L 154.57617 56.396484 L 154.58203 56.402344 L 126.95312 83.806641 C 119.35492 91.342751 112.41568 98.190434 107.35742 103.15234 L 105.73633 104.75586 L 105.73633 112.05273 L 105.73633 159.97461 L 110.42969 156.16406 C 116.41637 151.30493 128.32542 145.49255 136.53125 143.42578 C 140.04265 142.54138 147.2145 141.42653 152.46875 140.94727 C 159.52247 140.30388 162.42047 139.73462 163.54688 138.76953 C 165.05073 137.48107 165.07227 136.77815 165.07227 89.384766 L 165.07227 46.001953 z M 23.150391 59.332031 C 20.067195 59.332031 19.215622 59.655342 17.912109 61.3125 C 16.372741 63.269523 16.355469 63.845837 16.355469 113.17188 L 16.355469 163.05273 L 18.197266 164.89648 C 20.417552 167.11677 21.369985 167.14547 31.431641 165.29688 C 44.76073 162.84797 59.225892 161.97743 70.203125 162.96289 C 75.49347 163.43782 81.30472 164.15434 83.115234 164.55664 C 84.925749 164.95897 86.549527 165.14578 86.724609 164.9707 C 86.899698 164.79561 84.556339 162.98947 81.517578 160.95703 C 72.141768 154.6861 60.73074 151.2464 46.773438 150.48438 C 37.442258 149.97491 32.647035 147.99687 29.408203 143.32422 L 27.246094 140.20508 L 27.039062 99.769531 L 26.832031 59.332031 L 23.150391 59.332031 z M 174.83789 59.332031 L 174.83789 98.716797 C 174.83789 124.66118 174.5642 138.82195 174.03906 140.21484 C 172.90549 143.22155 168.95955 147.15942 165.44727 148.78906 C 163.61402 149.63965 160.68738 150.19574 157.9375 150.21484 C 149.35501 150.27459 138.85057 152.27467 130.29297 155.48047 C 126.06032 157.06609 114.34179 164.33007 114.98242 164.9707 C 115.15751 165.14578 116.86816 164.93698 118.7832 164.50781 C 131.07691 161.75273 153.0186 162.06398 169.58008 165.22656 C 179.57969 167.13608 181.31171 167.09455 183.50977 164.89648 L 185.35156 163.05273 L 185.35156 113.17188 C 185.35156 63.845837 185.33432 63.269523 183.79492 61.3125 C 182.48947 59.652885 181.64074 59.332031 178.53711 59.332031 L 174.83789 59.332031 z " />
    <path
       style="fill:#000000;stroke-width:0.412597"
       d="m 60.979143,115.27775 c 0.12278,-0.41953 1.47109,-7.04401 2.99623,-14.72108 l 2.77299,-13.958296 11.67585,11.67047 c 6.42173,6.418756 11.63657,11.707156 11.58855,11.752006 -0.048,0.0449 -6.30721,1.31752 -13.90931,2.82817 -7.6021,1.51064 -14.16526,2.84672 -14.58479,2.96906 -0.59128,0.17243 -0.71259,0.051 -0.53952,-0.54033 z m 23.1688,-22.837886 -11.54835,-11.55387 23.206757,-23.20677 23.20676,-23.20676 11.65496,11.65496 11.65495,11.65496 -23.10292,23.10567 c -12.70661,12.70813 -23.19763,23.105686 -23.31337,23.105686 -0.11575,0 -5.407197,-5.199246 -11.758787,-11.553876 z m 52.292587,-52.09448 -11.65327,-11.65867 5.88478,-5.87429 5.88478,-5.87428 11.65328,11.65865 11.65327,11.65867 -5.88478,5.87429 -5.88478,5.87428 z"
       id="path2673-6-2" />
  </g>
</svg>
