<?xml version="1.0" encoding="UTF-8" standalone="no"?>
<svg
   xmlns:dc="http://purl.org/dc/elements/1.1/"
   xmlns:cc="http://creativecommons.org/ns#"
   xmlns:rdf="http://www.w3.org/1999/02/22-rdf-syntax-ns#"
   xmlns:svg="http://www.w3.org/2000/svg"
   xmlns="http://www.w3.org/2000/svg"
   xmlns:sodipodi="http://sodipodi.sourceforge.net/DTD/sodipodi-0.dtd"
   xmlns:inkscape="http://www.inkscape.org/namespaces/inkscape"
   width="200"
   height="200"
   viewBox="0 0 52.916665 52.916668"
   version="1.1"
   id="svg8"
   inkscape:version="1.0.1 (3bc2e813f5, 2020-09-07)"
   sodipodi:docname="contar-bien1.svg"
   inkscape:export-filename="/home/elsahuaro/electoral/web/src/img/contar-bien.png"
   inkscape:export-xdpi="96"
   inkscape:export-ydpi="96">
  <defs
     id="defs2">
    <marker
       style="overflow:visible;"
       id="Arrow2Send"
       refX="0.0"
       refY="0.0"
       orient="auto"
       inkscape:stockid="Arrow2Send"
       inkscape:isstock="true">
      <path
         transform="scale(0.3) rotate(180) translate(-2.3,0)"
         d="M 8.7185878,4.0337352 L -2.2072895,0.016013256 L 8.7185884,-4.0017078 C 6.9730900,-1.6296469 6.9831476,1.6157441 8.7185878,4.0337352 z "
         style="fill-rule:evenodd;stroke-width:0.625;stroke-linejoin:round;stroke:#000000;stroke-opacity:1;fill:#000000;fill-opacity:1"
         id="path1131" />
    </marker>
    <marker
       style="overflow:visible;"
       id="marker1798"
       refX="0.0"
       refY="0.0"
       orient="auto"
       inkscape:stockid="Arrow1Send"
       inkscape:isstock="true">
      <path
         transform="scale(0.2) rotate(180) translate(6,0)"
         style="fill-rule:evenodd;stroke:#000000;stroke-width:1pt;stroke-opacity:1;fill:#000000;fill-opacity:1"
         d="M 0.0,0.0 L 5.0,-5.0 L -12.5,0.0 L 5.0,5.0 L 0.0,0.0 z "
         id="path1796" />
    </marker>
    <marker
       style="overflow:visible;"
       id="Arrow1Send"
       refX="0.0"
       refY="0.0"
       orient="auto"
       inkscape:stockid="Arrow1Send"
       inkscape:isstock="true">
      <path
         transform="scale(0.2) rotate(180) translate(6,0)"
         style="fill-rule:evenodd;stroke:#000000;stroke-width:1pt;stroke-opacity:1;fill:#000000;fill-opacity:1"
         d="M 0.0,0.0 L 5.0,-5.0 L -12.5,0.0 L 5.0,5.0 L 0.0,0.0 z "
         id="path1113" />
    </marker>
    <marker
       style="overflow:visible;"
       id="Arrow2Mend"
       refX="0.0"
       refY="0.0"
       orient="auto"
       inkscape:stockid="Arrow2Mend"
       inkscape:isstock="true">
      <path
         transform="scale(0.6) rotate(180) translate(0,0)"
         d="M 8.7185878,4.0337352 L -2.2072895,0.016013256 L 8.7185884,-4.0017078 C 6.9730900,-1.6296469 6.9831476,1.6157441 8.7185878,4.0337352 z "
         style="fill-rule:evenodd;stroke-width:0.625;stroke-linejoin:round;stroke:#000000;stroke-opacity:1;fill:#000000;fill-opacity:1"
         id="path1125" />
    </marker>
  </defs>
  <sodipodi:namedview
     id="base"
     pagecolor="#ffffff"
     bordercolor="#666666"
     borderopacity="1.0"
     inkscape:pageopacity="0.0"
     inkscape:pageshadow="2"
     inkscape:zoom="1.7953066"
     inkscape:cx="112.67071"
     inkscape:cy="113.46482"
     inkscape:document-units="mm"
     inkscape:current-layer="layer1"
     inkscape:document-rotation="0"
     showgrid="false"
     units="px"
     inkscape:snap-global="false"
     inkscape:window-width="1366"
     inkscape:window-height="705"
     inkscape:window-x="-8"
     inkscape:window-y="-8"
     inkscape:window-maximized="1" />
  <metadata
     id="metadata5">
    <rdf:RDF>
      <cc:Work
         rdf:about="">
        <dc:format>image/svg+xml</dc:format>
        <dc:type
           rdf:resource="http://purl.org/dc/dcmitype/StillImage" />
        <dc:title></dc:title>
      </cc:Work>
    </rdf:RDF>
  </metadata>
  <g
     inkscape:label="Layer 1"
     inkscape:groupmode="layer"
     id="layer1">
    <g
       id="g8517">
      <path
         style="color:#000000;font-style:normal;font-variant:normal;font-weight:normal;font-stretch:normal;font-size:medium;line-height:normal;font-family:sans-serif;font-variant-ligatures:normal;font-variant-position:normal;font-variant-caps:normal;font-variant-numeric:normal;font-variant-alternates:normal;font-variant-east-asian:normal;font-feature-settings:normal;font-variation-settings:normal;text-indent:0;text-align:start;text-decoration:none;text-decoration-line:none;text-decoration-style:solid;text-decoration-color:#000000;letter-spacing:normal;word-spacing:normal;text-transform:none;writing-mode:lr-tb;direction:ltr;text-orientation:mixed;dominant-baseline:auto;baseline-shift:baseline;text-anchor:start;white-space:normal;shape-padding:0;shape-margin:0;inline-size:0;clip-rule:nonzero;display:inline;overflow:visible;visibility:visible;isolation:auto;mix-blend-mode:normal;color-interpolation:sRGB;color-interpolation-filters:linearRGB;solid-color:#000000;solid-opacity:1;vector-effect:none;fill:#150000;fill-opacity:1;fill-rule:nonzero;stroke:none;stroke-width:2.64583;stroke-linecap:butt;stroke-linejoin:miter;stroke-miterlimit:4;stroke-dasharray:none;stroke-dashoffset:0;stroke-opacity:1;paint-order:markers stroke fill;color-rendering:auto;image-rendering:auto;shape-rendering:auto;text-rendering:auto;enable-background:accumulate;stop-color:#000000"
         d="m 15.047888,29.08225 -3.441133,3.441134 v 11.235489 c 0,1.261686 1.020863,2.293919 2.282548,2.293919 h 16.069302 c 1.261686,0 2.293919,-1.020763 2.293919,-2.293919 V 32.523384 L 28.811906,29.08225 h -0.780315 l -4.136104,2.146541 4.033269,0.147375 2.029849,2.294435 H 13.900671 l 2.041736,-2.294435 h 3.456591 l -3.39923,-2.293916 z m 6.713803,7.989694 h 1.179772 v 5.899381 h -1.179772 z m -2.360064,1.769917 h 1.18029 v 4.129464 h -1.18029 z m 4.719608,1.769401 h 1.179774 v 2.360063 h -1.179774 z"
         id="path8508"
         sodipodi:nodetypes="ccsssscccccccccccccccccccccccccc" />
      <path
         style="color:#000000;font-style:normal;font-variant:normal;font-weight:normal;font-stretch:normal;font-size:medium;line-height:normal;font-family:sans-serif;font-variant-ligatures:normal;font-variant-position:normal;font-variant-caps:normal;font-variant-numeric:normal;font-variant-alternates:normal;font-variant-east-asian:normal;font-feature-settings:normal;font-variation-settings:normal;text-indent:0;text-align:start;text-decoration:none;text-decoration-line:none;text-decoration-style:solid;text-decoration-color:#000000;letter-spacing:normal;word-spacing:normal;text-transform:none;writing-mode:lr-tb;direction:ltr;text-orientation:mixed;dominant-baseline:auto;baseline-shift:baseline;text-anchor:start;white-space:normal;shape-padding:0;shape-margin:0;inline-size:0;clip-rule:nonzero;display:inline;overflow:visible;visibility:visible;isolation:auto;mix-blend-mode:normal;color-interpolation:sRGB;color-interpolation-filters:linearRGB;solid-color:#000000;solid-opacity:1;vector-effect:none;fill:#150000;fill-opacity:1;fill-rule:nonzero;stroke:none;stroke-width:2.64583;stroke-linecap:butt;stroke-linejoin:miter;stroke-miterlimit:4;stroke-dasharray:none;stroke-dashoffset:0;stroke-opacity:1;paint-order:markers stroke fill;color-rendering:auto;image-rendering:auto;shape-rendering:auto;text-rendering:auto;enable-background:accumulate;stop-color:#000000"
         d="M 44.687684,22.570642 H 35.58075 c -0.715544,0 -1.30099,0.585446 -1.30099,1.30099 v 9.106934 c 0,0.715545 0.585446,1.30099 1.30099,1.30099 h 9.106934 c 0.715545,0 1.30099,-0.585445 1.30099,-1.30099 v -9.106934 c 0,-0.715544 -0.585445,-1.30099 -1.30099,-1.30099 z m -3.883457,2.641011 0.689525,-0.689525 0.917199,0.917198 0.917198,-0.917198 0.689525,0.689525 -0.917198,0.917198 0.917198,0.917198 -0.689525,0.689525 -0.917198,-0.910693 -0.917199,0.917198 -0.689525,-0.689525 0.917199,-0.917198 z m -4.410358,0.429326 h 3.252477 v 0.975743 h -3.252477 z m 3.4151,5.386101 h -1.30099 v 1.300991 H 37.532236 V 31.02708 h -1.30099 v -0.975743 h 1.30099 v -1.30099 h 0.975743 v 1.30099 h 1.30099 z m 4.22822,0.813119 h -3.252477 v -0.975743 h 3.252477 z m 0,-1.626238 h -3.252477 v -0.975743 h 3.252477 z"
         id="path8497" />
      <path
         style="color:#000000;font-style:normal;font-variant:normal;font-weight:normal;font-stretch:normal;font-size:medium;line-height:normal;font-family:sans-serif;font-variant-ligatures:normal;font-variant-position:normal;font-variant-caps:normal;font-variant-numeric:normal;font-variant-alternates:normal;font-variant-east-asian:normal;font-feature-settings:normal;font-variation-settings:normal;text-indent:0;text-align:start;text-decoration:none;text-decoration-line:none;text-decoration-style:solid;text-decoration-color:#000000;letter-spacing:normal;word-spacing:normal;text-transform:none;writing-mode:lr-tb;direction:ltr;text-orientation:mixed;dominant-baseline:auto;baseline-shift:baseline;text-anchor:start;white-space:normal;shape-padding:0;shape-margin:0;inline-size:0;clip-rule:nonzero;display:inline;overflow:visible;visibility:visible;isolation:auto;mix-blend-mode:normal;color-interpolation:sRGB;color-interpolation-filters:linearRGB;solid-color:#000000;solid-opacity:1;vector-effect:none;fill:#150000;fill-opacity:1;fill-rule:evenodd;stroke:none;stroke-width:2.64583;stroke-linecap:butt;stroke-linejoin:miter;stroke-miterlimit:4;stroke-dasharray:none;stroke-dashoffset:0;stroke-opacity:1;paint-order:markers stroke fill;color-rendering:auto;image-rendering:auto;shape-rendering:auto;text-rendering:auto;enable-background:accumulate;stop-color:#000000"
         d="m 23.295088,21.6873 2.551412,-1.372343 -0.548937,-1.020566 -2.551411,1.372344 z m 1.921282,3.571976 2.551412,-1.372343 -0.548939,-1.020564 -2.551412,1.372343 z m 4.296803,0.64946 -7.143954,3.842561 c -0.561311,0.301914 -1.267587,0.08968 -1.569503,-0.471628 l -3.84256,-7.143954 c -0.301915,-0.561311 -0.08968,-1.267586 0.471627,-1.569502 l 7.143954,-3.842561 c 0.561311,-0.301915 1.267587,-0.08968 1.569502,0.471628 l 3.842561,7.143953 c 0.301915,0.561311 0.08968,1.267587 -0.471627,1.569503 z m -9.378359,-1.534732 2.551413,-1.372344 -1.372344,-2.551412 -2.551412,1.372343 z m -0.587592,-2.315599 1.530848,-0.823406 0.823406,1.530848 -1.530848,0.823406 z m 2.508873,5.887575 2.551412,-1.372342 -1.372343,-2.551413 -2.551412,1.372344 z m -0.587592,-2.315597 1.530848,-0.823407 0.823405,1.530848 -1.530847,0.823406 z"
         id="path8433" />
      <path
         style="color:#000000;font-style:normal;font-variant:normal;font-weight:normal;font-stretch:normal;font-size:medium;line-height:normal;font-family:sans-serif;font-variant-ligatures:normal;font-variant-position:normal;font-variant-caps:normal;font-variant-numeric:normal;font-variant-alternates:normal;font-variant-east-asian:normal;font-feature-settings:normal;font-variation-settings:normal;text-indent:0;text-align:start;text-decoration:none;text-decoration-line:none;text-decoration-style:solid;text-decoration-color:#000000;letter-spacing:normal;word-spacing:normal;text-transform:none;writing-mode:lr-tb;direction:ltr;text-orientation:mixed;dominant-baseline:auto;baseline-shift:baseline;text-anchor:start;white-space:normal;shape-padding:0;shape-margin:0;inline-size:0;clip-rule:nonzero;display:inline;overflow:visible;visibility:visible;isolation:auto;mix-blend-mode:normal;color-interpolation:sRGB;color-interpolation-filters:linearRGB;solid-color:#000000;solid-opacity:1;vector-effect:none;fill:#150000;fill-opacity:1;fill-rule:nonzero;stroke:none;stroke-width:2.64583;stroke-linecap:butt;stroke-linejoin:miter;stroke-miterlimit:4;stroke-dasharray:none;stroke-dashoffset:0;stroke-opacity:1;paint-order:markers stroke fill;color-rendering:auto;image-rendering:auto;shape-rendering:auto;text-rendering:auto;enable-background:accumulate;stop-color:#000000"
         d="m 27.921636,12.206764 c -0.149866,0.01379 -0.29944,0.05733 -0.439767,0.132808 l -7.14375,3.842659 c -0.561307,0.301916 -0.773721,1.008104 -0.471806,1.569414 l 0.236161,0.439249 4.856551,-2.612243 c 0.51833,-0.278797 1.145853,-0.155774 1.532206,0.254248 l 1.715658,-0.922424 0.548804,1.020609 -1.673283,0.900203 1.37201,2.551266 1.673283,-0.900203 0.54932,1.020609 -1.673284,0.900203 1.234552,2.295984 2.183844,-1.174605 c 0.561308,-0.301916 0.773721,-1.008102 0.471808,-1.569413 l -3.842661,-7.14375 c -0.226438,-0.420981 -0.680053,-0.645983 -1.129646,-0.604614 z"
         id="path8457" />
      <path
         style="color:#000000;font-style:normal;font-variant:normal;font-weight:normal;font-stretch:normal;font-size:medium;line-height:normal;font-family:sans-serif;font-variant-ligatures:normal;font-variant-position:normal;font-variant-caps:normal;font-variant-numeric:normal;font-variant-alternates:normal;font-variant-east-asian:normal;font-feature-settings:normal;font-variation-settings:normal;text-indent:0;text-align:start;text-decoration:none;text-decoration-line:none;text-decoration-style:solid;text-decoration-color:#000000;letter-spacing:normal;word-spacing:normal;text-transform:none;writing-mode:lr-tb;direction:ltr;text-orientation:mixed;dominant-baseline:auto;baseline-shift:baseline;text-anchor:start;white-space:normal;shape-padding:0;shape-margin:0;inline-size:0;clip-rule:nonzero;display:inline;overflow:visible;visibility:visible;isolation:auto;mix-blend-mode:normal;color-interpolation:sRGB;color-interpolation-filters:linearRGB;solid-color:#000000;solid-opacity:1;vector-effect:none;fill:#150000;fill-opacity:1;fill-rule:nonzero;stroke:none;stroke-width:2.64583;stroke-linecap:butt;stroke-linejoin:miter;stroke-miterlimit:4;stroke-dasharray:none;stroke-dashoffset:0;stroke-opacity:1;paint-order:markers stroke fill;color-rendering:auto;image-rendering:auto;shape-rendering:auto;text-rendering:auto;enable-background:accumulate;stop-color:#000000"
         d="m 35.1201,8.3264819 c -0.07662,0.0057 -0.153865,0.01947 -0.230475,0.04134 l -7.800041,2.2267371 c -0.518847,0.148131 -0.851295,0.633215 -0.836124,1.150318 l 1.790071,-0.962732 c 0.148111,-0.07967 0.305874,-0.12601 0.464055,-0.14056 0.47453,-0.04366 0.953175,0.193873 1.192176,0.638204 l 0.176215,0.327112 1.033529,-0.295073 0.7953,2.78536 -0.424262,0.120923 0.56224,1.045414 0.18035,-0.05168 0.235643,0.824755 1.497066,2.783293 c 0.11567,0.215053 0.157527,0.450368 0.138493,0.677995 l 3.858681,-1.101742 c 0.612862,-0.174973 0.970788,-0.819602 0.795816,-1.432471 L 36.322095,9.1636359 C 36.168993,8.6273789 35.656448,8.2862179 35.1201,8.3264779 Z m -0.07183,2.7073281 0.318329,1.114144 -2.785878,0.7953 -0.318328,-1.114144 z m -4.536672,0.993738 -0.355018,0.101286 0.81752,1.52032 z m 5.650298,2.906282 0.317813,1.114143 -2.785362,0.795817 -0.318325,-1.11466 z"
         id="path8489" />
    </g>
  </g>
</svg>
