<?xml version="1.0" encoding="UTF-8" standalone="no"?>
<svg
   xmlns:dc="http://purl.org/dc/elements/1.1/"
   xmlns:cc="http://creativecommons.org/ns#"
   xmlns:rdf="http://www.w3.org/1999/02/22-rdf-syntax-ns#"
   xmlns:svg="http://www.w3.org/2000/svg"
   xmlns="http://www.w3.org/2000/svg"
   xmlns:sodipodi="http://sodipodi.sourceforge.net/DTD/sodipodi-0.dtd"
   xmlns:inkscape="http://www.inkscape.org/namespaces/inkscape"
   width="200"
   height="200"
   viewBox="0 0 52.916665 52.916668"
   version="1.1"
   id="svg8"
   inkscape:version="1.0.1 (3bc2e813f5, 2020-09-07)"
   sodipodi:docname="distribucion-distrital1.svg"
   inkscape:export-filename="/home/elsahuaro/electoral/web/src/img/distribucion-distrital.png"
   inkscape:export-xdpi="96"
   inkscape:export-ydpi="96">
  <defs
     id="defs2">
    <marker
       style="overflow:visible;"
       id="Arrow2Send"
       refX="0.0"
       refY="0.0"
       orient="auto"
       inkscape:stockid="Arrow2Send"
       inkscape:isstock="true">
      <path
         transform="scale(0.3) rotate(180) translate(-2.3,0)"
         d="M 8.7185878,4.0337352 L -2.2072895,0.016013256 L 8.7185884,-4.0017078 C 6.9730900,-1.6296469 6.9831476,1.6157441 8.7185878,4.0337352 z "
         style="fill-rule:evenodd;stroke-width:0.625;stroke-linejoin:round;stroke:#000000;stroke-opacity:1;fill:#000000;fill-opacity:1"
         id="path1131" />
    </marker>
    <marker
       style="overflow:visible;"
       id="marker1798"
       refX="0.0"
       refY="0.0"
       orient="auto"
       inkscape:stockid="Arrow1Send"
       inkscape:isstock="true">
      <path
         transform="scale(0.2) rotate(180) translate(6,0)"
         style="fill-rule:evenodd;stroke:#000000;stroke-width:1pt;stroke-opacity:1;fill:#000000;fill-opacity:1"
         d="M 0.0,0.0 L 5.0,-5.0 L -12.5,0.0 L 5.0,5.0 L 0.0,0.0 z "
         id="path1796" />
    </marker>
    <marker
       style="overflow:visible;"
       id="Arrow1Send"
       refX="0.0"
       refY="0.0"
       orient="auto"
       inkscape:stockid="Arrow1Send"
       inkscape:isstock="true">
      <path
         transform="scale(0.2) rotate(180) translate(6,0)"
         style="fill-rule:evenodd;stroke:#000000;stroke-width:1pt;stroke-opacity:1;fill:#000000;fill-opacity:1"
         d="M 0.0,0.0 L 5.0,-5.0 L -12.5,0.0 L 5.0,5.0 L 0.0,0.0 z "
         id="path1113" />
    </marker>
    <marker
       style="overflow:visible;"
       id="Arrow2Mend"
       refX="0.0"
       refY="0.0"
       orient="auto"
       inkscape:stockid="Arrow2Mend"
       inkscape:isstock="true">
      <path
         transform="scale(0.6) rotate(180) translate(0,0)"
         d="M 8.7185878,4.0337352 L -2.2072895,0.016013256 L 8.7185884,-4.0017078 C 6.9730900,-1.6296469 6.9831476,1.6157441 8.7185878,4.0337352 z "
         style="fill-rule:evenodd;stroke-width:0.625;stroke-linejoin:round;stroke:#000000;stroke-opacity:1;fill:#000000;fill-opacity:1"
         id="path1125" />
    </marker>
  </defs>
  <sodipodi:namedview
     id="base"
     pagecolor="#ffffff"
     bordercolor="#666666"
     borderopacity="1.0"
     inkscape:pageopacity="0.0"
     inkscape:pageshadow="2"
     inkscape:zoom="1.7605873"
     inkscape:cx="77.456393"
     inkscape:cy="121.80184"
     inkscape:document-units="mm"
     inkscape:current-layer="layer1"
     inkscape:document-rotation="0"
     showgrid="false"
     units="px"
     inkscape:snap-global="false"
     inkscape:window-width="1366"
     inkscape:window-height="705"
     inkscape:window-x="-8"
     inkscape:window-y="-8"
     inkscape:window-maximized="1" />
  <metadata
     id="metadata5">
    <rdf:RDF>
      <cc:Work
         rdf:about="">
        <dc:format>image/svg+xml</dc:format>
        <dc:type
           rdf:resource="http://purl.org/dc/dcmitype/StillImage" />
        <dc:title></dc:title>
      </cc:Work>
    </rdf:RDF>
  </metadata>
  <g
     inkscape:label="Layer 1"
     inkscape:groupmode="layer"
     id="layer1">
    <g
       id="g5671"
       transform="translate(1.8033755,-0.60112521)">
      <path
         id="path5577"
         style="color:#000000;font-style:normal;font-variant:normal;font-weight:normal;font-stretch:normal;font-size:medium;line-height:normal;font-family:sans-serif;font-variant-ligatures:normal;font-variant-position:normal;font-variant-caps:normal;font-variant-numeric:normal;font-variant-alternates:normal;font-variant-east-asian:normal;font-feature-settings:normal;font-variation-settings:normal;text-indent:0;text-align:start;text-decoration:none;text-decoration-line:none;text-decoration-style:solid;text-decoration-color:#000000;letter-spacing:normal;word-spacing:normal;text-transform:none;writing-mode:lr-tb;direction:ltr;text-orientation:mixed;dominant-baseline:auto;baseline-shift:baseline;text-anchor:start;white-space:normal;shape-padding:0;shape-margin:0;inline-size:0;clip-rule:nonzero;display:inline;overflow:visible;visibility:visible;isolation:auto;mix-blend-mode:normal;color-interpolation:sRGB;color-interpolation-filters:linearRGB;solid-color:#000000;solid-opacity:1;vector-effect:none;fill:#000000;fill-opacity:1;fill-rule:evenodd;stroke:none;stroke-width:2.92535;stroke-linecap:square;stroke-linejoin:bevel;stroke-miterlimit:9.14286;stroke-dasharray:none;stroke-dashoffset:0;stroke-opacity:1;paint-order:markers stroke fill;color-rendering:auto;image-rendering:auto;shape-rendering:auto;text-rendering:auto;enable-background:accumulate;stop-color:#000000"
         d="m 150.64648,66.435547 -0.0234,0.04492 c -1.57246,1.683991 -3.75946,2.137759 -5.4336,2.730469 -0.83707,0.296352 -1.55227,0.609059 -2.00781,0.9375 -0.45555,0.328425 -0.65413,0.596238 -0.75976,1.070312 l -0.75196,0.974609 c -0.96652,0.50315 -2.44811,2.120826 -4.42187,3.25586 -0.98689,0.567518 -2.17178,1.009256 -3.50782,0.982422 -0.56836,-0.01138 -1.18049,-0.475653 -1.77148,-0.664063 0.0997,1.173188 0.60345,2.487838 0.31836,3.410156 -0.52017,1.682843 -1.14182,2.954049 -1.14453,3.986328 l -0.41406,1.011719 c -1.74326,1.810016 -3.75974,2.52556 -5.63868,2.751953 -1.87894,0.226205 -3.64175,0.07538 -5.375,0.244141 h -0.3164 c -2.1363,-0.260213 -3.71157,-1.073583 -5.10938,-1.564453 -1.3978,-0.490847 -2.58806,-0.761836 -4.52539,-0.265625 l -1.83008,-1.417969 c 2.1e-4,-0.914793 -0.37706,-2.058303 -0.68554,-3.351562 -0.18971,-0.795326 0.14282,-1.779584 0.27929,-2.72461 -0.74129,-0.256331 -1.57587,-0.373974 -2.125,-0.833984 -0.9173,-0.768431 -1.63863,-1.674038 -2.31054,-2.464844 -0.67192,-0.790806 -1.3049,-1.453879 -1.8086,-1.779297 -0.50369,-0.325417 -0.73581,-0.396689 -1.292966,-0.21289 l -0.308593,0.06641 c -0.69035,0.07128 -0.97279,0.173945 -1.210938,0.257812 0.155925,0.26081 0.39097,0.596972 0.679688,0.988282 0.625746,0.84808 1.492639,1.819036 1.673829,3.292968 0.0906,0.736967 -0.11082,1.632432 -0.64063,2.310547 -0.37025,0.473904 -0.983656,0.757784 -1.566402,1.070313 -0.741687,1.259508 -0.615308,2.863791 -0.53711,4.679687 0.04001,0.929473 0.07518,1.911902 -0.347656,2.931641 -0.132968,0.320666 -0.620371,0.414506 -0.863281,0.693359 0.136618,0.139125 0.372753,0.213727 0.486328,0.369141 0.492374,0.673912 0.697786,1.506713 0.65039,2.236328 -0.09476,1.459234 -0.890146,2.517911 -1.550781,3.396484 -0.379604,0.504843 -0.470356,0.629686 -0.701172,0.951172 l 0.892578,0.6875 c 0.115019,0.488523 0.516561,0.887591 1.447266,1.320313 0.930705,0.432722 2.23563,0.770386 3.5,1.123047 1.26437,0.35266 2.50231,0.622478 3.52734,1.580077 0.51248,0.47876 0.92572,1.28022 0.90039,2.10351 -0.017,0.54965 -0.33045,1.01554 -0.58984,1.49805 0.0147,0.12518 0.0353,0.26065 0.0293,0.25195 -0.008,-0.0125 -0.0544,-0.0256 0.0586,0.0137 0.22605,0.0786 1.00669,0.10904 1.91211,0.0234 0.90542,-0.0856 1.93083,-0.2378 2.99024,-0.16406 0.34377,0.0239 0.70393,0.15848 1.0625,0.26563 0.0166,-0.0208 0.0119,-0.0515 0.0293,-0.0723 0.45251,-0.54067 1.38777,-0.92673 2.11914,-0.76172 0.73138,0.16501 1.15697,0.58193 1.50586,0.99024 0.34891,0.4083 0.62109,0.86865 0.86328,1.36523 0.48439,0.99317 0.838,2.1284 0.95313,3.24805 0.0576,0.55982 0.0594,1.12109 -0.0664,1.6914 -0.0107,0.0484 -0.077,0.0894 -0.0898,0.13868 0.47419,0.38167 1.07794,0.72269 1.36719,1.19726 0.5134,0.84239 0.52015,2.17197 -0.11133,2.95899 -0.63149,0.78701 -1.48612,1.09662 -2.42969,1.29882 -0.9308,0.19964 -2.00333,0.25069 -3.2168,0.16993 -1.32182,-0.047 -1.87525,0.25547 -2.21484,0.61328 -0.33956,0.35779 -0.56515,0.97259 -0.59766,1.89062 -0.0647,1.83606 0.74425,4.52359 1.43946,6.34766 l -1.69922,1.9414 c -1.31234,-0.30404 -2.05297,-0.17212 -2.66406,0.10352 -0.6111,0.27563 -1.14696,0.77693 -1.74219,1.45508 -0.59523,0.67815 -1.22076,1.52172 -2.12696,2.25781 -0.78747,0.63965 -1.84282,1.16294 -3.095699,1.28125 -0.665519,0.58073 -0.853002,1.02611 -0.882812,1.43555 -0.03441,0.4724 0.166953,1.10791 0.671875,1.85351 0.869536,1.28403 2.502496,2.61648 3.832026,3.8086 0.29327,-0.10307 0.55043,-0.34999 0.85547,-0.36133 0.7761,-0.0292 1.46838,0.27083 1.97071,0.63476 0.24834,0.17993 0.27208,0.36794 0.46484,0.56836 0.0267,-0.0286 0.0248,-0.0771 0.0527,-0.10351 0.14984,-0.14215 0.34218,-0.18416 0.50976,-0.28125 0.0705,-0.12212 -0.038,-0.13595 0.11719,-0.30274 0.30217,-0.32474 1.01838,-0.54592 1.43945,-0.45703 0.42109,0.0889 0.59249,0.23992 0.7168,0.33985 0.49726,0.39971 0.54501,0.57115 0.79687,0.81054 0.40028,0.38042 1.12297,0.57283 2.0293,0.6211 0.0801,-0.0209 0.18756,-0.0585 0.24414,-0.0664 0.20951,-0.0302 0.3384,-0.0287 0.48047,-0.0234 0.56828,0.0204 1.22884,0.13447 1.91797,0.33399 0.34456,0.0998 0.67857,0.21448 1.0332,0.41211 0.35462,0.19763 0.8972,0.46235 1.07813,1.34375 0.0905,0.4407 -0.0369,0.96091 -0.24219,1.28515 -0.20536,0.32424 -0.43894,0.50734 -0.66602,0.65625 -0.11265,0.0739 -0.27289,0.10175 -0.39062,0.16211 0.0724,0.48351 0.1827,1.08396 0.18555,1.49219 0.005,0.71546 -0.16237,1.28993 -0.42969,2.20703 l -0.50196,0.22852 c 0.018,0.11096 0.0157,0.0412 0.0742,0.20703 0.12892,0.36518 0.31895,0.79519 0.47266,1.10742 0.0769,0.15613 0.14888,0.28881 0.18555,0.35352 -0.0103,-0.0172 -0.0191,-0.0329 -0.10352,-0.125 -0.0246,-0.0268 -0.11236,-0.11224 -0.11133,-0.11133 10e-4,9e-4 -0.26642,-0.18403 -0.26562,-0.1836 3.8e-4,2.3e-4 -0.29526,-0.11924 -0.29492,-0.11914 3.4e-4,1.2e-4 -0.52567,-0.0508 -0.52539,-0.0508 2e-4,-3e-5 -0.29728,0.10526 -0.4961,0.17578 0.24547,0.57709 0.45722,1.01073 0.54492,1.14063 l 1.05274,0.53515 c -0.0933,-0.14082 -0.167,-0.32328 -0.21485,-0.35351 -0.10335,-0.065 0.0759,-7.3e-4 0.42774,0.23633 0.35184,0.23703 0.80345,0.83146 0.89258,1.41797 l -0.0664,0.2207 c 0.20826,0.12849 0.40172,0.14915 0.62891,0.60547 0.0643,0.12946 0.0127,0.29961 0.043,0.45703 0.28398,0.1601 0.69828,0.0671 0.8789,0.33203 0.53425,0.78349 0.46656,1.52924 0.38477,2.08203 -0.0153,0.10307 -0.0468,0.1415 -0.0664,0.23633 1.00991,0.69203 2.03536,1.43435 2.51563,1.86133 0.3312,0.29443 0.56071,0.46015 0.64257,0.50195 0.0817,0.042 -0.0149,0.0288 0.0742,0.0137 l 1.04883,0.21485 c 0.69907,0.45923 1.07201,0.56166 1.24023,0.60546 0.17593,-0.46243 0.36207,-2.52483 0.13282,-5.70898 -0.12056,-0.79086 -0.18813,-1.37651 -0.16211,-1.93164 0.0273,-0.58057 0.24301,-1.28204 0.69336,-1.72852 0.45034,-0.44649 0.83983,-0.55599 1.10742,-0.67187 0.0309,-0.0134 0.058,-0.0376 0.0879,-0.0508 -0.29522,-4.5965 -1.79595,-9.42991 -1.34961,-14.43945 -0.39663,-0.90003 -0.67635,-1.64804 -0.82031,-2.30274 -0.15273,-0.69474 -0.22801,-1.39055 0.1543,-2.11914 0.3823,-0.72859 1.23185,-1.08403 1.80273,-1.13672 0.57087,-0.0527 1.03569,0.0381 1.49805,0.12695 0.92471,0.17764 1.84755,0.41199 2.50195,0.41993 0.6544,0.008 0.81749,-0.021 1.07812,-0.45118 l 0.57618,-0.5371 c 4.2276,-2.18672 7.51362,-1.54433 11.68554,-0.80469 l 1.20313,1.32812 c 0.0192,0.23905 0.17085,0.52064 0.59765,0.85547 0.42681,0.33483 1.09098,0.6421 1.75,0.79688 0.65903,0.15481 1.31078,0.14362 1.63086,0.0605 0.32009,-0.0831 0.14075,0.0193 0.13282,0.0742 l 1.19531,-1.23437 c 2.40106,-0.41186 4.42568,-0.131 6.05469,-0.0723 0.20812,-0.25678 0.40708,-0.55013 0.64062,-0.66601 0.70733,-0.35096 1.15578,-0.30057 1.57227,-0.35352 0.57315,-0.0729 1.08571,-0.48716 1.61718,-0.87109 -0.32411,-0.58038 -0.91542,-1.08789 -1.0039,-1.66797 -0.17957,-1.17602 -0.0531,-2.25554 -0.008,-3.15235 0.0453,-0.8968 -0.0133,-1.56164 -0.17579,-1.90429 -0.16248,-0.34266 -0.35171,-0.61384 -1.41796,-0.86328 l -1.04102,-0.90821 c -0.90655,-2.43124 -0.83478,-4.75537 -0.70117,-6.95508 0.1336,-2.1997 0.32338,-4.31224 -0.082,-6.59765 l 1.42578,-1.72071 c 0.53467,-0.006 0.48324,-0.0721 0.50781,-0.10351 0.0247,-0.0315 0.1274,-0.26168 0.16406,-0.67188 0.0365,-0.41019 0.009,-0.91817 0.0879,-1.52734 0.0392,-0.30458 0.0968,-0.65818 0.34766,-1.07812 0.17079,-0.28587 0.4983,-0.56999 0.86523,-0.75391 0.16356,-0.10219 0.33115,-0.32414 0.41016,-0.98828 0.0806,-0.677287 -0.004,-1.671277 -0.23437,-2.716797 -0.46164,-2.091042 -1.51487,-4.456723 -2.14258,-5.388672 l 0.96875,-2.259765 c 0.55654,-0.09513 0.75063,-0.246415 0.78125,-0.279297 0.0306,-0.03273 0.037,0.008 0.0234,-0.199219 -0.0275,-0.414349 -0.53898,-1.564553 -1.47657,-2.738281 l -0.23633,-1.417969 c 0.6525,-1.785815 1.69879,-3.367853 1.88868,-4.251953 0.0949,-0.44205 0.0749,-0.551361 -0.0723,-0.753906 -0.14715,-0.20253 -0.62271,-0.596955 -1.7793,-0.951172 l -0.53906,-2.496094 c 0.33182,-0.291212 0.37515,-0.397007 0.43555,-0.494141 -0.11689,-0.07226 -0.53869,-0.398561 -1.29883,-0.722656 -0.86826,-0.370204 -1.8534,-0.66071 -2.74609,-1.359375 -0.44635,-0.349334 -0.99018,-0.957789 -1.01172,-1.822265 -0.016,-0.636681 0.24656,-1.1669 0.59961,-1.597657 -0.005,-0.185726 0.006,-0.817596 -0.19336,-1.613281 -0.23077,-0.921245 -0.62672,-1.966665 -1.03321,-2.769531 z m 1.22657,4.382812 c 0.001,0.03629 0.002,0.177435 0.006,0.166016 l 0.39843,-0.591797 c -0.14138,0.128643 -0.27798,0.271662 -0.40429,0.425781 z m 6.42968,30.437501 c -0.003,0.002 -0.007,0.006 -0.01,0.008 l 0.53906,-0.1914 c -0.17878,0.0267 -0.35719,0.0973 -0.5293,0.18359 z m -34.21679,53.61328 c 0.006,0.0363 0.008,0.0605 0.0137,0.0977 l -0.0137,-0.11719 c 5.2e-4,0.007 -5.2e-4,0.0124 0,0.0195 z m -24.378909,-22.25 c 0.102339,-0.0893 -0.08158,0.0755 0.04625,-0.021 l 0.0012,0.0213 c 0.197585,0.002 -0.236352,0.0175 -0.04747,-2.9e-4 z"
         transform="scale(0.26458333)"
         sodipodi:nodetypes="ccssccsccscccccsccscssscccssscsscccsccsssccccssccssssscssccscccssscssccscccsssscccssssscsccsscsssssccccscccccscsccccccssccsssssccccssscccssccssccsccscsscssccccccsscccssccscccccccccccccccccscccs" />
      <g
         id="g5579"
         style="fill:#000000;fill-opacity:1;stroke:#ffffff;stroke-width:11.975;stroke-miterlimit:9.14286;stroke-dasharray:none;stroke-opacity:1;paint-order:markers stroke fill"
         transform="matrix(0.06169218,0,0,0.06169218,3.1006979,6.8283796)">
        <path
           style="color:#000000;font-style:normal;font-variant:normal;font-weight:normal;font-stretch:normal;font-size:medium;line-height:normal;font-family:sans-serif;font-variant-ligatures:normal;font-variant-position:normal;font-variant-caps:normal;font-variant-numeric:normal;font-variant-alternates:normal;font-variant-east-asian:normal;font-feature-settings:normal;font-variation-settings:normal;text-indent:0;text-align:start;text-decoration:none;text-decoration-line:none;text-decoration-style:solid;text-decoration-color:#000000;letter-spacing:normal;word-spacing:normal;text-transform:none;writing-mode:lr-tb;direction:ltr;text-orientation:mixed;dominant-baseline:auto;baseline-shift:baseline;text-anchor:start;white-space:normal;shape-padding:0;shape-margin:0;inline-size:0;clip-rule:nonzero;display:inline;overflow:visible;visibility:visible;isolation:auto;mix-blend-mode:normal;color-interpolation:sRGB;color-interpolation-filters:linearRGB;solid-color:#000000;solid-opacity:1;vector-effect:none;fill:#ffffff;fill-opacity:1;fill-rule:evenodd;stroke:none;stroke-width:11.975;stroke-linecap:square;stroke-linejoin:bevel;stroke-miterlimit:9.14286;stroke-dasharray:none;stroke-dashoffset:0;stroke-opacity:1;paint-order:markers stroke fill;color-rendering:auto;image-rendering:auto;shape-rendering:auto;text-rendering:auto;enable-background:accumulate;stop-color:#000000;stop-opacity:1"
           d="m 354.375,303.18945 c -5.18877,-0.7305 -10.67483,1.55838 -15.52734,6.14258 -5.94419,-1.09701 -11.48794,0.0664 -15.42774,2.9707 -4.79314,3.53339 -7.51791,8.36109 -10.14453,12.74219 -2.62662,4.3811 -5.10156,8.40015 -7.80859,10.86914 -2.70704,2.469 -5.23494,3.75027 -10.25391,3.32617 l -1.58398,0.0781 c -6.45762,1.18356 -11.42262,5.70004 -13.45703,10.93945 -2.03442,5.23942 -1.8827,10.88118 -0.84376,16.375 1.96379,10.38423 6.79615,20.34202 13.93165,26.16016 2.56993,4.44503 5.21495,7.58968 8.10937,9.53711 3.10939,2.09206 6.41357,2.67026 8.44336,2.82422 0.55302,0.0419 0.70014,0.0732 1.01953,0.11523 0.0528,0.22984 0.0445,0.16403 0.13477,0.66992 l 7.29101,4.77149 c 3.09281,-0.74204 7.53037,-0.40585 12.64258,-0.23047 4.05429,0.13909 8.73236,0.0493 13.33984,-1.70899 4.55259,2.62136 9.16369,3.60687 13.22266,1.95508 4.99939,-2.03449 7.09968,-6.12742 8.90039,-9.41992 1.80071,-3.2925 3.34586,-6.33489 4.76367,-7.92969 1.41781,-1.59479 1.79582,-1.99796 4.22852,-1.69922 l 2.98437,-0.39648 c 7.15915,-2.90882 13.43181,-7.22981 18.25782,-12.09766 4.78588,-4.82738 8.3191,-10.10119 9.23437,-16.07812 2.02224,-10.18762 -3.44513,-17.74487 -6.22265,-22.42578 -1.39873,-2.35726 -2.07317,-4.02991 -2.14258,-5.08789 -0.0694,-1.05798 0.0138,-2.1025 2.16797,-4.62696 l -6.20899,-9.64062 c -4.84937,1.39434 -8.32935,0.59042 -12.23633,-1.41211 -3.90697,-2.00253 -7.87898,-5.42676 -12.04883,-8.81445 -4.16984,-3.38769 -8.5871,-7.03836 -14.76562,-7.90821 z m -3.01953,11.8086 c 0.46627,-0.0527 0.90312,-0.014 1.34961,0.0488 1.78594,0.25143 4.99925,2.189 8.88476,5.3457 3.88551,3.15669 8.39234,7.23244 14.13868,10.17773 2.93433,1.504 6.29404,2.63211 9.92578,3.09571 -0.11135,0.91252 -0.19494,1.82363 -0.13672,2.71093 0.28337,4.31888 2.14724,7.63726 3.79492,10.41407 3.29535,5.55361 5.87764,8.76559 4.76953,14.08398 l -0.0644,0.35938 c -0.2811,1.93264 -2.28783,5.85005 -5.92383,9.51757 -3.48081,3.51099 -8.31934,6.81865 -13.5918,9.07813 -5.12719,0.13049 -9.63011,2.55918 -12.32617,5.5918 -3.10136,3.4885 -4.77689,7.32019 -6.31836,10.13867 -1.54146,2.81847 -2.90636,4.07346 -2.9082,4.07422 -0.002,7.5e-4 -0.69501,0.55076 -4.66211,-2.4336 l -6.73438,-0.31445 c -2.39139,1.47026 -5.70641,1.7806 -10.24218,1.625 -3.11282,-0.10679 -6.66897,-0.42778 -10.48047,-0.18945 -0.84652,-1.46336 -1.94673,-2.72619 -3.41992,-3.58985 -3.12522,-1.83215 -5.47723,-1.42534 -6.69336,-1.51758 -1.21614,-0.0922 -1.63632,-0.13013 -2.66211,-0.82031 -1.0258,-0.69018 -2.73749,-2.3298 -4.87891,-6.23242 l -1.76367,-1.98828 c -2.9515,-2.11309 -8.7799,-11.63045 -10.31836,-19.76563 -0.76923,-4.06759 -0.57346,-7.72083 0.24023,-9.8164 0.79851,-2.05648 1.52448,-2.90781 4.3418,-3.45118 7.36004,0.21522 13.57234,-2.46884 17.85938,-6.3789 4.57904,-4.17639 7.42893,-9.2506 10.01172,-13.5586 2.58278,-4.30799 4.95058,-7.76677 6.97851,-9.26171 2.02793,-1.49494 3.44307,-2.10743 8.17578,-0.41407 l 6.62891,-1.8164 c 2.96513,-3.57863 4.62657,-4.55488 6.02539,-4.71289 z"
           id="path5581" />
        <path
           style="color:#000000;font-style:normal;font-variant:normal;font-weight:normal;font-stretch:normal;font-size:medium;line-height:normal;font-family:sans-serif;font-variant-ligatures:normal;font-variant-position:normal;font-variant-caps:normal;font-variant-numeric:normal;font-variant-alternates:normal;font-variant-east-asian:normal;font-feature-settings:normal;font-variation-settings:normal;text-indent:0;text-align:start;text-decoration:none;text-decoration-line:none;text-decoration-style:solid;text-decoration-color:#000000;letter-spacing:normal;word-spacing:normal;text-transform:none;writing-mode:lr-tb;direction:ltr;text-orientation:mixed;dominant-baseline:auto;baseline-shift:baseline;text-anchor:start;white-space:normal;shape-padding:0;shape-margin:0;inline-size:0;clip-rule:nonzero;display:inline;overflow:visible;visibility:visible;isolation:auto;mix-blend-mode:normal;color-interpolation:sRGB;color-interpolation-filters:linearRGB;solid-color:#000000;solid-opacity:1;vector-effect:none;fill:#000000;fill-opacity:1;fill-rule:evenodd;stroke:none;stroke-width:11.975;stroke-linecap:square;stroke-linejoin:bevel;stroke-miterlimit:9.14286;stroke-dasharray:none;stroke-dashoffset:0;stroke-opacity:1;paint-order:markers stroke fill;color-rendering:auto;image-rendering:auto;shape-rendering:auto;text-rendering:auto;enable-background:accumulate;stop-color:#000000;stop-opacity:1"
           d="m 316.86169,404.88809 c -2.124,-11.90154 -9.15639,1.97498 -18.93502,-15.84605 -10.79405,-7.72785 -22.04203,-40.38448 -3.21743,-43.83469 26.10221,2.2056 21.76763,-37.99051 46.00982,-29.31667 18.76125,-22.64297 22.26735,9.48196 53.12729,10.57113 -8.71708,15.40116 9.35128,20.01717 6.09737,35.63443 -1.15944,7.97164 -11.1493,18.4747 -23.85815,23.63842 -16.99365,-2.23715 -8.48459,22.70005 -31.39728,16.25221 -8.0903,4.97404 -18.85564,0.74887 -27.8266,2.90122 z"
           id="path5583"
           sodipodi:nodetypes="ccccccccc" />
      </g>
      <path
         id="path5589"
         style="color:#000000;font-style:normal;font-variant:normal;font-weight:normal;font-stretch:normal;font-size:medium;line-height:normal;font-family:sans-serif;font-variant-ligatures:normal;font-variant-position:normal;font-variant-caps:normal;font-variant-numeric:normal;font-variant-alternates:normal;font-variant-east-asian:normal;font-feature-settings:normal;font-variation-settings:normal;text-indent:0;text-align:start;text-decoration:none;text-decoration-line:none;text-decoration-style:solid;text-decoration-color:#000000;letter-spacing:normal;word-spacing:normal;text-transform:none;writing-mode:lr-tb;direction:ltr;text-orientation:mixed;dominant-baseline:auto;baseline-shift:baseline;text-anchor:start;white-space:normal;shape-padding:0;shape-margin:0;inline-size:0;clip-rule:nonzero;display:inline;overflow:visible;visibility:visible;isolation:auto;mix-blend-mode:normal;color-interpolation:sRGB;color-interpolation-filters:linearRGB;solid-color:#000000;solid-opacity:1;vector-effect:none;fill:#000000;fill-opacity:1;fill-rule:evenodd;stroke:none;stroke-width:0.860874;stroke-linecap:square;stroke-linejoin:bevel;stroke-miterlimit:9.14286;stroke-dasharray:none;stroke-dashoffset:0;stroke-opacity:1;paint-order:markers stroke fill;color-rendering:auto;image-rendering:auto;shape-rendering:auto;text-rendering:auto;enable-background:accumulate;stop-color:#000000"
         d="m 19.987166,28.53729 c 3.26e-4,2.42e-4 0.0051,0.0048 0.0063,0.0057 -0.0013,8.8e-5 0.0063,-0.0027 0.0046,-0.0029 -0.0075,-7.8e-4 -0.01207,-0.0037 -0.01092,-0.0029 z m 0.0063,0.0057 c 0.0098,-6.65e-4 0.01341,-0.0091 -0.03506,0.02299 l -0.200019,0.07012 c -0.177193,0.01562 -0.223386,0.05406 -0.27129,0.110929 -0.04791,0.05687 -0.09612,0.170327 -0.125299,0.341987 -0.05836,0.343326 -0.01568,0.852617 -0.118977,1.346105 l -0.200594,0.281062 c 0.07079,0.09385 0.306299,0.27042 0.555225,0.358654 0.254349,0.09016 0.5013,0.07442 0.554076,0.04656 0.02638,-0.01393 0.02576,-0.0062 0.04023,-0.05345 0.01447,-0.04729 0.02686,-0.165544 -0.02069,-0.365552 l 0.08966,-0.377048 c -0.01895,0.02246 0.06895,-0.169435 0.07874,-0.419579 0.0098,-0.250145 -0.02178,-0.559101 -0.08851,-0.820193 -0.06674,-0.261092 -0.182988,-0.471352 -0.241403,-0.52821 -0.01046,-0.01018 -0.01288,-0.01189 -0.01609,-0.01437 z" />
      <path
         id="path5595"
         style="color:#000000;font-style:normal;font-variant:normal;font-weight:normal;font-stretch:normal;font-size:medium;line-height:normal;font-family:sans-serif;font-variant-ligatures:normal;font-variant-position:normal;font-variant-caps:normal;font-variant-numeric:normal;font-variant-alternates:normal;font-variant-east-asian:normal;font-feature-settings:normal;font-variation-settings:normal;text-indent:0;text-align:start;text-decoration:none;text-decoration-line:none;text-decoration-style:solid;text-decoration-color:#000000;letter-spacing:normal;word-spacing:normal;text-transform:none;writing-mode:lr-tb;direction:ltr;text-orientation:mixed;dominant-baseline:auto;baseline-shift:baseline;text-anchor:start;white-space:normal;shape-padding:0;shape-margin:0;inline-size:0;clip-rule:nonzero;display:inline;overflow:visible;visibility:visible;isolation:auto;mix-blend-mode:normal;color-interpolation:sRGB;color-interpolation-filters:linearRGB;solid-color:#000000;solid-opacity:1;vector-effect:none;fill:#000000;fill-opacity:1;fill-rule:evenodd;stroke:none;stroke-width:2.92535;stroke-linecap:square;stroke-linejoin:bevel;stroke-miterlimit:9.14286;stroke-dasharray:none;stroke-dashoffset:0;stroke-opacity:1;paint-order:markers stroke fill;color-rendering:auto;image-rendering:auto;shape-rendering:auto;text-rendering:auto;enable-background:accumulate;stop-color:#000000"
         d="m 23.130859,25.414062 c -0.884966,0.03614 -1.767997,0.447876 -2.472656,1.101563 -0.704659,0.653687 -1.197078,1.538271 -1.330078,2.376953 -0.133,0.838683 0.02091,1.610853 0.679687,2.382813 l 0.251954,1.484375 c -0.655414,1.674248 -0.598659,2.768269 -0.228516,3.705078 0.370143,0.936809 1.157133,1.793676 2.287109,2.628906 2.259951,1.670453 5.717647,3.011425 8.283203,5.123047 l 0.257813,0.28125 c 0.539343,0.761809 3.058017,2.544895 5.027344,3.365234 0.984604,0.410196 1.916131,0.579698 2.060547,0.56836 -0.969215,0.938182 -0.279899,0.349052 0.435546,-0.449219 -0.08806,-0.293193 -0.21743,-0.600431 -0.169921,-1.167969 0.06166,-0.736448 0.619575,-1.649477 1.423828,-2.087891 l 1.373047,0.611329 c 0.07708,-0.03005 0.117802,-0.06566 0.435546,-0.101563 0.439046,-0.04953 1.274094,0.225297 1.691407,0.714844 -9.45e-4,0.0054 -0.04946,-0.06977 -0.04492,-0.06641 0.03265,0.02419 0.152449,0.104806 0.310547,0.199218 0.316229,0.188795 0.799831,0.450476 1.349609,0.767578 1.099552,0.634224 2.471955,1.46142 3.595703,2.533204 l 0.369141,1.548828 c -0.384076,1.078178 -0.264399,1.53211 -0.111328,1.816406 0.153055,0.284304 0.502975,0.563376 1.085937,0.796875 0.582966,0.233492 1.325324,0.389603 1.992188,0.517578 0.333433,0.06399 0.63775,0.116549 0.960937,0.207031 0.218658,0.06121 0.503414,0.06181 0.822266,0.320313 0.335019,0.08948 0.653651,0.174416 0.933594,0.248047 0.283551,-0.253637 0.57974,-0.453003 0.857421,-0.539063 l 1.527344,0.419922 c 1.067807,1.197343 1.970709,1.330131 3.09375,2.333985 0.561521,0.501928 1.047378,1.332285 1.171875,2.265624 0.124471,0.933343 0.0066,1.963241 -0.294922,3.359376 l -0.597656,0.0957 c 0.0026,0.09099 -0.03849,0.551152 -0.02148,1.269531 0.03632,1.537618 0.17395,3.734374 0.154297,5.558594 1.638478,3.476228 3.572532,6.358379 5.109375,9.46289 1.460621,2.95053 2.312194,6.306441 2.228515,10.275391 1.36382,2.167362 3.349415,4.664765 5.003906,7.382812 1.381614,2.269758 2.101194,4.838368 2.347657,7.476558 2.354657,0.45844 4.844654,0.41405 6.873047,-0.53125 2.211492,-1.03062 3.922877,-2.83093 4.666015,-5.728511 l 2.029297,-0.966797 c 0.692141,0.315459 1.496991,0.267372 2.421875,-0.140625 0.924888,-0.407992 1.881487,-1.191927 2.568359,-2.111328 0.686873,-0.9194 1.087013,-1.951657 1.107422,-2.767578 0.02056,-0.815924 -0.18739,-1.406414 -1.02539,-2.007812 l 0.568359,-2.626954 c 0.624098,-0.124422 0.838115,-0.226333 0.958985,-0.28125 -0.03957,-0.150685 -0.116993,-0.960443 -0.08789,-1.978515 -0.657547,-3.246089 1.291878,-5.766932 2.050781,-7.425781 0.379465,-0.829421 0.455108,-1.314378 0.347656,-1.646485 -0.107444,-0.332095 -0.516473,-0.91033 -2.029296,-1.638672 l 0.21289,-2.716797 c 1.676852,-0.508818 2.627528,-1.579957 3.107422,-3.003906 0.479883,-1.423952 0.392028,-3.216623 -0.324219,-4.865234 l -0.0293,-0.08008 c -1.551481,-4.214452 -0.7479,-6.77374 -0.117191,-9.066397 C 74.248849,45.609768 50.289811,36.405168 26.429688,26.951172 L 25.951172,26.640625 C 24.945239,25.660103 24.015826,25.37793 23.130859,25.414062 Z m 30.335938,29.177735 c -0.144427,-0.03858 -0.181788,-0.04612 -0.402344,-0.107422 l 0.878906,0.6875 c -0.166061,-0.290947 -0.324133,-0.456498 -0.476562,-0.580078 z"
         transform="scale(0.26458333)"
         sodipodi:nodetypes="sssccsscccccsccccscccccsssccccscccccscscsccsscccccssccscccccscccc" />
      <path
         id="path5601"
         style="color:#000000;font-style:normal;font-variant:normal;font-weight:normal;font-stretch:normal;font-size:medium;line-height:normal;font-family:sans-serif;font-variant-ligatures:normal;font-variant-position:normal;font-variant-caps:normal;font-variant-numeric:normal;font-variant-alternates:normal;font-variant-east-asian:normal;font-feature-settings:normal;font-variation-settings:normal;text-indent:0;text-align:start;text-decoration:none;text-decoration-line:none;text-decoration-style:solid;text-decoration-color:#000000;letter-spacing:normal;word-spacing:normal;text-transform:none;writing-mode:lr-tb;direction:ltr;text-orientation:mixed;dominant-baseline:auto;baseline-shift:baseline;text-anchor:start;white-space:normal;shape-padding:0;shape-margin:0;inline-size:0;clip-rule:nonzero;display:inline;overflow:visible;visibility:visible;isolation:auto;mix-blend-mode:normal;color-interpolation:sRGB;color-interpolation-filters:linearRGB;solid-color:#000000;solid-opacity:1;vector-effect:none;fill:#000000;fill-opacity:1;fill-rule:evenodd;stroke:none;stroke-width:2.92535;stroke-linecap:square;stroke-linejoin:bevel;stroke-miterlimit:9.14286;stroke-dasharray:none;stroke-dashoffset:0;stroke-opacity:1;paint-order:markers stroke fill;color-rendering:auto;image-rendering:auto;shape-rendering:auto;text-rendering:auto;enable-background:accumulate;stop-color:#000000"
         d="m 102.87109,56.019531 c -0.91587,0.02783 -1.65936,0.123011 -2.20898,0.267578 -0.0393,2.5436 -0.5845,5.22246 1.21875,8.363282 L 101.93945,66 c -0.62526,1.341638 -0.63332,2.088608 -0.47851,2.636719 0.15479,0.548111 0.55805,1.064716 1.2539,1.68164 1.16514,1.032975 2.91376,2.627114 4.08985,4.753907 0.86516,-0.04558 1.6231,-0.148762 2.35547,0.289062 0.47302,0.282784 0.89378,0.972277 0.92968,1.490234 0.0359,0.517958 -0.0965,0.818618 -0.17773,1.048829 -0.14742,0.417944 -0.18318,0.580312 -0.19336,0.576171 0.0275,0.0089 0.034,0.0035 0.17969,0.08789 l 0.58203,1.904297 c -0.31341,0.652116 -0.41715,1.099889 -0.42774,1.314453 -0.011,0.214564 0.007,0.16942 0.0137,0.177735 0.0137,0.01675 0.55881,0.307291 1.51367,0.419921 0.95486,0.11263 2.1679,0.12265 3.34375,0.289063 1.05355,0.149106 2.18394,0.596457 2.98242,1.601562 0.15499,-0.0551 0.22816,-0.10811 0.49609,-0.148437 0.31896,-0.04801 0.75913,-0.0027 1.17969,0.148437 3.46145,-0.02717 5.91966,-0.09805 8.29102,-1.667968 0.44978,-1.342564 1.01252,-2.548876 1.3789,-3.587891 0.43722,-1.239859 0.65069,-2.372533 0.22266,-4.113281 l -0.0449,-0.427735 c 0.0316,-0.611327 0.53394,-1.15012 0.84961,-1.320312 0.31566,-0.170192 0.52329,-0.1962 0.70898,-0.222656 0.37135,-0.05329 0.67736,-0.04618 1.0332,-0.03711 0.71172,0.01844 1.56388,0.07586 2.42774,0.06641 0.86386,-0.0093 1.73395,-0.09398 2.35547,-0.28711 0.5727,-0.177952 0.86628,-0.388786 1.03711,-0.662109 0.58932,-2.121269 2.18186,-3.422156 3.8125,-4.208985 1.63009,-0.786568 3.36228,-1.307253 4.96875,-2.134765 1.20324,-1.213489 2.27477,-2.52024 2.72265,-3.824219 0.46507,-1.354031 0.45251,-2.685117 -0.72265,-4.53125 l 1.45312,-1.099609 c -11.69444,-0.222138 -23.52059,0.254018 -35.37109,0.146484 -2.74931,0.45968 -5.82225,0.06689 -8.58789,-0.207031 -1.2421,-0.123011 -2.33022,-0.160646 -3.2461,-0.132813 z m 11.83399,0.339844 c 0.0677,-0.01132 0.13776,-0.01692 0.20508,-0.0293 l -0.28125,0.0293 c 0.0254,2.36e-4 0.0508,-2.31e-4 0.0762,0 z m 23.13672,15.652344 c -0.0268,0.09662 -0.0634,0.185066 -0.0859,0.285156 l 0.13281,-0.353516 c -0.0128,0.02426 -0.0323,0.04506 -0.0469,0.06836 z m -18.25977,12.259765 c -0.10394,8.16e-4 -0.18911,0.0051 -0.29492,0.0059 l 0.92383,0.326172 c -0.18823,-0.150583 -0.40679,-0.252209 -0.62891,-0.332032 z m -9.86328,-5.794922 c -0.0515,-0.01664 -0.0207,0.02114 -0.0195,0.05859 1.6e-4,0.0053 0.0185,-0.05901 0.0195,-0.05859 z m 42.05664,-22.271484 c 0.006,0.0019 0.0384,0.03605 0.043,0.03711 0.0841,0.02033 0.003,0.03284 0.0898,-0.0293 6.4e-4,-7.56e-4 -6.4e-4,-0.0073 0,-0.0078 -0.0439,-0.0012 -0.0889,0.0011 -0.13281,0 z m -19.45898,17.996094 c 0.0166,0.06767 0.002,0.118164 -0.006,0.171875 0.007,2.54e-4 0.0147,-2.59e-4 0.0215,0 z"
         transform="scale(0.26458333)" />
      <path
         id="path5607"
         style="color:#000000;font-style:normal;font-variant:normal;font-weight:normal;font-stretch:normal;font-size:medium;line-height:normal;font-family:sans-serif;font-variant-ligatures:normal;font-variant-position:normal;font-variant-caps:normal;font-variant-numeric:normal;font-variant-alternates:normal;font-variant-east-asian:normal;font-feature-settings:normal;font-variation-settings:normal;text-indent:0;text-align:start;text-decoration:none;text-decoration-line:none;text-decoration-style:solid;text-decoration-color:#000000;letter-spacing:normal;word-spacing:normal;text-transform:none;writing-mode:lr-tb;direction:ltr;text-orientation:mixed;dominant-baseline:auto;baseline-shift:baseline;text-anchor:start;white-space:normal;shape-padding:0;shape-margin:0;inline-size:0;clip-rule:nonzero;display:inline;overflow:visible;visibility:visible;isolation:auto;mix-blend-mode:normal;color-interpolation:sRGB;color-interpolation-filters:linearRGB;solid-color:#000000;solid-opacity:1;vector-effect:none;fill:#000000;fill-opacity:1;fill-rule:evenodd;stroke:none;stroke-width:2.92535;stroke-linecap:square;stroke-linejoin:bevel;stroke-miterlimit:9.14286;stroke-dasharray:none;stroke-dashoffset:0;stroke-opacity:1;paint-order:markers stroke fill;color-rendering:auto;image-rendering:auto;shape-rendering:auto;text-rendering:auto;enable-background:accumulate;stop-color:#000000"
         d="m 134.58984,131.95703 c -0.17997,0.11937 -0.27784,0.16177 -0.48242,0.3125 -0.95871,0.97584 -2.22357,1.35899 -3.31836,1.42383 -1.15693,0.0685 -2.2092,-0.13034 -3.03515,-0.24414 -0.67229,-0.0925 -0.94121,-0.0513 -1.03321,-0.0664 -0.006,0.10155 -0.0265,0.12892 0.0156,0.39844 l 0.006,0.0508 c 0.6576,5.51305 1.25763,11.10185 2.03906,16.76563 l -0.96875,1.58007 c 0.15374,-0.0539 -0.2897,0.28923 -0.57422,1.20899 -0.28454,0.91976 -0.47065,2.21265 -0.50976,3.48437 -0.0391,1.27173 0.065,2.53718 0.26562,3.38868 0.0471,0.19983 0.0892,0.26285 0.14063,0.40625 0.23955,0.0494 0.59168,0.0898 0.66406,0.11132 0.11735,0.0351 0.0773,-5.6e-4 -0.0527,0.0293 -0.0574,0.0132 -0.10091,0.0443 -0.13086,0.0645 l 0.26193,0.008 0.38651,-0.58955 0.69336,-0.28711 0.54688,-0.11914 h 0.14062 c 0.64317,-1.70318 1.47374,-3.30566 1.95508,-4.17773 0.3058,-0.55402 0.40117,-0.90822 0.39844,-1.0625 -0.003,-0.15427 0.001,-0.29061 -0.46485,-0.73828 l -0.39843,-0.67188 c -0.44825,-1.62233 0.0179,-3.17257 0.46484,-4.8125 0.44691,-1.63992 0.97982,-3.34553 1.16797,-4.79101 l 1.40234,-1.26953 c 0.81408,-0.0294 1.14496,-0.23612 1.26953,-0.35547 0.12458,-0.11936 0.18637,-0.23199 0.17578,-0.59766 -0.0212,-0.73137 -0.69486,-2.17915 -1.72656,-3.20313 l -0.42773,-1.02539 c -0.007,-0.99349 0.28052,-1.88265 0.56054,-2.90234 0.23071,-0.84008 0.42743,-1.62997 0.56836,-2.31836 z m -6.97461,28.91406 0.006,-0.0508 c -0.0553,0.0819 -0.0437,0.0762 -0.006,0.0508 z m 6.49219,-28.60156 c 0.0544,-0.0554 0.11175,-0.10475 0.16406,-0.16406 l -0.20507,0.19141 c 0.0195,-0.0149 0.0235,-0.0144 0.041,-0.0273 z"
         transform="scale(0.26458333)"
         sodipodi:nodetypes="ccsccccccsssccsccccccssccsccssccscccccccc" />
      <path
         id="path5613"
         style="color:#000000;font-style:normal;font-variant:normal;font-weight:normal;font-stretch:normal;font-size:medium;line-height:normal;font-family:sans-serif;font-variant-ligatures:normal;font-variant-position:normal;font-variant-caps:normal;font-variant-numeric:normal;font-variant-alternates:normal;font-variant-east-asian:normal;font-feature-settings:normal;font-variation-settings:normal;text-indent:0;text-align:start;text-decoration:none;text-decoration-line:none;text-decoration-style:solid;text-decoration-color:#000000;letter-spacing:normal;word-spacing:normal;text-transform:none;writing-mode:lr-tb;direction:ltr;text-orientation:mixed;dominant-baseline:auto;baseline-shift:baseline;text-anchor:start;white-space:normal;shape-padding:0;shape-margin:0;inline-size:0;clip-rule:nonzero;display:inline;overflow:visible;visibility:visible;isolation:auto;mix-blend-mode:normal;color-interpolation:sRGB;color-interpolation-filters:linearRGB;solid-color:#000000;solid-opacity:1;vector-effect:none;fill:#000000;fill-opacity:1;fill-rule:evenodd;stroke:none;stroke-width:2.92535;stroke-linecap:square;stroke-linejoin:bevel;stroke-miterlimit:9.14286;stroke-dasharray:none;stroke-dashoffset:0;stroke-opacity:1;paint-order:markers stroke fill;color-rendering:auto;image-rendering:auto;shape-rendering:auto;text-rendering:auto;enable-background:accumulate;stop-color:#000000"
         d="m 138.91016,131.02734 c -0.19003,0.003 -0.3402,0.0518 -0.48828,0.125 h -0.002 c -0.3034,0.15001 -0.63611,0.49263 -0.91406,0.99024 -0.27796,0.49761 -0.48482,1.1259 -0.57617,1.68359 -0.0913,0.55769 -0.0296,1.07544 -0.0156,1.1211 l -0.125,1.14453 c -0.15889,0.28281 -0.16381,0.63918 0.0742,1.32031 0.23804,0.68112 0.71291,1.51637 1.12891,2.38477 0.41607,0.86839 0.98441,1.8847 0.44336,3.19726 -0.27053,0.65628 -0.86477,1.16518 -1.49024,1.43164 -0.34487,0.14691 -0.79194,0.16845 -1.18945,0.23633 -0.35133,0.64211 -0.77105,1.95083 -1.07031,3.46289 -0.1662,0.83982 -0.32112,1.69147 -0.52344,2.46484 -0.10129,0.38718 -0.34504,0.72025 -0.48828,1.07813 0.43187,0.60334 0.91023,1.19569 1.08594,1.81641 0.25492,0.90043 0.15326,1.82384 -0.10352,2.57617 -0.51355,1.50465 -1.3987,2.61365 -2.11914,4.62109 l -0.95117,0.90039 c -0.85678,0.25888 -1.17025,0.53404 -1.20313,0.57422 -0.0328,0.04 -0.01,-0.11569 0.0215,0.0664 0.0309,0.18208 0.17673,0.57746 0.36132,1.07812 0.10954,0.29707 0.1367,0.76718 0.20704,1.17383 0.22292,0.31807 0.41935,0.60797 0.54687,0.83398 0.0784,0.139 0.14715,0.25199 0.2207,0.48829 0.0367,0.11815 0.0941,0.26639 0.082,0.55273 -0.003,0.0716 -0.0108,0.15339 -0.0293,0.24414 -0.0186,0.0908 -0.0966,0.30028 -0.0977,0.30273 -4.9e-4,0.001 -0.0698,0.091 -0.10937,0.14063 l 0.0586,0.20703 c -0.0666,0.65315 0.71535,2.25606 1.79297,3.29102 0.53881,0.51748 1.13106,0.8974 1.45508,1.02734 0.16202,0.0651 0.24318,0.0533 0.16211,0.0586 -0.0811,0.005 -0.35752,0.11527 -0.48633,0.2793 l 1.65234,-0.46484 c 0.75145,0.27786 0.67224,0.23415 0.94532,0.28125 0.0105,-0.25401 -0.11292,-0.40803 0.15429,-0.76758 0.2556,-0.34391 0.69094,-0.57455 1.01953,-0.64258 0.3286,-0.068 0.57464,-0.0379 0.79688,0 0.4445,0.0759 0.82746,0.22569 1.33594,0.45117 l 0.84961,1.1211 c -0.0468,-0.31966 -0.0305,-0.0925 0.32421,0.24414 0.35471,0.33659 0.91953,0.79753 1.53516,1.38086 0.89868,0.85152 1.64058,2.42291 2.31055,3.9707 0.0288,0.005 0.097,0.0154 0.0977,0.0156 0.003,0.001 0.26991,0.117 0.36719,0.1836 0.38922,0.26637 0.45517,0.46744 0.52539,0.60547 0.0702,0.13803 0.10031,0.23881 0.13281,0.33984 0.0394,0.1218 0.064,0.33162 0.0957,0.46484 0.28281,0.14519 0.5949,0.29172 0.7539,0.45704 0.33425,0.34756 0.44079,0.56021 0.58204,0.7832 0.0766,-0.0642 -0.0533,0.0476 0.21484,-0.31836 l -0.12695,0.21484 c 0.39823,-0.80622 1.10565,-1.20407 1.65429,-1.43164 0.54865,-0.22756 1.03346,-0.34107 1.37305,-0.45117 0.26203,-0.085 0.28661,-0.11851 0.29492,-0.11133 l 0.52539,-1.43164 c 3.01573,-2.06333 4.65508,-4.12451 6.88672,-6.76953 0.59611,-0.73041 1.61315,-2.64379 1.8457,-3.83008 0.10213,-0.52098 0.012,-0.68359 0.043,-0.67187 -0.0931,-0.01 -0.23587,-0.0269 -0.56836,0.0449 l -1.45312,-0.52539 c -1.41957,-1.79559 -1.48029,-3.91019 -1.32813,-5.68359 0.15213,-1.77341 0.43956,-3.36334 0.24219,-4.50196 l 0.41406,-1.13867 c -0.31402,-0.39044 -1.15163,-1.17929 -1.41015,-2.49414 -0.59359,-1.3072 -1.80459,-2.11702 -3.13672,-3.18945 -0.68147,-0.54862 -1.40152,-1.17933 -1.89844,-2.10352 -0.36208,-0.67339 -0.30815,-1.57635 -0.27148,-2.45703 -2.24301,-1.88663 -3.60205,-4.98709 -3.93555,-8.2168 -1.68981,-0.48073 -3.18838,-1.08084 -4.19336,-1.79297 -1.22146,-0.86552 -2.13208,-1.64381 -3.58789,-2.28906 -0.30243,-0.10864 -0.53068,-0.15171 -0.7207,-0.14844 z m 17.74414,20.19727 c 0.0137,0.0302 0.0319,0.0571 0.0449,0.0879 l -0.10352,-0.41211 c 0.0127,0.11398 0.0376,0.21734 0.0586,0.32422 z"
         transform="scale(0.26458333)" />
      <path
         id="path5619"
         style="color:#000000;font-style:normal;font-variant:normal;font-weight:normal;font-stretch:normal;font-size:medium;line-height:normal;font-family:sans-serif;font-variant-ligatures:normal;font-variant-position:normal;font-variant-caps:normal;font-variant-numeric:normal;font-variant-alternates:normal;font-variant-east-asian:normal;font-feature-settings:normal;font-variation-settings:normal;text-indent:0;text-align:start;text-decoration:none;text-decoration-line:none;text-decoration-style:solid;text-decoration-color:#000000;letter-spacing:normal;word-spacing:normal;text-transform:none;writing-mode:lr-tb;direction:ltr;text-orientation:mixed;dominant-baseline:auto;baseline-shift:baseline;text-anchor:start;white-space:normal;shape-padding:0;shape-margin:0;inline-size:0;clip-rule:nonzero;display:inline;overflow:visible;visibility:visible;isolation:auto;mix-blend-mode:normal;color-interpolation:sRGB;color-interpolation-filters:linearRGB;solid-color:#000000;solid-opacity:1;vector-effect:none;fill:#000000;fill-opacity:1;fill-rule:evenodd;stroke:none;stroke-width:2.92535;stroke-linecap:square;stroke-linejoin:bevel;stroke-miterlimit:9.14286;stroke-dasharray:none;stroke-dashoffset:0;stroke-opacity:1;paint-order:markers stroke fill;color-rendering:auto;image-rendering:auto;shape-rendering:auto;text-rendering:auto;enable-background:accumulate;stop-color:#000000"
         d="m 108.67969,106.74805 c -0.21898,0.0242 -0.43302,0.14484 -0.72461,0.55468 -0.58313,0.81969 -0.94346,2.7033 -0.88477,3.37305 v 0.21484 c -0.0336,0.55538 -0.18033,0.76251 -0.32422,1.04102 -0.1439,0.27851 -0.32001,0.5567 -0.53125,0.85547 -0.42246,0.59757 -0.98143,1.2625 -1.65429,1.89648 -1.01862,0.95975 -2.55491,1.41775 -4.08985,1.6836 -1.563565,2.62467 -3.369768,4.23052 -5.499997,4.85742 -2.207648,0.64968 -4.51556,0.48138 -7.359375,0.41406 l -0.199219,-0.0156 c -0.336756,-0.0545 -0.429597,-0.0329 -0.685547,-0.0586 0.556426,0.68933 1.292249,1.51285 2.042969,2.45117 0.647743,0.80962 1.14099,1.73495 1.558594,2.69336 1.485441,0.60632 2.992807,1.1713 4.384766,2.12696 0.919037,0.63097 1.49626,1.87983 2.199218,2.92187 0.419966,-0.35825 0.614918,-0.58398 0.605469,-0.56054 l 1.417969,-0.90039 c 0.607786,0.0273 0.919512,-0.11593 1.320313,-0.42774 0.4008,-0.31179 0.83317,-0.84401 1.30664,-1.48437 0.47347,-0.64038 0.98525,-1.38792 1.73633,-2.03711 0.75108,-0.6492 1.8318,-1.16898 3.07031,-1.15235 l 0.22852,0.0234 c 1.02136,0.18051 1.06647,0.11933 1.21875,0.125 -0.17638,-0.45365 -0.44379,-1.02184 -0.69532,-1.75586 -0.23988,-0.70007 -0.46122,-1.56748 -0.2539,-2.49219 -0.54146,-1.68501 -0.49867,-3.20534 0.22461,-4.36718 0.79316,-1.27409 2.09072,-1.86004 3.33789,-2.27344 1.43709,-0.47636 2.40892,-0.88187 3.65234,-1.26953 -0.009,-0.0132 -0.0343,-0.008 -0.043,-0.0215 -0.69086,-1.05794 -0.43183,-2.16094 -0.24414,-2.88672 0.18769,-0.72577 0.33846,-1.29919 0.33203,-1.50586 -0.007,-0.20666 0.18027,-0.0768 -0.33203,-0.32421 l -0.73047,-1.01954 c -0.272,0.23352 -0.60201,0.49484 -1.14453,0.57618 -0.60544,0.0908 -1.30856,-0.16877 -1.73437,-0.54688 l 0.0371,0.0293 c -0.84349,-0.7004 -1.32399,-0.76247 -1.54297,-0.73828 z m -1.8125,14.34765 c 0.0523,0.16279 0.10272,0.32449 0.16601,0.49024 l 0.0371,-1.1211 c -0.0959,0.21283 -0.15647,0.42279 -0.20312,0.63086 z"
         transform="scale(0.26458333)" />
    </g>
  </g>
</svg>
