<?xml version="1.0" encoding="UTF-8" standalone="no"?>
<svg
   xmlns:dc="http://purl.org/dc/elements/1.1/"
   xmlns:cc="http://creativecommons.org/ns#"
   xmlns:rdf="http://www.w3.org/1999/02/22-rdf-syntax-ns#"
   xmlns:svg="http://www.w3.org/2000/svg"
   xmlns="http://www.w3.org/2000/svg"
   xmlns:sodipodi="http://sodipodi.sourceforge.net/DTD/sodipodi-0.dtd"
   xmlns:inkscape="http://www.inkscape.org/namespaces/inkscape"
   width="200"
   height="200"
   viewBox="0 0 52.916665 52.916668"
   version="1.1"
   id="svg8"
   inkscape:version="1.0.1 (3bc2e813f5, 2020-09-07)"
   sodipodi:docname="identidad-electoral1.svg"
   inkscape:export-filename="/home/elsahuaro/electoral/web/src/img/identidad-electoral.png"
   inkscape:export-xdpi="96"
   inkscape:export-ydpi="96">
  <defs
     id="defs2" />
  <sodipodi:namedview
     id="base"
     pagecolor="#ffffff"
     bordercolor="#666666"
     borderopacity="1.0"
     inkscape:pageopacity="0.0"
     inkscape:pageshadow="2"
     inkscape:zoom="1.9529811"
     inkscape:cx="75.143111"
     inkscape:cy="105.26274"
     inkscape:document-units="mm"
     inkscape:current-layer="layer3"
     inkscape:document-rotation="0"
     showgrid="false"
     units="px"
     inkscape:window-width="1366"
     inkscape:window-height="705"
     inkscape:window-x="-8"
     inkscape:window-y="-8"
     inkscape:window-maximized="1" />
  <metadata
     id="metadata5">
    <rdf:RDF>
      <cc:Work
         rdf:about="">
        <dc:format>image/svg+xml</dc:format>
        <dc:type
           rdf:resource="http://purl.org/dc/dcmitype/StillImage" />
        <dc:title></dc:title>
      </cc:Work>
    </rdf:RDF>
  </metadata>
  <g
     inkscape:label="Sonora"
     inkscape:groupmode="layer"
     id="layer1"
     style="display:inline" />
  <g
     inkscape:groupmode="layer"
     id="layer3"
     inkscape:label="Pin"
     style="display:inline">
    <rect
       fill="none"
       height="22.72616"
       width="22.72616"
       id="rect849"
       x="17.637886"
       y="6.4054894"
       style="stroke-width:0.946921" />
    <path
       d="M 17.570773,6.2824559 H 40.431154 V 29.142837 H 17.570773 Z"
       fill="none"
       id="path833"
       style="stroke:none;stroke-width:0.952518;stroke-opacity:1" />
    <g
       id="g6958"
       transform="translate(3.5223928,-0.54190658)">
      <path
         id="path6924"
         style="color:#000000;font-style:normal;font-variant:normal;font-weight:normal;font-stretch:normal;font-size:medium;line-height:normal;font-family:sans-serif;font-variant-ligatures:normal;font-variant-position:normal;font-variant-caps:normal;font-variant-numeric:normal;font-variant-alternates:normal;font-variant-east-asian:normal;font-feature-settings:normal;font-variation-settings:normal;text-indent:0;text-align:start;text-decoration:none;text-decoration-line:none;text-decoration-style:solid;text-decoration-color:#000000;letter-spacing:normal;word-spacing:normal;text-transform:none;writing-mode:lr-tb;direction:ltr;text-orientation:mixed;dominant-baseline:auto;baseline-shift:baseline;text-anchor:start;white-space:normal;shape-padding:0;shape-margin:0;inline-size:0;clip-rule:nonzero;display:inline;overflow:visible;visibility:visible;isolation:auto;mix-blend-mode:normal;color-interpolation:sRGB;color-interpolation-filters:linearRGB;solid-color:#000000;solid-opacity:1;vector-effect:none;fill:#000000;fill-opacity:1;fill-rule:evenodd;stroke:none;stroke-width:8.1371;stroke-linecap:square;stroke-linejoin:bevel;stroke-miterlimit:10;stroke-dasharray:none;stroke-dashoffset:0;stroke-opacity:1;paint-order:markers stroke fill;color-rendering:auto;image-rendering:auto;shape-rendering:auto;text-rendering:auto;enable-background:accumulate;stop-color:#000000"
         d="m 13.703125,27.949219 c -4.0423483,0.258113 -7.1692112,4.104714 -5.5449219,9.439453 2.7154259,7.599371 12.0401089,14.110245 19.9746089,14.83789 8.03887,-6.701261 10.085881,11.592143 19.078126,7.826172 4.583565,6.119093 0.0156,15.162639 5.798828,21.625 4.336131,9.667578 6.704451,19.959326 13.40039,28.468746 1.800518,7.99099 8.117747,12.24338 11.748047,19.35547 7.135223,3.11681 9.122324,12.81142 16.326172,16.10743 2.721713,4.19348 8.303325,-3.05962 10.695315,2.90234 -1.6631,7.0589 1.12188,15.80248 9.01562,17.5 9.14514,-0.91032 5.47876,14.78062 14.77735,10.91601 6.91531,0.7663 5.52043,12.09065 11.50586,8.66407 2.9411,-2.49504 6.19283,-4.64531 8.81445,-7.5 5.62979,-4.52138 2.38719,-9.08814 0.62109,-14.21485 3.53879,-10.85179 -13.17718,-16.3299 -9.15234,-27.18164 8.86228,3.06401 14.46937,-7.26163 7.64844,-13.4414 -4.89789,-8.49837 4.44832,-15.40275 1.99609,-23.484379 -2.90921,-7.248155 3.04755,-14.930045 -3.13086,-20.691406 -4.20866,-5.492137 -7.2273,-14.19324 -0.74219,-19.427734 1.32238,-2.043723 -1.69967,-2.893841 -2.74218,-2.908203 -5.15167,-0.07122 -10.71826,0.307954 -16.30274,0.732421 -3.64178,13.364123 -17.9043,29.154297 -17.9043,29.154297 0,0 -14.429271,-15.978725 -17.964839,-29.392578 C 84.400349,55.580095 77.383928,52.784587 70.658203,49.763672 53.568763,43.242071 36.527677,36.528112 19.421875,30.019531 17.567111,28.456596 15.540556,27.831895 13.703125,27.949219 Z"
         transform="scale(0.26458333)" />
      <path
         style="color:#000000;font-style:normal;font-variant:normal;font-weight:normal;font-stretch:normal;font-size:medium;line-height:normal;font-family:sans-serif;font-variant-ligatures:normal;font-variant-position:normal;font-variant-caps:normal;font-variant-numeric:normal;font-variant-alternates:normal;font-variant-east-asian:normal;font-feature-settings:normal;font-variation-settings:normal;text-indent:0;text-align:start;text-decoration:none;text-decoration-line:none;text-decoration-style:solid;text-decoration-color:#000000;letter-spacing:normal;word-spacing:normal;text-transform:none;writing-mode:lr-tb;direction:ltr;text-orientation:mixed;dominant-baseline:auto;baseline-shift:baseline;text-anchor:start;white-space:normal;shape-padding:0;shape-margin:0;inline-size:0;clip-rule:nonzero;display:inline;overflow:visible;visibility:visible;isolation:auto;mix-blend-mode:normal;color-interpolation:sRGB;color-interpolation-filters:linearRGB;solid-color:#000000;solid-opacity:1;vector-effect:none;fill:#000000;fill-opacity:1;fill-rule:nonzero;stroke:none;stroke-width:1.54161;stroke-linecap:butt;stroke-linejoin:miter;stroke-miterlimit:4;stroke-dasharray:none;stroke-dashoffset:0;stroke-opacity:1;paint-order:markers stroke fill;color-rendering:auto;image-rendering:auto;shape-rendering:auto;text-rendering:auto;enable-background:accumulate;stop-color:#000000"
         d="m 28.994094,7.5633535 c -2.562045,0 -4.634191,2.1993563 -4.634191,4.9186895 0,3.689018 4.634191,9.134713 4.634191,9.134713 0,0 4.63419,-5.445695 4.63419,-9.134713 0,-2.7193332 -2.072144,-4.9186895 -4.63419,-4.9186895 z m 0,6.6753645 c -0.913598,0 -1.655068,-0.786991 -1.655068,-1.756675 0,-0.969685 0.74147,-1.756676 1.655068,-1.756676 0.913597,0 1.655068,0.786991 1.655068,1.756676 0,0.969684 -0.741471,1.756675 -1.655068,1.756675 z"
         id="path6932" />
    </g>
  </g>
</svg>
