<?xml version="1.0" encoding="UTF-8" standalone="no"?>
<svg
   xmlns:dc="http://purl.org/dc/elements/1.1/"
   xmlns:cc="http://creativecommons.org/ns#"
   xmlns:rdf="http://www.w3.org/1999/02/22-rdf-syntax-ns#"
   xmlns:svg="http://www.w3.org/2000/svg"
   xmlns="http://www.w3.org/2000/svg"
   xmlns:sodipodi="http://sodipodi.sourceforge.net/DTD/sodipodi-0.dtd"
   xmlns:inkscape="http://www.inkscape.org/namespaces/inkscape"
   version="1.1"
   id="svg833"
   width="989"
   height="1024"
   viewBox="0 0 989 1024"
   sodipodi:docname="iconocartografia.svg"
   inkscape:version="1.0.2 (e86c870879, 2021-01-15)">
  <metadata
     id="metadata839">
    <rdf:RDF>
      <cc:Work
         rdf:about="">
        <dc:format>image/svg+xml</dc:format>
        <dc:type
           rdf:resource="http://purl.org/dc/dcmitype/StillImage" />
        <dc:title></dc:title>
      </cc:Work>
    </rdf:RDF>
  </metadata>
  <defs
     id="defs837">
    <mask
       maskUnits="userSpaceOnUse"
       id="mask1823">
      <rect
         style="fill:#e2f1f8;fill-opacity:1;stroke:none;stroke-width:1.764;stroke-linejoin:round;stroke-miterlimit:4;stroke-dasharray:none;stroke-opacity:1"
         id="rect1825"
         width="15.873879"
         height="16.370884"
         x="253.67014"
         y="216.09221" />
    </mask>
  </defs>
  <sodipodi:namedview
     pagecolor="#ffffff"
     bordercolor="#666666"
     borderopacity="1"
     objecttolerance="10"
     gridtolerance="10"
     guidetolerance="10"
     inkscape:pageopacity="0"
     inkscape:pageshadow="2"
     inkscape:window-width="1920"
     inkscape:window-height="1016"
     id="namedview835"
     showgrid="false"
     inkscape:zoom="0.42165386"
     inkscape:cx="-28.048623"
     inkscape:cy="710.71154"
     inkscape:window-x="0"
     inkscape:window-y="27"
     inkscape:window-maximized="1"
     inkscape:current-layer="g841"
     inkscape:document-rotation="0" />
  <g
     inkscape:groupmode="layer"
     inkscape:label="Image"
     id="g841">
    <path
       id="path904"
       style="stroke-width:1.5713"
       d="m 924.0918,206.19727 c -3.07017,0.005 -6.21801,0.58291 -9.31446,1.82031 l -216.93359,98.74023 v 103.62891 c 9.46303,4.02063 18.2607,8.36861 26.27344,13.06445 28.30009,16.58519 49.58008,39.17121 49.58008,68.07422 0,20.17284 -11.02728,37.94564 -26.58008,51.73438 -13.04837,11.56836 -29.68979,21.22844 -49.27344,29.5039 v 337.37305 l 219.79297,-87.91406 a 50.275308,50.275308 0 0 0 31.61523,-46.6836 V 231.36719 c 0,-14.45203 -11.85609,-25.19087 -25.16015,-25.16992 z" />
    <path
       id="path902"
       style="stroke-width:1.5713"
       d="m 345.87305,206.19336 v 188.4707 c 11.82274,-3.12369 24.26186,-5.88712 37.27343,-8.26562 l 5.33399,-0.97461 c -3.22235,-6.67924 -5.18164,-14.05324 -5.18164,-21.89844 v -96 c 0,-16.53495 6.10699,-31.72696 16.15429,-43.4707 z M 445,239.23633 c -13.42119,2.50413 -23.30273,14.04111 -23.30273,28.28906 v 96 c 0,7.28947 5.51131,12.80078 12.80078,12.80078 h 19.19922 v 115.19922 c 0,7.28947 5.51131,12.80078 12.80078,12.80078 h 64 c 7.28946,0 12.80078,-5.51131 12.80078,-12.80078 V 376.32617 h 19.19922 c 7.28946,0 12.80078,-5.51131 12.80078,-12.80078 v -80.85547 z m 168.69727,56.23242 v 68.05664 c 0,7.8452 -1.95929,15.2192 -5.18165,21.89844 l 5.33594,0.97461 c 11.71128,2.14081 22.95659,4.59509 33.71094,7.33984 v -86.98047 z m -198.39844,163.99609 -10.12891,1.42383 c -23.06779,3.2424 -43.3482,7.7154 -59.29687,12.72852 v 35.85742 c 3.3435,1.06652 6.83342,2.11224 10.53711,3.10937 19.63302,5.28577 44.18095,9.50691 71.65429,12.26172 -7.83271,-9.00627 -12.76562,-20.58775 -12.76562,-33.32031 z m 166.39844,0.002 v 32.05859 c 0,12.73256 -4.93291,24.31404 -12.76563,33.32031 27.47334,-2.75481 52.02127,-6.97595 71.6543,-12.26172 2.40475,-0.64742 4.72078,-1.31517 6.97656,-1.99414 v -38.0664 c -15.36555,-4.56999 -34.35275,-8.6326 -55.73438,-11.63477 z m -199.125,98.02734 c 34.33246,6.81252 73.87634,10.83203 115.92578,10.83203 42.04313,0 81.58126,-4.01747 115.91015,-10.82812 -33.80955,5.89801 -73.34969,9.22851 -115.91015,9.22851 -42.56762,0 -82.11251,-3.33254 -115.92578,-9.23242 z m -36.69922,31.02734 V 809.57227 L 647.5625,910.13672 V 589.45117 c -42.98152,11.05326 -94.05656,17.27539 -149.06445,17.27539 -56.53332,0 -108.91659,-6.57079 -152.625,-18.20508 z" />
    <path
       id="path2"
       style="stroke-width:1.5713"
       d="M 295.5918,206.19336 75.796875,294.10742 a 50.291021,50.291021 0 0 0 -31.613281,46.6836 v 544.17382 c 0,17.78711 17.960251,29.94907 34.474609,23.34961 L 295.5918,809.57227 v -238.3418 c -18.0444,-7.93084 -33.46256,-17.10986 -45.71289,-27.9707 -15.5528,-13.78874 -26.58008,-31.56154 -26.58008,-51.73438 0,-28.90301 21.27998,-51.48903 49.58008,-68.07422 7.0042,-4.10479 14.5936,-7.94994 22.71289,-11.53906 z m -4.5586,251.1875 c -21.41917,12.86726 -29.33593,25.28152 -29.33593,34.14453 0,6.33716 3.29967,13.82007 13.65625,23.00195 4.40598,3.90624 10.21662,7.87365 16.84375,11.78516 -11.33428,-8.23176 -20.89844,-19.39967 -20.89844,-34.78711 0,-12.13778 6.52367,-22.40597 14.26172,-29.60937 1.72722,-1.60789 3.57309,-3.09421 5.47265,-4.53516 z" />
    <path
       fill="currentColor"
       d="m 610.39814,405.28559 c -4.62,5.3 -9.78,10.1 -15.9,13.65 v 22.94 c 66.52,9.34 112,28.05 112,49.65 0,30.93 -93.12,56 -208,56 -114.88,0 -208,-25.07 -208,-56 0,-21.6 45.48,-40.3 112,-49.65 v -22.94 c -6.12,-3.55 -11.28,-8.35 -15.9,-13.65 -85.23,15.58 -144.1,48.29 -144.1,86.24 0,53.02 114.62,96 256,96 141.38,0 256,-42.98 256,-96 0,-37.95 -58.87,-70.66 -144.1,-86.24 z m -111.9,-201.76001 c 35.35,0 64,-28.65 64,-64.00001 0,-35.35 -28.65,-64 -64,-64 -35.35,0 -64,28.65 -64,64 0,35.35001 28.65,64.00001 64,64.00001 z m -64,192.00001 v 96 c 0,17.67 14.33,32 32,32 h 64 c 17.67,0 32,-14.33 32,-32 v -96 c 17.67,0 32,-14.33 32,-32 v -96 c 0,-26.51 -21.49,-48.00001 -48,-48.00001 h -11.8 c -11.07,5.03 -23.26,8 -36.2,8 -12.94,0 -25.13,-2.97 -36.2,-8 h -11.8 c -26.51,0 -48,21.49001 -48,48.00001 v 96 c 0,17.67 14.33,32 32,32 z"
       id="path2-3" />
    <g
       id="g921"
       style="opacity:1" />
  </g>
</svg>
